<svg width="720" height="900" viewBox="0 0 720 900" fill="none" xmlns="http://www.w3.org/2000/svg">
<rect width="720" height="900" fill="black"/>
<path d="M316.804 424.791C316.752 424.925 316.826 425.039 317.004 425.094C317.155 425.142 317.37 425.339 317.479 425.534C317.588 425.73 317.731 425.89 317.796 425.89C317.865 425.889 317.92 426.058 317.925 426.27L317.93 426.651L322.014 426.435C324.239 426.262 325.338 426.198 327.018 426.153C327.718 426.133 328.287 426.061 328.286 425.988C328.284 425.916 327.891 425.82 327.411 425.771C326.931 425.721 324.158 425.126 324.113 425.055C324.038 424.94 324.44 424.9 326.005 424.864C326.768 424.846 330.374 423.901 330.418 425.735C330.42 425.872 330.522 426.797 330.643 427.794C330.773 428.868 329.301 440.603 329.413 441.681C329.525 442.758 329.637 443.964 329.665 444.362C329.695 444.76 329.794 445.313 329.883 445.591C329.975 445.868 329.385 446.555 329.394 447.139C329.404 447.781 329.497 448.36 329.626 448.602C329.76 448.851 329.859 449.495 329.887 450.296C329.936 451.822 330.225 452.93 330.721 453.5C331.342 454.213 334.527 455.343 334.521 454.816C334.519 454.738 334.694 454.629 334.913 454.573C335.132 454.518 335.483 454.281 335.696 454.05C335.908 453.817 336.202 453.625 336.353 453.621C336.802 453.615 337.277 452.983 337.161 452.548C337.097 452.31 337.143 452.056 337.288 451.841C337.412 451.658 337.511 451.356 337.509 451.171C337.481 449.543 341.27 446.185 342.519 444.703C343.629 443.387 344.833 441.732 346.536 441.572C347.779 441.45 348.782 446.275 349.519 448.863L349.407 447.966C349.498 448.435 349.539 448.865 349.543 449.42L349.42 449.465C349.438 449.908 349.387 450.066 349.212 450.265C348.987 450.518 348.825 451.207 348.817 451.956C348.811 452.38 348.337 453.202 348.095 453.205C347.894 453.209 347.878 453.301 347.957 454.009C348.071 455.044 347.872 456.049 347.52 456.186C347.372 456.243 347.137 456.582 346.976 456.977C346.819 457.358 346.563 457.845 346.405 458.061C346.151 458.409 346.135 458.505 346.274 458.899C346.428 459.337 347.024 459.784 348.472 460.538C348.738 460.676 349.059 460.898 349.19 461.03C349.323 461.165 349.697 461.298 350.069 461.341C350.423 461.38 350.933 461.443 351.2 461.479L351.688 461.543L351.599 461.044C351.485 460.389 351.734 460.168 352.608 460.153C353.106 460.145 353.333 460.073 353.568 459.849C353.861 459.568 354.198 459.5 355.378 459.48C355.579 459.477 355.832 459.308 356.079 459.012C356.29 458.757 356.673 458.32 356.927 458.042C357.318 457.617 357.451 457.302 357.755 456.093C358.313 453.885 358.453 453.499 358.354 452.485L358.565 452.256L358.287 451.911C358.237 451.538 357.976 450.85 357.818 450.302C357.782 450.119 357.74 449.932 357.698 449.763L357.307 446.669C357.232 445.87 357.178 445.144 357.182 444.803C357.185 444.623 357.106 443.967 357.007 443.347C356.908 442.724 356.834 441.487 356.843 440.594L356.863 438.977L357.754 437.727C359.338 435.513 362.131 432.04 362.332 432.037C362.493 432.035 362.453 434.695 362.247 437.553L362.123 439.209L362.592 440.03C362.936 440.636 363.088 441.088 363.167 441.745C363.224 442.251 363.467 443.121 363.729 443.761C363.984 444.383 364.231 445.104 364.278 445.371C364.395 445.993 365.1 447.632 365.366 447.888C365.48 447.999 365.573 448.253 365.578 448.453C365.584 448.902 365.707 449.003 366.681 449.344C367.304 449.561 371.77 450.157 371.804 450.025C371.808 450.008 371.934 449.817 372.082 449.597C372.236 449.372 372.389 448.86 372.436 448.416C372.516 447.663 372.91 446.341 373.141 446.037C373.203 445.956 373.286 445.661 373.374 445.244C373.781 444.473 374.035 443.856 374.189 443.348C374.2 443.438 374.211 443.532 374.224 443.629C374.488 445.995 375.153 447.014 375.153 447.014C376.566 449.228 377.33 450.038 378.574 450.648C379.163 450.939 379.447 450.98 380.651 450.953C382.671 450.908 383.593 450.824 384.577 450.462H384.578C390.807 450.386 396.495 443.484 397.41 442.141C398.321 440.797 398.629 438.381 398.631 438.365V438.362C398.631 438.362 400.328 435.813 400.509 435.594C400.69 435.379 401.698 432.59 397.74 432.566C396.595 432.667 396.179 433.275 396.077 434.113C395.567 438.323 394.185 440.908 392.586 442.542C392.497 442.63 392.409 442.719 392.323 442.799C392.293 442.828 392.263 442.856 392.232 442.883C392.152 442.956 392.076 443.023 391.998 443.091C391.931 443.149 391.861 443.208 391.795 443.265C391.771 443.282 391.751 443.3 391.728 443.317C389.544 445.058 387.178 445.337 386.133 445.698L385.162 445.786C385.162 445.786 381.192 445.599 380.202 443.997C379.824 443.387 379.119 442.749 380.358 441.573C380.556 441.383 382.308 440.523 383.442 440.446C385.47 440.309 386.783 439.733 389.551 437.758C390.955 436.757 391.282 436.452 391.788 435.678C392.01 435.341 392.526 434.786 392.937 434.446C393.349 434.105 393.755 433.655 393.841 433.443C393.93 433.229 394.127 432.938 394.283 432.793C394.642 432.46 394.958 431.835 394.951 431.474C394.95 431.321 395.033 431.125 395.136 431.036C395.244 430.943 395.359 430.44 395.403 429.897C395.474 428.975 395.453 428.875 394.967 428.013C394.575 427.309 394.455 426.931 394.443 426.353C394.428 425.633 394.404 425.592 393.833 425.245C393.053 424.768 392.501 424.591 390.674 424.238C389.318 423.976 388.837 423.953 386.313 424.042C383.501 424.146 383.474 424.149 382.928 424.542C382.627 424.759 382.304 424.94 382.212 424.943C382.015 424.945 380.916 425.893 379.495 427.286C378.486 428.277 378.466 428.286 377.683 428.297C376.728 428.313 376.292 428.668 376.15 429.544C376.004 430.427 375.262 432.495 374.877 433.086C374.654 433.429 374.343 433.684 374.012 433.795C373.224 434.061 373.208 434.153 373.839 434.747C374.409 435.286 374.42 435.314 374.297 435.912C374.227 436.248 374.016 436.736 373.821 436.994C373.464 437.481 373.395 437.928 373.617 438.335C373.689 438.466 373.798 439.247 373.862 440.072C373.906 440.644 373.939 441.06 373.979 441.465C373.37 441.943 372.186 442.826 371.974 443.052L371.339 443.728L371.235 443.274C371.177 443.025 371.154 442.78 371.183 442.73C371.216 442.679 371.24 440.854 371.24 438.673C371.246 432.261 371.262 431.994 371.708 430.709C372.322 428.944 372.793 426.931 372.99 425.248L373.069 424.587L372.358 423.981C371.673 423.4 371.625 423.381 371.038 423.47C370.632 423.532 370.285 423.501 369.991 423.38C368.993 422.965 368.822 422.93 368.108 422.999C367.09 423.1 365.891 423.546 365.172 424.094C364.842 424.342 364.502 424.549 364.414 424.551C364.325 424.551 364.108 424.674 363.927 424.819C363.745 424.966 363.526 425.088 363.434 425.088C363.346 425.09 363.202 425.271 363.115 425.492C363.03 425.712 362.85 425.95 362.721 426.024C362.593 426.094 362.377 426.405 362.248 426.713C362.119 427.02 361.604 427.908 361.105 428.687C360.607 429.468 359.94 430.625 359.621 431.261C359.12 432.264 357.697 434.18 357.349 434.319C357.284 434.347 357.258 434.066 357.293 433.668C357.329 433.282 357.55 431.087 357.034 428.879C355.95 424.224 355.84 423.411 356.159 421.245C356.52 418.823 356.7 415.631 356.675 413.148H356.676C356.662 412.674 357.076 412.223 357.034 412.039C356.988 411.846 356.983 411.564 357.025 411.412C357.078 411.222 357.056 411.15 356.964 411.172C356.811 411.206 356.594 410.207 356.633 409.662C356.646 409.478 356.645 408.991 356.633 408.58C356.617 408.09 356.672 407.805 356.798 407.748C357.044 407.639 357.221 406.091 357.158 404.585C357.1 403.171 357.135 402.976 357.459 402.786C357.706 402.638 357.706 402.636 357.387 402.597C357.092 402.557 357.064 402.506 357.02 401.939C356.994 401.6 356.995 401.08 357.021 400.784C357.05 400.485 357.042 399.933 357.004 399.555C356.97 399.179 356.999 398.828 357.071 398.78C357.152 398.726 357.136 398.479 357.029 398.143C356.772 397.326 356.918 395.835 357.3 395.39C357.659 394.973 357.918 394.882 358.081 395.123C358.202 395.306 358.444 395.294 358.633 395.092C358.698 395.025 358.74 394.733 358.723 394.446C358.698 393.938 358.694 393.934 358.56 394.252C358.35 394.754 358.09 394.72 357.667 394.142C357.279 393.611 357.132 392.897 357.327 392.488C357.386 392.363 357.372 392.312 357.289 392.332C357.218 392.348 357.145 392.465 357.127 392.587C357.107 392.75 357.048 392.786 356.932 392.712C356.751 392.598 356.839 392.037 357.051 391.989C357.119 391.973 357.14 391.819 357.1 391.647C357.059 391.47 356.966 391.361 356.887 391.398C356.783 391.447 356.666 391.151 356.478 390.36C356.257 389.439 356.245 389.226 356.4 389.089C356.502 388.999 356.578 388.794 356.567 388.632C356.554 388.472 356.618 388.339 356.705 388.335C356.804 388.333 356.834 388.185 356.779 387.949C356.727 387.725 356.645 387.609 356.583 387.67C356.524 387.729 356.456 387.686 356.429 387.574C356.402 387.462 356.446 387.393 356.524 387.419C356.614 387.448 356.609 387.204 356.509 386.773C356.372 386.171 356.323 386.095 356.145 386.202C356.008 386.283 355.984 386.276 356.069 386.177C356.169 386.062 356.824 383.727 357.097 382.434C357.048 382.395 356.991 382.318 356.926 382.192C356.742 381.835 356.753 381.348 356.946 381.413C357.181 381.493 356.959 380.9 356.42 380.01C355.713 378.831 354.191 377.678 354.031 377.551C353.961 377.492 353.204 376.919 353.121 376.751C353.036 376.584 350.46 375.311 349.983 375.061C349.2 374.651 347.456 374 346.449 374.029C346.151 373.981 345.994 374.01 345.775 374.104C345.55 374.201 345.154 374.276 344.897 374.271C344.605 374.264 344.304 374.361 344.098 374.53C343.914 374.679 343.708 374.802 343.641 374.804C343.574 374.805 343.41 374.932 343.274 375.089C343.139 375.244 342.781 375.481 342.476 375.618C341.944 375.859 341.925 375.886 341.933 376.462C341.939 376.79 341.873 377.173 341.789 377.313C341.661 377.527 341.688 377.674 341.939 378.174C342.173 378.64 342.209 378.816 342.095 378.961C341.977 379.105 341.991 379.145 342.155 379.143C342.301 379.141 342.363 379.262 342.365 379.562C342.368 379.796 342.408 380.164 342.454 380.379C342.499 380.595 342.581 381.374 342.635 382.112C342.72 383.264 342.705 383.489 342.517 383.704C342.309 383.94 342.31 383.96 342.535 384.082C342.74 384.192 342.779 384.392 342.797 385.456C342.815 386.486 342.854 386.711 343.026 386.752C343.19 386.793 343.278 387.12 343.419 388.205C343.581 389.464 343.577 389.632 343.387 389.85C343.236 390.021 343.212 390.153 343.304 390.311C343.376 390.433 343.41 390.636 343.377 390.761C343.342 390.907 343.417 391.008 343.596 391.053C343.747 391.089 343.89 391.08 343.918 391.034C343.944 390.985 343.961 390.096 343.955 389.059C343.948 388.019 343.978 387.034 344.016 386.867C344.127 386.378 344.328 386.662 344.25 387.207C344.19 387.626 344.225 387.737 344.479 387.907C344.667 388.034 344.892 388.451 345.085 389.03C345.255 389.536 345.464 390.032 345.551 390.132C345.644 390.243 345.671 390.439 345.619 390.616C345.432 391.239 345.597 392.551 345.993 393.572C346.207 394.128 346.483 395.079 346.605 395.684C347.015 397.692 347.355 403.296 347.09 403.587C347.027 403.655 346.888 404.129 346.784 404.639C346.586 405.598 346.67 406.726 346.97 407.075C347.048 407.166 347.239 407.563 347.396 407.955C347.668 408.641 347.683 408.896 347.768 414.553C347.818 417.789 347.829 421.936 347.792 423.771C347.752 425.605 347.713 429.016 347.701 431.351L347.676 435.597L347.838 436.898C347.2 437.457 344.888 439.5 344.319 440.223C342.368 442.722 337.738 445.769 337.777 443.176C337.781 442.996 337.709 442.616 337.631 442.329C337.349 441.285 337.37 424.807 340.676 424.476C343.429 424.203 344.674 423.998 344.958 423.735C345.255 423.456 345.569 422.587 345.847 421.271C345.963 420.715 346.159 420.146 346.278 420.006C346.462 419.797 346.468 419.698 346.313 419.42C346.212 419.237 346.104 418.956 346.078 418.796C345.883 417.666 345.486 416.595 345.085 416.112C344.832 415.808 344.576 415.592 344.512 415.632C344.452 415.67 344.358 415.64 344.307 415.558C344.173 415.351 343.65 415.386 343.649 415.604C343.647 415.704 343.511 415.95 343.349 416.151C343.096 416.466 342.891 416.535 341.875 416.634C341.225 416.698 340.277 416.765 339.765 416.778L338.838 416.805L338.904 415.184C338.95 414.039 339.033 413.491 339.188 413.316C339.725 412.703 340.133 408.872 339.865 406.983C339.798 406.509 339.696 405.761 339.637 405.325C339.581 404.887 339.477 404.364 339.41 404.167C338.956 402.861 338.767 402.073 338.82 401.685C338.871 401.284 338.822 401.216 338.352 401.035C338.063 400.922 337.555 400.707 337.223 400.557C336.517 400.235 336.922 399.947 334.341 400.193C332.367 400.382 331.955 400.497 331.523 400.995C331.367 401.176 331.091 401.382 330.912 401.452C330.606 401.576 330.483 402.01 330.694 402.216C330.747 402.267 330.783 402.784 330.777 403.364C330.765 404.225 330.813 404.472 331.044 404.71C331.204 404.875 331.373 405.336 331.441 405.792C331.603 406.889 331.587 408.717 331.413 408.932C331.333 409.033 331.307 409.235 331.356 409.385C331.496 409.798 331.696 416.674 331.587 417.252L331.489 417.763L327.125 418.244C323.665 418.478 320.861 418.618 318.733 419.459L317.478 419.252L316.928 421.116C316.717 421.717 316.184 423.165 316.431 423.661C316.681 424.161 316.848 424.669 316.804 424.791ZM380.486 436.742C380.895 435.888 382.332 432.792 383.086 432.304C383.43 432.083 383.708 431.854 383.708 431.795C383.701 431.277 385.735 431.296 386.576 431.256C387.196 431.224 387.952 431.59 387.958 431.925C387.96 432.028 387.059 432.896 385.952 433.851C384.848 434.807 383.217 436.252 382.327 437.058C381.436 437.868 380.596 438.53 380.459 438.536C380.096 438.546 380.113 437.523 380.486 436.742Z" fill="#EE3123"/>
<path d="M246.906 455.271C246.911 455.368 246.933 455.448 246.958 455.448C246.983 455.447 247.067 455.363 247.146 455.262C247.261 455.11 247.252 455.076 247.092 455.083C246.985 455.087 246.902 455.173 246.906 455.271Z" fill="#EE3123"/>
<path d="M246.378 454.018L246.824 453.931C247.07 453.884 247.308 453.809 247.353 453.766C247.396 453.722 247.452 453.251 247.474 452.717L247.514 451.745L247.028 451.528L246.541 451.312L246.616 451.802C246.67 452.154 246.64 452.336 246.506 452.457C246.373 452.574 246.328 452.828 246.348 453.322L246.378 454.018Z" fill="#EE3123"/>
<path d="M260.816 497.663C260.755 497.769 260.739 497.937 260.781 498.033C260.901 498.312 260.964 498.238 260.945 497.838C260.933 497.57 260.898 497.523 260.816 497.663Z" fill="#EE3123"/>
<path d="M250.537 464.154C250.467 464.074 250.378 463.902 250.341 463.772C250.295 463.615 250.271 463.668 250.274 463.925C250.276 464.211 250.327 464.312 250.47 464.306C250.611 464.301 250.629 464.258 250.537 464.154Z" fill="#EE3123"/>
<path d="M243.084 462.532C242.991 462.502 242.817 462.553 242.698 462.652C242.499 462.819 242.506 462.829 242.807 462.82C243.167 462.809 243.347 462.623 243.084 462.532Z" fill="#EE3123"/>
<path d="M243.379 460.07C243.002 460.518 242.955 461.122 243.273 461.415C243.553 461.673 243.9 461.623 244.606 461.229C245.263 460.862 245.317 460.736 245.029 460.236C244.554 459.402 243.986 459.347 243.379 460.07Z" fill="#EE3123"/>
<path d="M239.035 457.454C238.937 457.563 239.037 457.583 239.442 457.538C239.751 457.503 239.952 457.429 239.915 457.362C239.829 457.204 239.201 457.272 239.035 457.454Z" fill="#EE3123"/>
<path d="M249.456 458.059C249.489 457.754 249.425 457.629 249.108 457.377C248.895 457.207 248.61 457.069 248.474 457.073C248.151 457.082 247.932 456.868 247.918 456.536C247.909 456.337 247.798 456.238 247.473 456.147C247.235 456.079 247.011 455.957 246.976 455.876C246.927 455.764 246.772 455.759 246.353 455.855C245.839 455.973 245.753 455.955 245.267 455.644C244.976 455.456 244.692 455.305 244.636 455.307C244.581 455.309 244.465 455.234 244.379 455.138C244.293 455.043 244.109 454.972 243.968 454.981C243.715 454.998 243.715 454.999 243.991 455.176C244.345 455.402 244.37 455.867 244.069 456.653C243.946 456.979 243.867 457.313 243.896 457.393C243.929 457.475 244.198 457.538 244.523 457.538C244.928 457.539 245.179 457.615 245.396 457.802C245.753 458.112 245.771 458.216 245.541 458.73C245.386 459.077 245.389 459.147 245.577 459.506C245.694 459.728 245.96 459.975 246.179 460.069C246.395 460.162 246.605 460.243 246.647 460.249C246.842 460.282 246.993 459.847 246.99 459.269L246.985 458.63L247.551 458.615C247.861 458.604 248.25 458.663 248.413 458.741C248.838 458.947 249.397 458.579 249.456 458.059Z" fill="#EE3123"/>
<path d="M246.66 460.742C246.594 460.745 246.544 460.802 246.547 460.866C246.548 460.934 246.605 460.984 246.67 460.982C246.736 460.978 246.789 460.924 246.785 460.857C246.782 460.792 246.727 460.739 246.66 460.742Z" fill="#EE3123"/>
<path d="M427.66 470.896C427.957 470.877 427.959 470.873 427.676 470.693C427.376 470.503 427.107 470.565 427.266 470.79C427.315 470.859 427.494 470.908 427.66 470.896Z" fill="#EE3123"/>
<path d="M370.023 470.154C369.82 470.168 369.734 470.407 369.847 470.652C369.903 470.774 370.002 470.834 370.071 470.786C370.234 470.671 370.195 470.144 370.023 470.154Z" fill="#EE3123"/>
<path d="M370.172 467.856C370.098 467.861 369.945 467.833 369.828 467.798C369.667 467.748 369.638 467.818 369.707 468.083C369.784 468.39 369.831 468.412 370.056 468.251C370.33 468.054 370.391 467.841 370.172 467.856Z" fill="#EE3123"/>
<path d="M423.534 483.201C423.478 483.307 423.468 483.441 423.511 483.503C423.669 483.726 423.827 483.585 423.732 483.303C423.662 483.089 423.61 483.062 423.534 483.201Z" fill="#EE3123"/>
<path d="M333.448 475.51C333.461 475.706 333.499 475.784 333.534 475.682C333.566 475.583 333.555 475.421 333.511 475.326C333.464 475.232 333.436 475.313 333.448 475.51Z" fill="#EE3123"/>
<path d="M343.283 491.7C342.875 490.07 342.845 489.822 343.001 489.441C343.164 489.045 343.15 488.982 342.79 488.57C342.578 488.326 342.396 488.026 342.388 487.908C342.382 487.786 342.223 487.348 342.036 486.932C341.81 486.431 341.684 485.871 341.657 485.269C341.602 484.014 341.411 483.343 341.09 483.281C340.767 483.218 340.633 482.681 340.825 482.222C340.904 482.035 341.217 481.641 341.524 481.345C341.828 481.046 342.072 480.718 342.066 480.616C342.059 480.513 342.154 480.382 342.277 480.325C342.447 480.248 342.473 480.111 342.385 479.766C342.321 479.513 342.322 479.08 342.387 478.8C342.795 477.063 343.036 475.452 343.18 473.489C343.227 472.836 343.364 471.918 343.486 471.449C343.703 470.612 343.701 470.587 343.4 470.058C343.233 469.764 342.831 469.282 342.506 468.991C341.995 468.526 341.787 468.444 340.843 468.328C340.25 468.256 338.875 468.227 337.789 468.263L335.813 468.328L335.191 468.913C334.491 469.571 334.283 469.742 333.281 470.494C332.892 470.788 332.58 471.112 332.587 471.219C332.594 471.322 332.119 471.93 331.533 472.567C330.947 473.204 330.435 473.849 330.397 474.002C330.359 474.157 330.256 474.243 330.166 474.195C330.066 474.141 330.038 474.186 330.093 474.307C330.145 474.419 329.93 474.825 329.587 475.257C329.259 475.672 329.026 475.879 329.073 475.718C329.12 475.557 329.283 474.936 329.438 474.339C329.592 473.74 329.804 473.101 329.908 472.918C330.011 472.735 330.089 472.458 330.079 472.304C330.069 472.149 330.197 471.913 330.361 471.78C330.586 471.601 330.645 471.419 330.596 471.051C330.561 470.783 330.59 470.523 330.66 470.475C330.899 470.306 330.435 469.693 330.086 469.713C329.849 469.727 329.706 469.617 329.582 469.321C329.486 469.094 329.283 468.878 329.127 468.838C328.975 468.802 328.845 468.699 328.84 468.611C328.823 468.328 329.108 467.485 329.224 467.477C329.287 467.473 329.334 467.373 329.325 467.256C329.319 467.138 329.24 467.062 329.154 467.089C329.067 467.114 328.956 467.045 328.91 466.938C328.851 466.802 328.897 466.764 329.062 466.815C329.349 466.905 329.356 466.848 329.094 466.447C328.985 466.277 328.882 466.116 328.866 466.088C328.769 465.933 327.994 466.523 327.976 466.767C327.959 466.983 327.843 467.066 327.535 467.089C327.305 467.108 327.098 467.199 327.074 467.291C327.041 467.416 326.937 467.425 326.681 467.328C326.274 467.172 325.867 467.315 325.985 467.572C326.104 467.833 325.138 467.913 324.374 467.71C323.47 467.466 321.102 468.14 320.939 468.501C320.866 468.663 320.684 468.804 320.538 468.814C320.349 468.826 320.205 469.033 320.06 469.503C319.91 469.986 319.693 470.29 319.293 470.585C318.986 470.81 318.508 471.221 318.232 471.497C317.955 471.775 317.653 472.006 317.565 472.012C317.476 472.016 316.295 472.834 315.989 473.135C316.052 472.621 316.168 472.177 316.313 472.028C316.433 471.901 316.612 471.31 316.709 470.712C316.807 470.117 316.94 469.397 317.006 469.113C317.18 468.366 317.051 467.888 316.701 467.968C316.269 468.064 315.611 468.066 315.437 467.975C315.35 467.929 314.983 467.925 314.619 467.968L313.979 468.043C313.956 468.075 313.943 468.096 313.943 468.096C313.949 467.779 313.618 466.663 313.502 466.193C313.568 467.061 313.333 467.98 312.565 468.076C311.294 468.236 310.219 468.522 309.846 468.804C309.663 468.94 309.388 469.393 309.233 469.809C309.03 470.352 308.684 470.829 308.012 471.486C307.497 471.993 306.202 472.681 306.123 472.822C305.946 473.135 305.693 475.281 305.685 476.54C305.682 477.053 305.738 478.756 305.81 480.325C305.926 482.795 305.909 483.317 305.689 484.195C305.549 484.753 305.323 485.381 305.183 485.589C303.836 487.614 304.113 488.089 303.259 488.71C302.746 489.085 303.073 488.834 302.783 488.935C302.303 489.1 302.263 489.16 302.292 489.619C302.32 490.072 302.267 490.147 301.733 490.418C301.102 490.739 298.021 491.502 297.726 491.345C297.448 491.196 297.403 489.573 297.656 488.816C297.709 488.657 297.812 488.342 297.886 488.122C297.958 487.901 298.082 487.715 298.163 487.711C298.242 487.706 298.297 487.516 298.282 487.293C298.25 486.802 299.753 484.168 299.944 483.747C300.02 483.581 300.084 483.286 300.087 483.089C300.093 482.622 300.45 481.109 301.046 479.019C301.308 478.096 301.598 476.983 301.69 476.544C301.782 476.106 301.917 475.617 301.989 475.457C302.061 475.298 302.178 474.873 302.246 474.509C302.376 473.823 302.339 473.703 301.752 472.943C301.599 472.746 301.41 472.308 301.33 471.968C301.199 471.416 301.126 471.336 300.65 471.212C299.942 471.029 297.804 470.947 297.721 471.099C297.621 471.291 297.042 471.276 296.439 471.068C295.703 470.815 292.852 471.502 292.607 471.78C292.535 471.863 289.036 476.069 287.219 478.38C287.008 478.386 286.598 478.285 286.365 477.459C286.041 476.314 285.549 472.968 285.549 472.968C285.549 472.968 283.534 469.168 281.28 465.99C279.026 462.812 274.994 457.263 270.052 455.332C265.11 453.4 264.535 449.571 258.696 447.999C252.859 446.429 250.813 452.667 249.671 453.342C249.472 453.883 249.124 454.085 248.528 454.017C248.131 453.969 248.063 453.994 248.072 454.179C248.076 454.298 248.019 454.461 247.947 454.541C247.837 454.661 247.83 455.275 247.93 455.98C247.941 456.062 248.074 456.125 248.222 456.118C248.373 456.113 248.611 456.243 248.757 456.414C248.996 456.694 249.037 456.703 249.22 456.528C249.33 456.421 249.608 456.288 249.836 456.231C250.064 456.173 250.327 456.062 250.42 455.984C250.544 455.876 250.567 455.876 250.507 455.985C250.465 456.064 250.484 456.161 250.552 456.201C250.778 456.327 250.746 457.317 250.511 457.477C250.362 457.578 250.321 457.723 250.364 457.966C250.402 458.155 250.378 458.461 250.316 458.644C250.252 458.825 250.176 459.24 250.144 459.56C250.094 460.083 250.111 460.138 250.304 460.093C250.43 460.064 250.555 459.883 250.602 459.662C250.647 459.454 250.759 459.25 250.854 459.208C250.993 459.149 251.029 459.294 251.054 459.997C251.07 460.472 251.031 460.93 250.967 461.014C250.89 461.12 250.894 461.217 250.983 461.316C251.055 461.394 251.157 461.878 251.209 462.392C251.262 462.906 251.34 463.355 251.381 463.396C251.483 463.49 251.498 463.964 251.4 464.071C251.143 464.349 251.048 465.253 251.076 467.198C251.094 468.371 251.073 469.396 251.029 469.473C250.985 469.55 250.969 469.908 250.991 470.268C251.015 470.627 250.964 471.071 250.877 471.254C250.783 471.459 250.758 471.75 250.813 472.016C250.863 472.258 250.848 472.519 250.778 472.609C250.689 472.723 250.699 472.913 250.805 473.269C250.92 473.655 250.92 473.813 250.807 473.962C250.725 474.068 250.651 474.301 250.64 474.479C250.629 474.656 250.594 474.988 250.561 475.216C250.477 475.809 250.293 475.472 250.259 474.663C250.221 473.755 250.133 473.773 250.076 474.702C250.04 475.32 250.072 475.546 250.235 475.773C250.349 475.929 250.409 476.115 250.37 476.182C250.333 476.251 250.369 476.403 250.451 476.524C250.666 476.839 250.594 479.296 250.366 479.395C250.275 479.433 250.205 479.555 250.207 479.664C250.209 479.771 250.118 479.687 250.005 479.478C249.722 478.964 249.592 479.004 249.692 479.574C249.738 479.83 249.719 480.22 249.653 480.437C249.587 480.658 249.524 481.353 249.509 481.984C249.486 483.114 249.354 483.619 248.955 484.113C248.71 484.416 248.619 485.414 248.784 485.98C248.85 486.209 248.908 486.314 248.913 486.215C248.92 486.073 248.96 486.083 249.105 486.259C249.257 486.444 249.288 486.822 249.29 488.471C249.291 491.131 249.341 492.323 249.648 496.627C249.792 498.634 249.938 500.761 249.973 501.354C250.007 501.946 250.082 502.525 250.139 502.641C250.196 502.756 250.215 503.01 250.186 503.204C250.154 503.399 250.182 503.588 250.249 503.625C250.424 503.724 250.424 504.489 250.246 504.607C250.126 504.687 250.125 504.963 250.243 505.903C250.689 509.501 250.906 510.649 251.363 511.917C251.541 512.406 251.793 513.125 251.924 513.515C252.248 514.475 252.67 515.227 253.763 516.802C253.85 516.929 253.98 517.151 254.05 517.299C254.12 517.443 254.235 517.56 254.304 517.558C254.372 517.554 254.487 517.67 254.556 517.816C254.626 517.961 254.734 518.16 254.795 518.256C254.856 518.354 255.011 518.631 255.139 518.871C255.404 519.367 255.524 519.418 255.6 519.063C255.629 518.93 255.741 518.818 255.846 518.814C255.991 518.807 256.025 518.879 255.978 519.108C255.939 519.295 255.966 519.408 256.048 519.404C256.121 519.402 256.178 519.347 256.175 519.279C256.173 519.214 256.278 519.155 256.41 519.15C256.541 519.144 256.654 519.215 256.656 519.305C256.661 519.396 256.772 519.495 256.906 519.524C257.04 519.553 257.152 519.665 257.157 519.773C257.162 519.927 257.209 519.939 257.391 519.832C257.575 519.724 257.657 519.748 257.816 519.959C257.924 520.101 258.018 520.285 258.021 520.37C258.025 520.454 258.08 520.52 258.147 520.518C258.214 520.516 258.257 520.304 258.247 520.048C258.227 519.559 258.345 519.388 258.789 519.259C259.116 519.163 259.49 519.602 259.391 519.966C259.35 520.117 259.394 520.223 259.513 520.263C259.655 520.311 259.696 520.24 259.683 519.964C259.675 519.741 259.772 519.497 259.936 519.327C260.083 519.176 260.235 518.956 260.272 518.839C260.311 518.723 260.421 518.624 260.519 518.619C260.616 518.616 260.743 518.521 260.799 518.41C260.854 518.3 260.963 518.245 261.04 518.289C261.119 518.333 261.152 518.421 261.115 518.487C261.079 518.554 261.125 518.692 261.216 518.796C261.364 518.96 261.389 518.935 261.426 518.571C261.46 518.256 261.54 518.143 261.767 518.082C261.93 518.039 262.272 517.898 262.529 517.768C262.953 517.552 263.019 517.546 263.318 517.708C263.497 517.805 263.676 517.85 263.714 517.808C263.75 517.768 264.03 517.678 264.334 517.608C265.085 517.435 265.657 516.785 265.918 515.811C266.025 515.412 266.204 514.829 266.313 514.517C266.424 514.201 266.508 513.776 266.5 513.569C266.481 513.112 266.612 512.827 267.179 512.094C267.42 511.782 267.613 511.467 267.61 511.393C267.607 511.319 267.714 511.175 267.846 511.073C268.013 510.944 268.041 510.863 267.943 510.808C267.725 510.686 267.906 509.849 268.357 508.902C268.413 508.788 268.452 508.521 268.442 508.313C268.419 507.726 268.807 507.181 269.782 506.435C270.275 506.06 271.171 505.317 271.778 504.788C272.381 504.256 272.944 503.821 273.027 503.817C273.108 503.813 273.173 503.734 273.17 503.641C273.162 503.462 273.843 502.943 274.096 502.932C274.491 502.916 275.564 502.46 275.876 502.175C276.068 501.998 276.326 501.638 276.447 501.374C276.776 500.652 277.339 499.9 278.053 499.213C278.403 498.877 278.761 498.468 278.844 498.305C278.929 498.141 279.31 497.734 279.691 497.397C280.744 496.469 280.809 496.379 281.326 495.101C282.248 492.824 282.468 492.383 282.825 492.113C283.204 491.827 283.69 491.101 283.68 490.839C283.675 490.753 283.759 490.604 283.865 490.509C283.971 490.414 284.15 490.105 284.26 489.822C284.372 489.54 284.514 489.276 284.577 489.233C284.639 489.189 284.684 489.024 284.678 488.863C284.67 488.702 284.769 488.458 284.895 488.321C285.021 488.184 285.12 487.968 285.115 487.841C285.11 487.714 285.291 487.444 285.519 487.239C285.861 486.932 285.896 486.858 285.727 486.802C285.479 486.719 285.498 486.541 285.936 484.798C286.112 484.098 286.25 483.389 286.243 483.223C286.237 483.055 286.307 482.799 286.401 482.654C286.494 482.509 286.535 482.311 286.493 482.216C286.453 482.121 286.475 482.004 286.543 481.957C286.612 481.912 286.663 481.732 286.656 481.56C286.641 481.221 286.926 480.795 287.171 480.785C287.263 480.783 287.291 480.686 287.244 480.534C287.173 480.298 287.264 479.979 287.593 479.327C287.678 479.159 287.843 478.802 287.963 478.533C288.028 478.382 288.121 478.218 288.213 478.079C289.51 476.935 290.968 475.658 291.143 475.647C291.797 475.604 291.87 475.788 291.761 477.205C291.685 478.217 291.531 478.873 291.184 479.664C291.128 479.791 291.124 480.053 291.175 480.248C291.238 480.498 291.163 480.735 290.924 481.042C290.612 481.443 290.567 481.46 290.417 481.24C290.178 480.893 289.911 480.965 289.713 481.429C289.438 482.083 289.316 482.221 289.134 482.095C289.043 482.03 288.761 481.962 288.513 481.945C288.114 481.915 288.05 481.958 288.009 482.281C287.927 482.938 288.478 483.127 288.862 482.574C289.011 482.366 290.33 482.172 290.607 482.32C290.818 482.433 290.882 483.102 290.73 483.577C290.669 483.761 289.508 486.709 288.825 488.765C288.286 490.388 288.668 492.549 288.5 494.513C288.408 495.581 290.058 500.16 291.585 500.667C291.853 500.755 291.91 500.862 291.916 501.362C291.921 501.688 291.989 502.001 292.341 501.575C292.872 500.936 294.044 501.362 295.29 500.922C297.716 500.066 302.428 495.917 302.598 495.906C302.683 495.9 302.751 495.816 302.744 495.717C302.727 495.381 306.206 491.661 306.576 491.156C306.746 490.922 306.955 491.859 306.76 492.103C306.577 492.334 306.817 493.406 306.985 493.458C307.103 493.495 308.365 497.514 311.686 498.515L312.894 498.854L313.378 498.479C313.644 498.27 314.055 498.089 314.291 498.076C315.24 498.014 315.739 497.577 316.713 495.953C317.222 495.108 317.855 494.52 317.966 494.447C318.077 494.375 319.061 492.593 318.99 492.512C318.436 491.88 317.442 493.27 316.835 493.794C315.801 494.688 314.874 495.241 314.66 491.818C314.392 487.477 314.434 487.017 315.167 486.284C315.51 485.941 315.615 485.733 315.54 485.541C315.41 485.211 315.637 479.932 315.801 479.393C315.87 479.177 315.875 478.24 315.819 477.312C315.73 475.935 315.751 475.609 315.925 475.529C316.094 475.453 316.109 475.29 316 474.744C315.918 474.325 315.922 473.726 315.981 473.192C316.168 473.258 318.018 472.573 318.315 472.359C318.718 472.071 319.121 471.909 319.503 471.884C320.133 471.841 320.352 471.728 320.434 471.4C320.472 471.249 320.518 471.28 320.593 471.5C320.666 471.72 320.617 471.861 320.433 471.976C320.29 472.066 320.179 472.265 320.189 472.42C320.199 472.573 320.142 472.703 320.063 472.709C319.839 472.723 319.948 473.521 320.199 473.703C320.323 473.793 320.434 474.023 320.446 474.213C320.471 474.586 320.191 475.903 320 476.326C319.935 476.466 319.893 476.735 319.904 476.922C319.917 477.109 319.853 477.525 319.764 477.843C319.528 478.671 319.46 480.566 319.559 483.47C319.601 484.647 319.566 484.995 319.392 485.12C319.211 485.252 319.207 485.3 319.378 485.414C319.542 485.526 319.568 485.738 319.502 486.489C319.456 487.004 319.432 487.615 319.45 487.845C319.467 488.078 319.412 488.57 319.327 488.937C319.223 489.395 319.224 489.684 319.329 489.847C319.415 489.982 319.453 490.264 319.415 490.478C319.291 491.154 319.654 495.379 319.899 496.107C320.075 496.636 320.311 496.94 320.924 497.439C321.363 497.794 321.803 498.08 321.903 498.075C322.002 498.068 322.402 498.214 322.789 498.4C323.371 498.677 325.345 498.119 326.062 498.043C326.632 497.983 326.962 497.88 327.029 497.743C327.084 497.627 327.34 497.519 327.595 497.502C327.849 497.487 328.129 497.391 328.219 497.29C328.307 497.19 328.709 496.983 329.113 496.832L329.846 496.559L329.75 495.783C329.698 495.357 329.704 494.843 329.765 494.643C329.841 494.392 329.804 494.11 329.646 493.738C329.376 493.108 329.296 492.295 329.491 492.156C329.565 492.105 329.586 491.859 329.542 491.608C329.496 491.359 329.432 490.853 329.401 490.482C329.348 489.889 329.298 489.8 328.98 489.74C328.64 489.68 328.403 489.413 327.982 488.625C327.73 488.149 327.544 486.253 327.654 485.257C327.707 484.782 327.73 484.203 327.704 483.972C327.631 483.307 328.06 481.685 328.489 481.005C328.703 480.665 328.878 480.357 328.876 480.323C328.868 480.21 330.414 477.382 330.994 476.441C331.303 475.941 332.023 475.037 332.592 474.433C333.475 473.497 333.691 473.339 334.069 473.351L334.514 473.364L334.602 474.719C334.672 475.836 334.629 476.287 334.356 477.283C334.12 478.157 334.062 478.631 334.151 478.981C334.233 479.301 334.207 479.635 334.076 479.963C333.909 480.382 333.914 480.847 334.105 482.884C334.291 484.824 334.3 485.34 334.152 485.48C334.002 485.622 334.037 485.712 334.354 485.992C334.705 486.303 334.735 486.403 334.699 487.145C334.597 489.279 334.653 490.751 334.836 490.739C334.984 490.73 335.046 491.416 335.142 494.191C335.279 498.024 335.375 498.526 336.32 500.3C336.705 501.021 336.813 501.399 336.864 502.194C336.899 502.74 336.994 503.222 337.075 503.264C337.158 503.309 337.234 503.497 337.246 503.684C337.257 503.872 337.335 504.059 337.417 504.102C337.498 504.145 337.587 504.52 337.613 504.935C337.663 505.704 337.505 506.014 336.946 506.253C336.811 506.311 336.709 506.451 336.715 506.567C336.725 506.725 336.846 506.751 337.203 506.669C337.6 506.577 337.729 506.616 337.973 506.91C338.331 507.343 338.54 507.357 338.409 506.938C338.128 506.043 338.033 505.021 338.102 503.612C338.207 501.475 338.236 501.4 339.003 501.351C339.432 501.324 339.696 501.223 339.852 501.027C340.177 500.62 341.205 500.298 342.044 500.343C342.878 500.389 344.175 499.836 343.87 499.566C343.628 499.353 343.617 498.688 343.856 498.465C344.202 498.133 343.852 493.979 343.283 491.7ZM260.557 505.83C260.515 505.735 260.533 505.385 260.598 505.056C260.664 504.725 260.678 504.355 260.633 504.229C260.585 504.096 260.623 503.938 260.726 503.844C260.821 503.758 260.865 503.633 260.82 503.567C260.774 503.501 260.71 503.209 260.673 502.917C260.615 502.462 260.637 502.394 260.819 502.42C260.94 502.438 261.056 502.582 261.088 502.748C261.15 503.09 261.314 503.212 261.69 503.2C262.011 503.189 262.164 503.584 262.075 504.194C262.005 504.683 261.765 504.931 261.433 504.856C261.3 504.828 261.165 504.849 261.136 504.903C261.107 504.955 261.189 505.024 261.322 505.052C261.595 505.112 261.672 505.585 261.449 505.829C261.254 506.04 260.648 506.041 260.557 505.83ZM262.238 517.761C262.17 517.853 261.952 517.958 261.756 517.995C261.461 518.05 261.386 518.014 261.317 517.785C261.192 517.357 261.322 517.146 261.719 517.129C262.141 517.112 262.448 517.487 262.238 517.761ZM276.237 483.701C276.17 484.494 276.124 485.712 276.132 486.405C276.144 487.294 276.095 487.78 275.963 488.056C275.861 488.273 275.782 488.545 275.787 488.663C275.822 489.548 273.33 492.06 270.143 494.349C269.272 494.977 264.757 497.82 264.012 499.054C263.675 499.613 263.122 500.514 262.781 501.056C262.443 501.599 262.164 502.095 262.163 502.162C262.163 502.229 262.037 502.411 261.885 502.567C261.614 502.845 261.419 502.792 261.395 502.431C261.39 502.364 261.148 502.11 260.858 501.869C260.511 501.58 260.325 501.33 260.317 501.137C260.312 500.976 260.242 500.736 260.163 500.603C260.086 500.47 259.933 499.953 259.824 499.455C259.715 498.954 259.559 498.333 259.477 498.073C259.287 497.474 258.97 490.004 259.105 489.328C259.158 489.06 259.192 488.563 259.178 488.222C259.166 487.881 259.195 487.339 259.245 487.02C259.296 486.698 259.421 485.678 259.523 484.747C259.628 483.82 259.838 482.271 259.993 481.309C260.148 480.345 260.357 479.013 260.456 478.348C260.556 477.685 260.683 476.895 260.737 476.596C260.793 476.297 260.877 475.754 260.928 475.387C260.977 475.023 261.111 474.315 261.227 473.815C261.521 472.542 261.811 470.862 261.816 470.4C261.82 469.884 261.253 468.048 261.013 467.803C260.857 467.643 260.818 467.291 260.793 465.832C260.759 463.873 260.889 463.338 261.443 463.173C261.779 463.076 261.82 462.928 261.54 462.835C261.257 462.738 261.354 462.261 261.696 462.063C262.093 461.833 262.708 461.915 263.207 462.267C263.434 462.426 263.659 462.553 263.707 462.55C263.756 462.549 264.406 462.824 265.151 463.161C266.256 463.659 269.225 463.928 270.021 464.644C271.645 466.109 272.687 465.92 273.17 467.565C273.275 467.923 273.549 468.72 273.777 469.335C274.277 470.684 274.304 470.968 273.949 471.13L273.684 471.25L273.966 471.322C274.32 471.412 274.487 471.791 274.52 472.59C274.554 473.399 274.804 474.918 275.162 476.484C275.417 477.598 275.868 479.766 276.228 481.6C276.315 482.042 276.317 482.725 276.237 483.701Z" fill="#EE3123"/>
<path d="M332.204 481.027C332.042 481.038 331.953 481.109 332.009 481.183C332.062 481.259 332.199 481.316 332.311 481.308C332.424 481.301 332.512 481.229 332.507 481.151C332.502 481.074 332.366 481.016 332.204 481.027Z" fill="#EE3123"/>
<path d="M332.898 467.332C332.79 467.428 332.576 467.546 332.422 467.595C332.201 467.666 332.221 467.684 332.52 467.678C332.727 467.672 332.944 467.771 333.002 467.898C333.06 468.024 333.145 468.084 333.189 468.034C333.235 467.98 333.186 467.848 333.082 467.738C332.98 467.629 332.939 467.453 332.993 467.347C333.069 467.199 333.049 467.195 332.898 467.332Z" fill="#EE3123"/>
<path d="M302.087 486.476C302.094 486.589 302.157 486.679 302.226 486.673C302.384 486.663 302.514 486.285 302.395 486.179C302.263 486.062 302.072 486.246 302.087 486.476Z" fill="#EE3123"/>
<path d="M426.287 482.132C426.281 482.053 426.214 481.994 426.135 481.998C426.056 482.003 425.995 482.072 426 482.151C426.006 482.23 426.075 482.29 426.153 482.285C426.232 482.278 426.292 482.212 426.287 482.132Z" fill="#EE3123"/>
<path d="M426.677 483.038C426.579 482.824 426.331 482.9 426.344 483.14C426.35 483.213 426.449 483.266 426.562 483.26C426.689 483.252 426.734 483.164 426.677 483.038Z" fill="#EE3123"/>
<path d="M426.77 489.435C426.786 489.702 426.827 489.735 426.951 489.594C427.075 489.454 427.07 489.377 426.929 489.254C426.787 489.128 426.753 489.169 426.77 489.435Z" fill="#EE3123"/>
<path d="M354.711 508.032C354.738 507.892 354.722 507.668 354.678 507.534C354.634 507.398 354.614 507.513 354.631 507.788C354.649 508.061 354.685 508.171 354.711 508.032Z" fill="#EE3123"/>
<path d="M383.214 496.018C383.177 496.14 383.234 496.223 383.352 496.216C383.636 496.197 383.734 495.95 383.487 495.873C383.374 495.836 383.25 495.905 383.214 496.018Z" fill="#EE3123"/>
<path d="M371.705 471.455C371.685 471.532 371.825 471.737 372.016 471.909C372.257 472.126 372.377 472.162 372.402 472.031C372.444 471.811 371.76 471.243 371.705 471.455Z" fill="#EE3123"/>
<path d="M426.743 492.045C426.776 491.945 426.764 491.784 426.719 491.688C426.674 491.593 426.647 491.675 426.659 491.873C426.673 492.068 426.709 492.146 426.743 492.045Z" fill="#EE3123"/>
<path d="M425.539 483.612C425.459 483.617 425.361 483.688 425.317 483.769C425.274 483.851 425.301 483.915 425.38 483.909C425.459 483.906 425.559 483.834 425.602 483.752C425.647 483.67 425.617 483.607 425.539 483.612Z" fill="#EE3123"/>
<path d="M426.663 494.415C426.678 494.75 426.718 495.02 426.747 495.019C426.867 495.011 426.879 494.328 426.761 494.077C426.67 493.887 426.642 493.986 426.663 494.415Z" fill="#EE3123"/>
<path d="M439.27 495.748C439.245 495.843 439.325 495.914 439.45 495.906C439.574 495.898 439.667 495.792 439.659 495.667C439.644 495.415 439.341 495.478 439.27 495.748Z" fill="#EE3123"/>
<path d="M317.194 469.393C317.164 469.395 317.142 469.492 317.15 469.61C317.158 469.726 317.226 469.819 317.302 469.813C317.378 469.808 317.398 469.711 317.345 469.596C317.292 469.482 317.224 469.389 317.194 469.393Z" fill="#EE3123"/>
<path d="M289.664 470.913C289.826 470.902 289.957 470.209 289.834 470.034C289.667 469.8 289.483 470.068 289.511 470.502C289.525 470.731 289.595 470.918 289.664 470.913Z" fill="#EE3123"/>
<path d="M450.159 494.389C450.158 494.372 450.156 494.365 450.155 494.352C450.144 494.432 450.137 494.509 450.133 494.582C450.153 494.523 450.164 494.454 450.159 494.389Z" fill="#EE3123"/>
<path d="M477.212 480.586C477.033 480.367 476.847 480.145 476.659 479.929C476.487 479.734 476.103 479.755 475.936 479.576C475.557 479.164 475.206 478.81 474.971 478.598C474.584 478.251 472.196 478.027 471.751 477.696C469.698 476.174 463.063 476.526 462.378 474.196C463.904 471.291 469.29 469.633 472.646 471.662C471.632 471.804 470.445 471.774 469.979 472.462C471.828 472.285 474.383 472.36 475.713 473.129C476.213 473.186 476.184 472.712 476.512 472.596C476.416 468.959 474.315 467.325 472.779 465.128C472.447 464.873 471.196 464.322 471.979 463.529C471.601 463.39 471.719 463.491 471.579 462.995C471.196 462.628 470.662 462.834 470.645 462.595C469.982 462.51 469.82 462.704 469.845 462.328C467.266 462.394 464.84 462.541 462.778 463.662C462.558 463.66 462.703 463.292 462.512 463.262C461.643 463.917 460.406 464.722 459.178 464.595C458.725 465.342 457.625 465.443 456.644 465.662C455.506 467.434 454.626 469.616 454.626 472.786C454.626 480.195 465.298 481.338 468.847 481.157C470.21 481.088 471.451 480.794 472.181 481.824V483.691C471.915 484.046 471.457 484.213 471.648 485.024C470.802 485.689 469.628 485.311 468.353 485.547C466.997 484.188 462.846 485.174 460.95 485.387C458.005 485.714 454.248 486.22 452.881 488.352C452.414 488.464 449.632 492.566 449.384 488.676C449.328 487.783 449.178 487.372 449.293 486.328C449.369 485.626 449.521 484.94 449.63 484.802C449.738 484.666 449.815 484.334 449.801 484.065C449.789 483.798 449.859 483.314 449.96 482.993C450.06 482.672 450.175 482.181 450.216 481.903C450.299 481.354 450.833 479.379 451.122 478.552C451.223 478.271 451.373 477.842 451.46 477.601C451.642 477.08 452.323 474.468 452.6 473.232C452.707 472.754 452.847 472.245 452.907 472.104C452.97 471.964 453.013 471.729 453.002 471.584C452.993 471.437 453.081 471.096 453.196 470.821C453.313 470.542 453.395 469.912 453.381 469.391C453.351 468.305 453.146 468.028 452.043 467.592C451.672 467.446 451.252 467.236 451.106 467.128C450.96 467.018 450.846 466.983 450.85 467.051C450.855 467.116 450.771 467.065 450.664 466.936C450.252 466.443 446.937 466.233 446.473 466.67C446.356 466.782 446.269 467.033 446.28 467.225C446.293 467.42 446.187 467.75 446.043 467.958C445.897 468.166 445.79 468.513 445.803 468.723C445.822 468.998 445.63 469.329 445.126 469.888C444.132 470.997 442.741 472.432 441.334 473.803C440.667 474.454 439.946 475.166 439.735 475.388C439.404 475.731 438.77 476.195 438.618 476.206C438.529 476.211 438.544 473.825 438.638 472.839C438.727 471.919 438.704 471.262 438.489 468.483C438.448 467.973 438.499 467.121 438.6 466.585C438.748 465.804 438.748 465.542 438.593 465.255C438.489 465.057 438.394 464.792 438.385 464.666C438.377 464.54 438.209 464.249 438.012 464.017C437.814 463.785 437.601 463.485 437.542 463.351C437.485 463.215 437.2 462.985 436.915 462.841C436.626 462.695 436.387 462.519 436.383 462.45C436.378 462.379 436.096 462.171 435.756 461.985C435.228 461.696 435.035 461.668 434.432 461.779C433.771 461.901 433.357 461.828 432.449 461.434C432.119 461.289 431.266 461.499 431.077 461.77C430.989 461.902 430.926 462.181 430.939 462.39C430.953 462.602 430.867 462.867 430.747 462.979C430.575 463.142 430.56 463.345 430.671 463.976C430.793 464.658 430.775 464.811 430.549 465.044C430.403 465.193 430.254 465.52 430.218 465.771C430.182 466.022 430.048 466.427 429.924 466.671C429.798 466.915 429.631 467.392 429.554 467.733C429.477 468.074 429.332 468.429 429.233 468.523C429.134 468.617 429.062 468.837 429.074 469.011C429.084 469.184 428.972 469.453 428.824 469.604C428.678 469.755 428.561 469.958 428.566 470.054C428.573 470.15 428.488 470.315 428.376 470.419C428.265 470.524 428.18 470.705 428.187 470.821C428.21 471.164 427.685 471.896 427.403 471.914C427.261 471.923 427.111 472.034 427.073 472.157C427.034 472.281 426.793 472.484 426.54 472.61C426.284 472.738 425.998 472.946 425.905 473.075C425.81 473.204 425.647 473.315 425.538 473.321C425.43 473.329 425.216 473.478 425.062 473.655C424.831 473.918 424.674 473.965 424.197 473.919C423.429 473.846 423.368 473.804 423.336 473.315C423.321 473.086 423.19 472.646 423.043 472.339C422.837 471.906 422.702 471.786 422.437 471.803C422.25 471.815 422.092 471.761 422.087 471.683C422.075 471.487 420.295 469.936 420.099 469.949C420.013 469.954 419.808 469.809 419.645 469.628C419.445 469.406 419.175 469.294 418.815 469.288C418.411 469.281 418.266 469.209 418.219 468.995C418.165 468.749 417.289 468.268 416.935 468.291C416.871 468.293 416.741 468.206 416.647 468.091C416.55 467.977 416.27 467.883 416.021 467.881C415.771 467.878 415.591 467.849 415.623 467.814C415.653 467.779 415.535 467.666 415.365 467.561C415.154 467.433 414.406 467.371 413.096 467.369C412.022 467.367 411.037 467.315 410.904 467.253C410.754 467.181 410.611 467.2 410.516 467.306C410.435 467.398 409.732 467.533 408.935 467.61C407.547 467.742 405.934 468.158 405.604 468.469C405.303 468.752 404.785 468.598 404.713 468.206C404.643 467.828 404.034 467.543 403.386 467.584C403.18 467.597 403.099 467.537 403.143 467.399C403.224 467.146 402.634 466.969 402.441 467.188C402.353 467.293 402.163 467.302 401.866 467.219C401.611 467.147 400.938 467.166 400.243 467.258C399.438 467.366 399.022 467.369 398.95 467.265C398.88 467.169 398.805 467.23 398.744 467.429C398.682 467.64 398.529 467.755 398.291 467.769C398.09 467.784 397.935 467.859 397.939 467.941C397.945 468.026 398.009 468.051 398.085 467.995C398.409 467.766 398.491 468.087 398.27 468.711C397.953 469.601 397.403 470.402 397.095 470.422C396.955 470.431 396.665 470.547 396.448 470.679C396.231 470.81 396.134 470.912 396.231 470.907C396.527 470.89 396.476 471.585 396.155 471.949C395.99 472.138 395.855 472.356 395.856 472.435C395.856 472.733 395.677 473.233 395.565 473.241C395.418 473.25 395.245 472.744 395.208 472.201C395.191 471.973 395.074 471.684 394.945 471.557C394.779 471.398 394.642 470.824 394.48 469.623L394.251 467.914L393.452 466.77C392.742 465.748 391.318 464.351 391.01 464.37C390.946 464.375 390.636 464.169 390.316 463.913C390 463.658 389.705 463.451 389.661 463.454C389.531 463.463 386.93 462.327 386.701 462.164C386.507 462.023 385.491 462.076 382.767 462.365C382.109 462.434 382.041 462.409 381.827 462.026C381.697 461.799 381.571 461.695 381.545 461.793C381.489 462 380.87 462.08 380.739 461.895C380.59 461.688 379.646 461.704 379.49 461.915C379.313 462.158 378.645 462.214 378.408 462.006C378.275 461.888 378.167 461.939 377.966 462.214C377.823 462.414 377.704 462.623 377.705 462.681C377.706 462.742 377.459 463.187 377.157 463.674C376.853 464.16 376.46 464.84 376.287 465.183C376.112 465.527 375.849 465.943 375.701 466.108C375.341 466.511 372.431 469.034 372.099 469.232C371.951 469.321 371.835 469.439 371.84 469.499C371.853 469.724 370.879 470.816 370.65 470.83C370.372 470.848 370.122 471.171 369.779 471.954C369.643 472.267 369.419 472.56 369.284 472.605C369.148 472.647 369.045 472.807 369.055 472.957C369.066 473.12 368.925 473.297 368.705 473.399C368.504 473.488 368.327 473.547 368.314 473.527C368.3 473.503 368.1 473.237 367.867 472.933C367.635 472.63 367.438 472.281 367.429 472.158C367.422 472.037 367.269 471.77 367.089 471.574C366.91 471.373 366.788 471.093 366.815 470.949C366.847 470.795 366.753 470.628 366.59 470.539C366.381 470.426 366.302 470.22 366.268 469.686C366.242 469.301 366.164 468.953 366.092 468.914C366.019 468.876 365.896 468.546 365.817 468.181C365.714 467.707 365.504 467.344 365.075 466.896C364.744 466.551 364.47 466.202 364.465 466.117C364.447 465.843 362.62 465.401 362.493 465.64C362.453 465.714 362.523 465.769 362.649 465.761C362.925 465.743 363.606 466.112 363.617 466.287C363.628 466.46 363.095 466.482 362.974 466.312C362.919 466.237 362.812 466.179 362.734 466.184C362.654 466.191 362.644 466.267 362.709 466.36C362.773 466.45 362.577 466.399 362.273 466.245C361.688 465.949 361.3 465.899 361.315 466.122C361.32 466.195 361.453 466.288 361.614 466.328C361.933 466.407 362.029 466.661 361.744 466.674C361.426 466.689 360.404 466.245 359.905 465.876C359.521 465.592 359.329 465.541 359.009 465.633C358.771 465.7 358.554 465.689 358.495 465.606C358.439 465.526 358.211 465.472 357.99 465.486C357.768 465.501 357.366 465.438 357.096 465.347C356.318 465.088 355.289 465.049 354.929 465.265C354.757 465.372 354.331 465.709 353.982 466.015C353.634 466.321 353.04 466.817 352.664 467.118C352.288 467.415 351.979 467.71 351.979 467.769C351.979 467.828 351.89 467.883 351.783 467.89C351.675 467.897 351.336 468.271 351.032 468.724C350.726 469.176 350.424 469.551 350.361 469.555C350.115 469.57 349.392 470.402 348.94 471.184C348.68 471.638 348.353 472.047 348.214 472.093C348.074 472.137 347.965 472.281 347.974 472.409C347.99 472.643 346.746 474.226 346.538 474.238C346.477 474.243 346.335 474.478 346.22 474.764C346.106 475.047 345.858 475.363 345.667 475.464C345.469 475.571 345.327 475.771 345.337 475.927C345.346 476.078 345.236 476.241 345.092 476.288C344.945 476.338 344.684 476.738 344.498 477.208C344.316 477.666 344.014 478.372 343.829 478.779C343.535 479.422 343.501 479.684 343.569 480.842C343.619 481.703 343.708 482.212 343.825 482.296C344.087 482.488 344.338 483.941 344.152 484.196C344.039 484.353 344.046 484.479 344.186 484.703C344.475 485.166 345.057 486.933 344.974 487.089C344.932 487.167 344.775 487.235 344.623 487.245C344.471 487.255 344.351 487.325 344.355 487.398C344.371 487.635 344.648 487.692 344.932 487.515C345.17 487.367 345.312 487.429 345.93 487.948C347.066 488.906 347.702 489.105 349.008 488.913C350.809 488.649 351.298 488.52 351.287 488.316C351.271 488.092 351.498 488.002 352.543 487.821C353.212 487.706 353.798 487.782 353.683 487.97C353.664 488.001 353.769 488.187 353.915 488.383C354.149 488.696 354.308 488.742 355.195 488.76C355.752 488.77 356.307 488.851 356.428 488.937C356.548 489.026 356.927 489.069 357.271 489.034C357.613 488.998 357.937 489.028 357.988 489.098C358.038 489.169 357.714 489.651 357.268 490.163C356.617 490.912 356.386 491.089 356.105 491.054C355.842 491.021 355.758 491.071 355.769 491.257C355.786 491.509 355.004 492.318 353.565 493.535C352.251 494.646 351.671 495.44 351.191 496.789L350.754 498.02L351.087 499.305C351.289 500.087 351.848 502.508 352.193 503.105C352.724 504.024 352.804 504.097 353.416 504.231C353.969 504.351 354.124 504.336 354.417 504.138C354.611 504.01 355.225 504.333 355.95 504.04C356.676 503.748 357.64 503.288 358.097 503.02C358.551 502.753 359.017 502.482 359.131 502.415C359.591 502.15 362.448 501.383 363.774 501.169C364.281 501.087 365.203 500.903 365.825 500.76C367.599 500.352 371.061 500.362 373.2 500.784C374.117 500.963 375.192 501.159 375.589 501.218C376.41 501.34 377.623 501.609 378.057 501.768C378.22 501.826 377.957 502.752 377.634 502.936C376.36 503.674 374.879 503.823 374.233 503.707C374.032 503.668 373.654 503.721 373.398 503.825C373.142 503.929 372.065 505.509 371.126 505.725C370.187 505.94 369.244 506.197 369.029 506.294C368.816 506.391 368.163 506.627 367.579 506.819C366.996 507.01 365.717 507.486 364.739 507.876C363.008 508.564 362.95 508.578 362.655 508.345C362.396 508.138 362.277 508.132 361.83 508.298C361.089 508.572 359.294 508.818 359.184 508.663C359.132 508.593 358.753 508.384 358.343 508.202C357.539 507.846 357.211 507.884 356.732 508.39C356.58 508.551 356.296 508.731 356.102 508.791C355.906 508.851 355.646 508.998 355.524 509.12C355.4 509.242 355.148 509.331 354.964 509.315C354.684 509.295 354.626 509.211 354.62 508.813L354.612 508.335L354.408 508.682C353.653 509.974 352.7 510.967 351.309 511.912C349.171 513.365 347.649 514.247 347.24 514.273C346.812 514.301 346.328 514.933 346.359 515.424C346.378 515.719 346.448 515.755 346.945 515.724C347.479 515.69 347.528 515.722 347.844 516.33C348.026 516.682 347.268 517.013 347.282 517.203C347.314 517.734 344.458 524.571 350.093 525.986C350.591 526.109 351.325 524.748 351.986 524.472C352.121 524.416 352.228 524.317 352.223 524.251C352.21 524.028 353.229 523.338 353.605 523.314C353.811 523.299 354.084 523.156 354.216 522.991C354.803 522.25 356.359 521.471 358.795 520.69C359.336 520.516 360.879 519.981 362.225 519.499C363.573 519.015 365.183 518.483 365.802 518.313C366.419 518.146 367.179 517.927 367.487 517.828C367.795 517.729 368.847 517.541 369.824 517.41C372.771 517.013 375.463 516.476 377.315 515.914C378.28 515.62 379.196 515.373 379.353 515.363C379.832 515.334 380.801 514.787 380.855 514.517C380.891 514.326 381.051 514.251 381.488 514.224C381.81 514.203 382.076 514.235 382.08 514.296C382.084 514.354 382.313 514.457 382.593 514.526C383.275 514.693 383.66 514.399 383.618 513.743C383.6 513.456 383.691 513.169 383.856 512.998C384.004 512.846 384.118 512.638 384.111 512.534C384.106 512.429 384.244 512.236 384.422 512.105C384.597 511.971 384.805 511.587 384.884 511.247C384.962 510.91 385.127 510.464 385.254 510.26C385.613 509.671 385.654 509.282 385.405 508.862C385.276 508.649 385.111 508.191 385.035 507.841C384.802 506.792 386.5 503.241 385.735 501.821C385.436 501.262 385.186 500.741 385.182 500.66C385.177 500.584 384.795 500.151 384.333 499.703L383.291 497.354L379.039 497.704C377.299 497.796 376.586 497.764 374.936 497.52C373.837 497.355 372.89 497.152 372.828 497.065C372.76 496.97 372.056 496.927 370.969 496.956C369.69 496.991 369.122 496.946 368.855 496.797C368.366 496.52 368.233 496.544 367.889 496.975C367.61 497.325 367.461 497.361 364.546 497.76C361.324 498.199 359.232 498.938 359.339 498.737C359.375 498.671 359.754 498.353 360.183 498.031C360.611 497.71 361.008 497.36 361.065 497.255C361.119 497.151 361.291 497.056 361.445 497.047C361.599 497.036 361.718 496.939 361.71 496.829C361.703 496.719 361.991 496.43 362.348 496.188C363.557 495.372 366.574 493.551 367.552 493.05C369.619 491.989 370.018 491.75 370.767 491.122C371.19 490.767 371.897 490.061 372.336 489.556C373.132 488.64 373.614 488.249 373.988 488.226C374.095 488.218 374.189 488.279 374.195 488.358C374.2 488.441 374.316 488.542 374.452 488.583C374.589 488.626 375.184 489.086 375.772 489.604C377.039 490.719 378.143 491.38 379.606 491.901C380.547 492.236 380.836 492.272 382.029 492.202C382.773 492.158 383.795 492.014 384.299 491.88C385.827 491.477 386.054 491.476 386.139 491.881C386.179 492.076 386.459 492.474 386.76 492.768C387.061 493.061 387.248 493.178 387.175 493.03C387.101 492.88 386.989 492.454 386.925 492.084C386.79 491.295 386.96 490.972 387.533 490.936C387.749 490.921 388.471 490.714 389.133 490.475C389.797 490.236 390.469 490.031 390.623 490.022C390.78 490.012 390.904 489.945 390.899 489.871C390.894 489.798 391.298 489.499 391.796 489.205C392.332 488.89 393.084 488.251 393.635 487.644C394.146 487.081 394.621 486.615 394.687 486.611C394.752 486.607 394.833 486.473 394.862 486.314C394.961 485.806 395.917 485.569 395.948 486.044C395.955 486.154 396.062 486.237 396.186 486.227C396.355 486.217 396.377 486.137 396.284 485.899C396.048 485.313 396.085 485.02 396.4 484.955C396.779 484.875 398.851 486.632 398.878 487.056C398.889 487.237 398.992 487.336 399.155 487.325C399.299 487.316 399.558 487.445 399.734 487.612C400.205 488.061 400.838 488.507 400.991 488.497C401.064 488.492 401.196 488.645 401.283 488.835C401.387 489.065 401.554 489.178 401.766 489.166C401.943 489.157 402.259 489.264 402.466 489.405C402.671 489.546 402.914 489.658 403.006 489.654C403.098 489.649 403.503 489.784 403.904 489.956C404.307 490.127 404.793 490.258 404.985 490.245C405.176 490.233 405.374 490.259 405.424 490.304C405.518 490.387 406.632 490.449 407.254 490.406C410.607 490.178 412.109 490.027 412.167 489.916C412.209 489.841 412.445 489.766 412.696 489.751C413.091 489.727 413.39 489.593 414.634 488.887C414.766 488.812 414.97 488.746 415.091 488.737C415.209 488.731 415.302 488.664 415.297 488.591C415.293 488.517 415.43 488.404 415.603 488.336C415.775 488.27 416.127 488.017 416.387 487.776C416.645 487.533 416.97 487.328 417.11 487.319C417.247 487.312 417.359 487.244 417.354 487.171C417.35 487.097 417.471 486.989 417.625 486.928C417.778 486.869 417.896 486.7 417.887 486.554C417.877 486.39 418.184 486.036 418.687 485.632C419.134 485.272 419.499 484.903 419.493 484.813C419.486 484.724 419.781 484.281 420.144 483.832C420.512 483.384 420.8 482.88 420.79 482.716C420.779 482.548 420.95 482.217 421.172 481.977C421.393 481.735 421.57 481.455 421.562 481.353C421.543 481.057 421.851 481.115 421.953 481.426C422.015 481.607 422.166 481.698 422.387 481.685C422.842 481.655 422.802 481.452 422.255 481.025C421.679 480.574 421.634 480.094 422.142 479.81C422.352 479.694 422.62 479.373 422.736 479.095C423.054 478.338 424.287 476.98 424.679 476.955C424.892 476.942 425.045 476.815 425.113 476.591C425.172 476.402 425.425 476.096 425.675 475.912C425.926 475.728 426.314 475.434 426.539 475.261C426.799 475.06 427.073 474.965 427.291 475.003C427.494 475.038 427.722 474.971 427.852 474.838C427.974 474.714 428.264 474.579 428.497 474.539L428.923 474.466C428.923 474.466 427.524 480.397 427.434 481.094C427.342 481.79 427.183 482.416 427.081 482.48C426.962 482.557 426.883 483.042 426.863 483.809C426.832 484.941 426.809 485.023 426.48 485.122C426.266 485.189 426.118 485.347 426.104 485.529C426.071 485.934 426.514 486.062 426.762 485.716C426.936 485.473 426.947 485.48 426.889 485.814C426.855 486.013 427.464 489.896 427.586 490.995C427.693 491.959 427.369 494.415 427.546 496.214C427.82 498.97 428.607 501.159 428.751 501.696C428.988 502.582 429.258 502.963 430.779 503.596C432.301 504.231 435.216 504.231 435.216 504.231C435.216 504.231 435.469 503.978 435.469 503.596C435.469 503.217 435.343 501.442 434.483 498.338C434.404 498.053 434.211 497.67 434.16 496.865C434.075 495.565 434.332 494.839 434.986 494.517C435.524 494.254 436.021 493.7 436.206 493.152C436.419 492.531 436.156 492.052 435.475 491.818C434.642 491.529 434.537 491.166 434.806 489.459C434.931 488.652 434.878 491.576 434.919 491.255C434.958 490.934 435.043 490.574 435.111 490.456C435.227 490.245 435.411 489.017 435.519 487.752C435.547 487.416 435.653 487.063 435.756 486.969C435.857 486.87 435.932 486.651 435.92 486.482C435.909 486.31 436.041 485.951 436.214 485.682C436.387 485.416 436.592 485.004 436.67 484.771C436.75 484.538 436.936 484.3 437.081 484.244C437.226 484.188 437.336 484.019 437.327 483.871C437.275 483.061 440.383 478.238 440.983 478.2C441.169 478.188 441.252 478.085 441.238 477.876C441.219 477.576 441.157 476.707 441.444 476.689C441.518 476.684 441.672 476.58 441.79 476.458C443.222 474.96 443.358 474.947 442.951 476.337C442.826 476.761 442.719 477.656 442.708 478.326C442.701 478.995 442.602 479.968 442.491 480.486C442.26 481.567 442.14 485.172 442.315 485.822C442.446 486.312 442.27 486.657 441.877 486.683C441.547 486.704 441.396 486.979 441.61 487.165C441.73 487.271 441.853 487.233 442.051 487.027C442.441 486.627 442.613 486.837 443.268 488.498C443.875 490.037 444.07 491.55 443.73 492.066C443.623 492.227 443.549 492.515 443.561 492.707C443.588 493.137 443.243 493.453 442.682 493.505L442.255 493.546L442.59 493.748C442.773 493.861 442.932 494.057 442.939 494.188C442.948 494.321 443.104 494.671 443.284 494.973C443.528 495.373 443.693 496.025 443.908 497.431C444.173 499.149 444.231 499.346 444.487 499.378C444.643 499.398 444.844 499.503 444.934 499.61C445.132 499.848 447.234 499.387 447.296 499.149C447.32 499.054 447.394 499.007 447.459 499.042C447.648 499.142 448.443 498.758 448.397 498.586C448.373 498.501 448.526 498.383 448.737 498.326C449.168 498.209 450.246 497.118 450.114 496.934C450.068 496.867 450.083 496.276 450.15 495.619C450.171 495.408 450.108 495.078 450.143 494.581C450.12 494.646 450.089 494.699 450.051 494.728C449.878 494.85 449.866 494.662 450.028 494.37C450.126 494.193 450.15 494.19 450.165 494.351C450.277 493.451 450.732 492.075 452.358 489.998C452.345 490.23 452.35 490.473 452.377 490.73C452.599 492.807 453.723 495.873 455.045 496.864C455.474 496.672 456.163 496.737 456.777 496.73C458.421 493.301 466.709 492.85 470.581 492.092C470.788 491.617 470.128 492.011 470.181 491.691C470.363 491.252 470.861 491.127 471.114 490.758C471.109 490.318 470.889 490.094 470.981 489.557C472.539 488.859 477.465 487.099 477.741 485.393C477.874 484.567 477.952 483.364 478.05 482.553C478.087 482.257 477.82 481.336 477.212 480.586ZM349.715 486.632C349.454 486.648 349.222 486.41 349.353 486.263C349.399 486.209 349.552 486.267 349.693 486.393H349.695C349.931 486.6 349.932 486.618 349.715 486.632ZM361.549 483.238C361.479 483.466 361.326 483.598 361.117 483.612C360.897 483.629 360.853 483.668 360.98 483.739C361.254 483.889 360.668 484.842 360.248 484.93C359.967 484.991 359.933 484.952 359.999 484.659C360.073 484.331 360.069 484.328 359.883 484.62C359.779 484.785 359.676 485.046 359.655 485.203C359.608 485.579 358.341 486.079 357.347 486.113C356.939 486.128 356.526 486.211 356.429 486.3C356.182 486.521 353.537 486.816 352.828 486.7C352.51 486.649 352.041 486.526 351.788 486.423C351.533 486.327 351.228 486.249 351.111 486.257C350.995 486.265 350.856 486.176 350.803 486.061C350.752 485.947 350.538 485.863 350.333 485.877C350.127 485.89 349.763 485.78 349.525 485.633C348.967 485.285 348.892 484.578 349.338 483.892C349.509 483.63 349.683 483.276 349.723 483.105C349.762 482.932 350.114 482.072 350.502 481.192C351.007 480.049 351.422 479.355 351.956 478.759C352.917 477.685 354.636 476.682 356.101 476.338C356.682 476.201 357.28 475.974 357.428 475.832C357.69 475.582 358.907 475.162 359.472 475.126C359.636 475.114 359.813 475.248 359.903 475.443C359.985 475.625 360.117 475.809 360.19 475.849C360.336 475.926 360.777 476.872 360.952 477.476C361.011 477.676 361.269 478.074 361.526 478.356C361.931 478.804 361.996 478.978 362.021 479.672C362.047 480.442 361.775 482.507 361.549 483.238ZM373.381 470.388C373.32 470.883 373.102 471.315 373.08 470.981C373.074 470.882 373.006 470.846 372.932 470.899C372.709 471.055 372.795 471.409 373.029 471.302C373.306 471.174 373.304 471.364 373.014 472.181C372.879 472.557 372.781 473.013 372.792 473.192C372.822 473.638 372.502 474.527 372.274 474.63C372.084 474.716 371.855 477.927 372.023 478.163C372.069 478.227 372.063 478.631 372.01 479.058C371.957 479.489 371.942 480.224 371.977 480.694C372.012 481.166 372.013 481.864 371.977 482.247L371.914 482.944L371.517 482.67C371.048 482.347 370.342 482.354 370.104 482.681C370.012 482.81 369.617 483.082 369.23 483.289C368.062 483.91 367.206 484.026 367.783 483.482C368 483.277 368.124 482.589 368.072 481.876C368.05 481.602 368.103 481.115 368.187 480.794C368.293 480.389 368.289 479.976 368.176 479.436C368.013 478.664 368.084 477.185 368.306 476.674C368.369 476.532 368.397 476.075 368.369 475.655C368.329 475.04 368.398 474.758 368.726 474.187C368.95 473.798 369.339 473.363 369.594 473.221C369.847 473.078 370.052 472.859 370.043 472.733C370.025 472.449 370.762 471.652 371.281 471.391C371.52 471.272 371.654 471.091 371.643 470.909C371.632 470.747 371.704 470.59 371.799 470.56C371.896 470.528 372.194 470.407 372.462 470.294C373.481 469.859 373.446 469.855 373.381 470.388ZM378.858 477.426C379.173 476.455 380.501 473.696 381.102 472.762C381.92 471.492 384.559 468.534 385.126 468.253C385.398 468.119 385.82 467.994 386.062 467.98C386.306 467.964 386.625 467.876 386.771 467.785C387.013 467.636 387.041 467.672 387.072 468.161C387.09 468.458 387.02 468.889 386.917 469.122C386.815 469.354 386.737 469.635 386.744 469.745C386.761 469.999 386.121 471.125 385.956 471.136C385.887 471.14 385.836 471.218 385.841 471.309C385.869 471.738 382.597 475.647 382.185 475.675C382.064 475.682 381.914 475.854 381.85 476.057C381.787 476.259 381.657 476.456 381.56 476.49C381.106 476.658 380.854 476.82 379.806 477.616C379.466 477.874 379.122 478.185 379.037 478.309C378.758 478.715 378.635 478.11 378.858 477.426ZM395.258 474.371C395.11 474.911 394.993 475.429 394.994 475.521C394.996 475.615 394.934 475.877 394.855 476.105C394.776 476.331 394.72 476.818 394.731 477.186C394.752 477.895 394.576 478.586 394.215 479.196C393.955 479.637 392.906 479.766 392.94 481.037C392.961 481.846 392.892 482.101 392.424 483.002C391.685 484.414 391.274 485.009 391.029 485.023C390.913 485.032 390.83 485.172 390.841 485.339C390.869 485.773 389.377 487.334 388.225 488.079C387.272 488.693 387.021 488.777 386.802 488.469C386.738 488.379 386.619 488.385 386.447 488.492C386.306 488.58 385.943 488.655 385.645 488.66C385.343 488.663 384.679 488.674 384.169 488.685C382.31 488.723 380.582 488.748 379.887 488.561C378.388 488.16 377.881 487.945 377.683 486.965C377.549 486.315 377.562 486.283 378.125 485.691C378.442 485.358 378.984 484.786 379.545 484.439C380.765 483.68 381.757 483.111 382.462 482.764C382.748 482.622 382.978 482.451 382.972 482.378C382.963 482.24 384.183 482.161 384.328 482.291C384.423 482.373 386.015 481.93 386.438 481.706C386.589 481.624 387.081 481.492 387.531 481.415C388.448 481.252 389.225 480.794 390.115 479.889C390.448 479.552 390.862 479.228 391.036 479.17C391.208 479.11 391.344 478.97 391.337 478.859C391.33 478.745 391.495 478.54 391.702 478.4C391.91 478.263 392.457 477.583 392.921 476.888C393.384 476.194 393.994 475.438 394.277 475.209C394.714 474.857 394.787 474.713 394.761 474.263C394.741 473.886 394.81 473.685 394.996 473.568C395.49 473.262 395.528 473.382 395.258 474.371ZM406.69 468.233C406.959 468.032 407.145 468.021 407.046 468.208C407.002 468.29 406.857 468.362 406.728 468.37C406.52 468.381 406.512 468.363 406.69 468.233ZM413.301 478.624C412.791 479.636 411.323 481.326 409.916 482.518C408.044 484.104 407.353 484.543 406.853 484.467C406.52 484.415 406.458 484.444 406.535 484.613C406.608 484.769 406.501 484.857 406.127 484.954C405.849 485.023 405.589 485.141 405.549 485.213C405.51 485.286 405.363 485.353 405.219 485.362C405.075 485.371 404.925 485.477 404.889 485.6C404.839 485.76 404.594 485.832 403.954 485.873C403.138 485.925 403.055 485.899 402.576 485.439C402.084 484.967 401.862 484.423 401.803 483.532C401.779 483.196 401.731 483.148 401.496 483.239C401.278 483.324 401.214 483.282 401.198 483.046C401.186 482.839 401.257 482.754 401.431 482.771C401.594 482.788 401.672 482.71 401.655 482.548C401.563 481.732 401.519 481.582 401.396 481.671C401.322 481.724 401.254 481.703 401.25 481.626C401.245 481.546 401.306 481.436 401.388 481.378C401.467 481.323 401.508 481.107 401.478 480.9C401.418 480.489 401.606 479.804 401.817 479.653C401.888 479.601 401.905 479.422 401.85 479.256C401.775 479.031 401.798 478.981 401.944 479.059C402.093 479.139 402.11 479.086 402.012 478.825C401.879 478.468 401.868 478.366 401.919 477.914C402.007 477.119 402.227 476.437 402.473 476.197C402.621 476.052 402.737 475.807 402.727 475.654C402.718 475.49 402.839 475.33 403.024 475.261C403.197 475.198 403.428 475.019 403.537 474.866C403.653 474.703 403.95 474.56 404.26 474.52C404.551 474.481 404.814 474.376 404.842 474.282C404.888 474.136 405.521 473.963 406.711 473.772C406.88 473.744 407.063 473.672 407.118 473.61C407.173 473.546 407.326 473.487 407.457 473.479C407.589 473.472 407.804 473.33 407.937 473.162C408.082 472.979 408.357 472.85 408.634 472.832C408.885 472.816 409.427 472.716 409.838 472.609C410.446 472.454 410.65 472.456 410.932 472.615C411.124 472.722 411.285 472.902 411.291 473.012C411.299 473.123 411.425 473.242 411.572 473.28C411.924 473.367 412.816 474.46 412.84 474.831C412.851 474.988 412.924 475.156 413.003 475.195C413.681 475.556 413.853 477.528 413.301 478.624ZM427.301 486.789C427.224 486.793 427.156 486.735 427.151 486.655C427.147 486.576 427.205 486.51 427.285 486.504C427.363 486.499 427.431 486.557 427.435 486.637C427.441 486.716 427.38 486.784 427.301 486.789ZM467.115 491.558C467.36 491.164 468.084 491.205 468.181 491.691C467.798 491.377 467.473 491.776 467.115 491.558Z" fill="#EE3123"/>
<path d="M476.312 464.003V461.395H475.477V461.043H477.534V461.395H476.674V464.003H476.312ZM478.068 461.043H478.749L479.545 463.479L480.356 461.043H480.995V464.003H480.618V461.347L479.699 464.003H479.329L478.445 461.347V464.003H478.068V461.043Z" fill="#EE3123"/>
</svg>
