<svg width="381" height="122" viewBox="0 0 381 122" fill="none" xmlns="http://www.w3.org/2000/svg">
<g clip-path="url(#clip0_40007630_62328)">
<path d="M216.713 74.9391C216.599 75.0533 216.447 75.1295 216.256 75.1295H199.158C198.968 75.1295 198.892 75.2057 198.892 75.3961V83.469C198.892 83.6594 198.968 83.7356 199.158 83.7356H210.354C210.544 83.7356 210.659 83.8117 210.811 83.926C210.925 84.0402 211.001 84.1925 211.001 84.3829V89.4476C211.001 89.638 210.925 89.7522 210.811 89.9045C210.697 90.0188 210.544 90.0949 210.354 90.0949H199.158C198.968 90.0949 198.892 90.1711 198.892 90.3615V98.8153C198.892 99.0057 198.968 99.0818 199.158 99.0818H216.256C216.447 99.0818 216.561 99.158 216.713 99.2722C216.828 99.3865 216.904 99.5388 216.904 99.7292V104.794C216.904 104.984 216.828 105.098 216.713 105.251C216.599 105.365 216.447 105.441 216.256 105.441H192.152C191.961 105.441 191.847 105.365 191.695 105.251C191.581 105.137 191.504 104.984 191.504 104.794V69.5317C191.504 69.3413 191.581 69.2271 191.695 69.0748C191.809 68.9225 191.961 68.8844 192.152 68.8844H216.256C216.447 68.8844 216.561 68.9605 216.713 69.0748C216.828 69.189 216.904 69.3413 216.904 69.5317V74.5964C216.904 74.7868 216.828 74.901 216.713 75.0533V74.9391ZM232.212 105.06C232.098 104.946 232.022 104.794 232.022 104.603V91.4277C232.022 91.2754 232.022 91.1993 231.983 91.1231L221.245 69.5317C221.169 69.3794 221.131 69.3033 221.131 69.2271C221.131 68.9605 221.321 68.8082 221.702 68.8082H228.29C228.632 68.8082 228.899 68.9605 229.013 69.2652L235.525 83.1263C235.639 83.3167 235.715 83.3167 235.83 83.1263L242.341 69.2652C242.494 68.9605 242.722 68.8082 243.065 68.8082H249.729C249.957 68.8082 250.148 68.8844 250.224 68.9986C250.3 69.1129 250.3 69.3033 250.224 69.5317L239.371 91.1231C239.371 91.1993 239.333 91.3135 239.333 91.4277V104.603C239.333 104.794 239.257 104.908 239.142 105.06C239.028 105.175 238.876 105.251 238.686 105.251H232.631C232.44 105.251 232.326 105.175 232.174 105.06H232.212ZM280.117 74.9391C280.002 75.0533 279.85 75.1295 279.66 75.1295H262.562C262.371 75.1295 262.295 75.2057 262.295 75.3961V83.469C262.295 83.6594 262.371 83.7356 262.562 83.7356H273.757C273.948 83.7356 274.062 83.8117 274.214 83.926C274.328 84.0402 274.405 84.1925 274.405 84.3829V89.4476C274.405 89.638 274.328 89.7522 274.214 89.9045C274.1 90.0188 273.948 90.0949 273.757 90.0949H262.562C262.371 90.0949 262.295 90.1711 262.295 90.3615V98.8153C262.295 99.0057 262.371 99.0818 262.562 99.0818H279.66C279.85 99.0818 279.964 99.158 280.117 99.2722C280.231 99.3865 280.307 99.5388 280.307 99.7292V104.794C280.307 104.984 280.231 105.098 280.117 105.251C280.002 105.365 279.85 105.441 279.66 105.441H255.555C255.365 105.441 255.25 105.365 255.098 105.251C254.984 105.137 254.908 104.984 254.908 104.794V69.5317C254.908 69.3413 254.984 69.2271 255.098 69.0748C255.212 68.9225 255.365 68.8844 255.555 68.8844H279.66C279.85 68.8844 279.964 68.9605 280.117 69.0748C280.231 69.189 280.307 69.3413 280.307 69.5317V74.5964C280.307 74.7868 280.231 74.901 280.117 75.0533V74.9391ZM191.733 52.9669C191.619 52.8527 191.542 52.7004 191.542 52.51V17.286C191.542 17.0956 191.619 16.9813 191.733 16.829C191.847 16.7148 191.999 16.6386 192.19 16.6386H198.283C198.473 16.6386 198.587 16.7148 198.74 16.829C198.854 16.9433 198.93 17.0956 198.93 17.286V46.5695C198.93 46.7599 199.006 46.8361 199.197 46.8361H216.256C216.447 46.8361 216.561 46.9122 216.713 47.0265C216.828 47.1407 216.904 47.293 216.904 47.4834V52.5481C216.904 52.7385 216.828 52.8527 216.713 53.005C216.599 53.1193 216.447 53.1954 216.256 53.1954H192.228C192.038 53.1954 191.923 53.1193 191.771 53.005L191.733 52.9669ZM226.652 52.053C224.596 50.9487 222.958 49.3874 221.816 47.3692C220.674 45.389 220.102 43.0661 220.102 40.4767V29.3193C220.102 26.7298 220.674 24.4831 221.816 22.5029C222.958 20.5228 224.558 18.9996 226.652 17.8953C228.709 16.7909 231.108 16.2578 233.811 16.2578C236.515 16.2578 238.952 16.7909 241.046 17.8953C243.103 18.9996 244.74 20.5228 245.883 22.5029C247.025 24.4831 247.596 26.7679 247.596 29.3193V40.4767C247.596 43.0661 247.025 45.389 245.883 47.4073C244.74 49.4255 243.141 50.9868 241.046 52.0911C238.99 53.1954 236.553 53.7285 233.811 53.7285C231.07 53.7285 228.709 53.1573 226.652 52.053ZM238.457 45.6175C239.638 44.3989 240.247 42.7996 240.247 40.7813V29.3193C240.247 27.301 239.676 25.6636 238.495 24.445C237.315 23.2265 235.791 22.5791 233.811 22.5791C231.831 22.5791 230.346 23.1884 229.204 24.445C228.023 25.6636 227.452 27.301 227.452 29.3193V40.7813C227.452 42.7996 228.023 44.3989 229.204 45.6175C230.384 46.8361 231.907 47.4453 233.811 47.4453C235.715 47.4453 237.277 46.8361 238.457 45.6175ZM274.366 16.829C274.481 16.7148 274.633 16.6386 274.823 16.6386H280.916C281.107 16.6386 281.221 16.7148 281.373 16.829C281.487 16.9433 281.564 17.0956 281.564 17.286V52.5481C281.564 52.7385 281.487 52.8527 281.373 53.005C281.259 53.1193 281.107 53.1954 280.916 53.1954H275.014C274.671 53.1954 274.405 53.0431 274.29 52.7765L260.772 30.4617C260.696 30.3474 260.62 30.3093 260.582 30.3474C260.505 30.3474 260.467 30.4617 260.467 30.5759L260.582 52.5861C260.582 52.7765 260.505 52.8908 260.391 53.0431C260.277 53.1573 260.125 53.2335 259.934 53.2335H253.841C253.651 53.2335 253.537 53.1573 253.384 53.0431C253.27 52.9289 253.194 52.7765 253.194 52.5861V17.286C253.194 17.0956 253.27 16.9813 253.384 16.829C253.499 16.6767 253.651 16.6386 253.841 16.6386H259.744C260.086 16.6386 260.353 16.7909 260.467 17.0575L273.91 39.2581C273.986 39.3724 274.062 39.4105 274.1 39.3724C274.176 39.3724 274.214 39.2581 274.214 39.1439V17.2479C274.176 17.0575 274.214 16.9433 274.328 16.7909L274.366 16.829ZM288.075 52.9669C287.961 52.8527 287.885 52.7004 287.885 52.51V17.286C287.885 17.0956 287.961 16.9813 288.075 16.829C288.19 16.7148 288.342 16.6386 288.532 16.6386H301.556C304.145 16.6386 306.43 17.0956 308.41 18.0095C310.39 18.9234 311.875 20.2181 312.98 21.8937C314.046 23.5692 314.579 25.4732 314.579 27.6818V42.0761C314.579 44.2847 314.046 46.1887 312.98 47.8642C311.913 49.5397 310.39 50.8345 308.41 51.7484C306.43 52.6623 304.145 53.1193 301.556 53.1193H288.532C288.342 53.1193 288.228 53.0431 288.075 52.9289V52.9669ZM295.501 46.8361H301.822C303.422 46.8361 304.716 46.3029 305.706 45.2367C306.696 44.1705 307.191 42.7234 307.23 40.8956V28.9004C307.23 27.1106 306.734 25.6636 305.744 24.5593C304.754 23.493 303.422 22.9599 301.746 22.9599H295.501C295.31 22.9599 295.234 23.0361 295.234 23.2265V46.5695C295.234 46.7599 295.31 46.8361 295.501 46.8361ZM325.927 52.053C323.87 50.9487 322.233 49.3874 321.091 47.3692C319.948 45.389 319.377 43.0661 319.377 40.4767V29.3193C319.377 26.7298 319.948 24.4831 321.091 22.5029C322.233 20.5228 323.832 18.9996 325.927 17.8953C327.983 16.7909 330.382 16.2578 333.086 16.2578C335.79 16.2578 338.227 16.7909 340.321 17.8953C342.377 18.9996 344.015 20.5228 345.157 22.5029C346.3 24.4831 346.871 26.7679 346.871 29.3193V40.4767C346.871 43.0661 346.3 45.389 345.157 47.4073C344.015 49.4255 342.415 50.9868 340.321 52.0911C338.265 53.1954 335.828 53.7285 333.086 53.7285C330.344 53.7285 327.983 53.1573 325.927 52.053ZM337.732 45.6175C338.912 44.3989 339.521 42.7996 339.521 40.7813V29.3193C339.521 27.301 338.95 25.6636 337.77 24.445C336.589 23.2265 335.066 22.5791 333.086 22.5791C331.106 22.5791 329.621 23.1884 328.478 24.445C327.298 25.6636 326.726 27.301 326.726 29.3193V40.7813C326.726 42.7996 327.298 44.3989 328.478 45.6175C329.659 46.8361 331.182 47.4453 333.086 47.4453C334.99 47.4453 336.551 46.8361 337.732 45.6175ZM373.641 16.829C373.755 16.7148 373.908 16.6386 374.098 16.6386H380.191C380.381 16.6386 380.495 16.7148 380.648 16.829C380.762 16.9433 380.838 17.0956 380.838 17.286V52.5481C380.838 52.7385 380.762 52.8527 380.648 53.005C380.534 53.1193 380.381 53.1954 380.191 53.1954H374.288C373.946 53.1954 373.679 53.0431 373.565 52.7765L360.046 30.4617C359.97 30.3474 359.894 30.3093 359.856 30.3474C359.78 30.3474 359.742 30.4617 359.742 30.5759L359.856 52.5861C359.856 52.7765 359.78 52.8908 359.666 53.0431C359.551 53.1573 359.399 53.2335 359.209 53.2335H353.116C352.926 53.2335 352.811 53.1573 352.659 53.0431C352.545 52.9289 352.469 52.7765 352.469 52.5861V17.286C352.469 17.0956 352.545 16.9813 352.659 16.829C352.773 16.7148 352.926 16.6386 353.116 16.6386H359.018C359.361 16.6386 359.628 16.7909 359.742 17.0575L373.184 39.2581C373.26 39.3724 373.336 39.4105 373.374 39.3724C373.451 39.3724 373.489 39.2581 373.489 39.1439V17.2479C373.451 17.0575 373.489 16.9433 373.603 16.7909L373.641 16.829Z" fill="#F4F4F4"/>
<path d="M173.264 54.3782C169.532 47.4096 161.193 33.9674 147.332 22.1626C139.525 15.4986 130.995 10.2816 121.932 6.58784C111.156 2.24672 99.5411 0 87.4317 0C75.3222 0 63.7078 2.24672 52.9312 6.62592C43.9062 10.3197 35.3382 15.5366 27.5318 22.2006C13.7088 34.0054 5.3312 47.4477 1.59936 54.3782C-0.53312 58.3766 -0.53312 63.1366 1.59936 67.135C5.3312 74.1037 13.6707 87.5459 27.5318 99.3507C35.3382 106.015 43.8682 111.232 52.9312 114.925C63.7078 119.343 75.3222 121.551 87.4317 121.551C99.5411 121.551 111.156 119.305 121.932 114.925C130.957 111.232 139.525 106.015 147.332 99.3507C161.193 87.5459 169.532 74.1037 173.264 67.135C175.396 63.1366 175.396 58.3766 173.264 54.3782ZM165.115 62.7558C161.688 69.1533 154.034 81.4912 141.315 92.2678C127.263 104.225 111.194 110.851 93.3722 112.069L89.9069 74.0275C96.1901 72.847 100.95 67.3635 100.95 60.7376C100.95 54.1117 94.8954 47.2192 87.4317 47.2192C79.968 47.2192 73.9133 53.2739 73.9133 60.7376C73.9133 68.2013 78.6733 72.847 84.9565 74.0275L81.4912 112.069C63.7078 110.851 47.6 104.225 33.5485 92.2678C20.8298 81.4531 13.1757 69.1152 9.74848 62.7558C9.06304 61.4992 9.06304 60.0141 9.74848 58.7574C13.1757 52.36 20.8298 40.0221 33.5485 29.2454C49.1232 15.9936 67.2874 9.25344 87.4317 9.25344C107.576 9.25344 125.74 15.9936 141.315 29.2454C154.034 40.0602 161.688 52.3981 165.115 58.7574C165.8 60.0141 165.8 61.4992 165.115 62.7558ZM133.356 64.6218C133.356 67.0589 131.376 69.001 128.977 69.001C126.578 69.001 128.025 68.9248 127.606 68.7725C127.187 70.943 126.578 73.0374 125.816 75.0557C127.72 75.5126 129.167 77.2643 129.167 79.3206C129.167 81.377 127.187 83.6998 124.788 83.6998C122.389 83.6998 122.77 83.319 122.008 82.7098C120.828 84.5376 119.533 86.2893 118.086 87.9267C119.228 88.7264 119.99 90.0592 119.99 91.5443C119.99 93.9814 118.01 95.9235 115.611 95.9235C113.212 95.9235 112.526 95.0096 111.765 93.6768C110.013 94.9715 108.147 96.1139 106.205 97.104C106.7 97.7894 106.967 98.6653 106.967 99.5792C106.967 102.016 104.987 103.958 102.588 103.958C100.188 103.958 98.4749 102.245 98.2083 100.074L97.104 90.8589C109.899 86.7843 119.19 74.8272 119.19 60.6614C119.19 46.4957 105.025 28.9789 87.5078 28.9789C69.991 28.9789 55.8253 43.1446 55.8253 60.6614C55.8253 78.1782 65.1168 86.7843 77.9117 90.8589L76.8074 100.074C76.5408 102.245 74.713 103.958 72.4282 103.958C70.1434 103.958 68.049 101.978 68.049 99.5792C68.049 97.1802 68.3155 97.8275 68.8106 97.104C66.8685 96.1139 65.0026 94.9334 63.2509 93.6768C62.4893 95.0096 61.0803 95.9235 59.4048 95.9235C56.9677 95.9235 55.0256 93.9434 55.0256 91.5443C55.0256 89.1453 55.7872 88.7264 56.9296 87.9267C55.4826 86.2893 54.1498 84.5757 53.0074 82.7098C52.2458 83.319 51.2938 83.6998 50.2275 83.6998C47.7904 83.6998 45.8483 81.7197 45.8483 79.3206C45.8483 76.9216 47.2573 75.5126 49.1994 75.0557C48.4378 73.0374 47.8285 70.943 47.4096 68.7725C46.9907 68.9248 46.5338 69.001 46.0387 69.001C43.6016 69.001 41.6595 67.0208 41.6595 64.6218C41.6595 62.2227 43.6397 60.2426 46.0387 60.2426C48.4378 60.2426 46.4195 60.2426 46.6099 60.2806C46.6099 58.072 46.8384 55.9014 47.2192 53.769C44.8963 53.6547 43.0685 51.7126 43.0685 49.3898C43.0685 47.0669 45.0486 45.0106 47.4477 45.0106C49.8467 45.0106 48.9328 45.201 49.5421 45.5437C50.3418 43.5254 51.3318 41.5453 52.4362 39.7174C50.913 39.032 49.8467 37.5088 49.8467 35.719C49.8467 33.9293 51.8269 31.3398 54.2259 31.3398C56.625 31.3398 56.7773 31.9491 57.577 32.9011C59.0621 31.3018 60.6995 29.8166 62.4131 28.4838C61.6515 27.6842 61.1565 26.6179 61.1565 25.4374C61.1565 23.0003 63.1366 21.0582 65.5357 21.0582C67.9347 21.0582 69.0771 22.2768 69.6864 23.9904C71.6285 23.0384 73.6467 22.2768 75.7792 21.6294C75.5507 21.0963 75.4365 20.5251 75.4365 19.9158C75.4365 17.4787 77.4166 15.5366 79.8157 15.5366C82.2147 15.5366 84.1949 17.5168 84.1949 19.9158C84.1949 22.3149 84.1949 20.0301 84.1949 20.0682C85.2611 19.992 86.3654 19.9539 87.4698 19.9539C88.5741 19.9539 89.6403 19.992 90.7446 20.0682C90.7446 20.0301 90.7446 19.9539 90.7446 19.9158C90.7446 17.4787 92.7248 15.5366 95.1238 15.5366C97.5229 15.5366 99.503 17.5168 99.503 19.9158C99.503 22.3149 99.3888 21.0963 99.1603 21.6294C101.255 22.2387 103.311 23.0384 105.253 23.9904C105.862 22.2768 107.5 21.0582 109.404 21.0582C111.308 21.0582 113.783 23.0384 113.783 25.4374C113.783 27.8365 113.326 27.7222 112.526 28.4838C114.24 29.8166 115.877 31.3018 117.363 32.9011C118.162 31.9491 119.381 31.3398 120.714 31.3398C123.151 31.3398 125.093 33.32 125.093 35.719C125.093 38.1181 124.027 39.032 122.503 39.7174C123.608 41.5834 124.598 43.5254 125.397 45.5437C126.007 45.201 126.73 45.0106 127.492 45.0106C129.929 45.0106 131.871 46.9907 131.871 49.3898C131.871 51.7888 130.043 53.6547 127.72 53.769C128.101 55.9014 128.292 58.072 128.33 60.2806C128.52 60.2806 128.71 60.2426 128.901 60.2426C131.338 60.2426 133.28 62.2227 133.28 64.6218H133.356Z" fill="#518EC8"/>
</g>
<defs>
<clipPath id="clip0_40007630_62328">
<rect width="380.8" height="121.551" fill="white"/>
</clipPath>
</defs>
</svg>
