<svg width="242" height="214" viewBox="0 0 242 214" fill="none" xmlns="http://www.w3.org/2000/svg">
<path d="M226.494 106.094C207.522 99.7134 195.452 89.7735 190.618 76.5506C183.024 55.7736 196.074 33.6807 196.204 33.4607C196.454 33.0422 196.407 32.5116 196.083 32.1492C195.755 31.7911 195.236 31.6876 194.8 31.8946C177.283 40.2857 161.9 41.5584 149.079 35.6825C142.328 32.5849 137.01 27.684 133.057 22.9212C128.452 17.3602 124.979 10.9494 122.642 4.12003L121.502 0.785175C121.364 0.319245 120.936 0 120.452 0C119.955 0 119.523 0.336502 119.398 0.815374L118.815 3.05874C112.737 20.8461 103.281 32.2829 90.6889 37.0673C69.6299 45.0615 46.653 31.5625 46.424 31.4244C45.9489 31.1397 45.3268 31.2518 44.9812 31.7178C44.722 32.0758 44.7307 32.5633 44.9337 32.9516C53.7202 49.6647 55.4826 64.5486 50.1693 77.1977C41.2576 98.3976 15.1747 106.254 14.9112 106.327C14.4447 106.465 14.125 106.896 14.125 107.384C14.1207 107.871 14.4404 108.303 14.9069 108.441C32.631 113.7 44.2382 122.704 49.409 135.197C58.1998 156.427 45.3182 180.884 45.1886 181.13C44.8905 181.678 45.1022 182.394 45.7329 182.675C46.0353 182.809 46.3895 182.761 46.6832 182.614C63.8198 174.025 78.9606 172.541 91.6867 178.201C112.474 187.451 119.852 212.939 119.925 213.198C120.055 213.668 120.482 213.996 120.966 214H120.979C121.459 214 121.886 213.681 122.025 213.215C127.515 194.979 136.707 183.145 149.356 178.05C170.626 169.482 194.774 182.994 195.016 183.128C195.495 183.404 196.113 183.279 196.446 182.809C196.701 182.455 196.688 181.972 196.485 181.583C187.733 165.151 185.927 150.431 191.119 137.838C199.936 116.457 226.252 108.29 226.516 108.212C227.112 108.031 227.466 107.375 227.216 106.733C227.095 106.422 226.809 106.202 226.494 106.094Z" fill="#FFCB03"/>
<path d="M166.234 191.762C166.087 191.684 166.035 191.637 166.031 191.637C166.022 191.624 165.923 191.469 165.772 190.908L164.325 185.498C164.597 185.463 164.873 185.386 165.133 185.269C166.182 184.79 166.826 183.712 166.752 182.564C166.657 181.102 166.61 180.39 166.506 178.94C166.437 178.013 165.91 177.176 165.098 176.718C164.644 176.464 164.139 176.347 163.634 176.36C163.232 176.378 162.834 176.477 162.463 176.662C162.191 176.805 161.988 176.895 160.696 177.249C160.195 177.391 159.945 177.456 159.439 177.594C157.741 178.047 144.026 180.912 144.026 180.912C143.395 181.015 143.08 181.067 142.445 181.166C140.773 181.421 139.957 181.537 138.281 181.749C137.171 181.891 136.268 182.685 135.965 183.746C134.181 182.767 132.047 182.253 129.71 182.331C129.529 182.335 129.343 182.344 129.162 182.361C126.064 182.59 123.334 183.966 121.425 186.011C121.365 184.894 120.639 183.91 119.568 183.539C118.073 183.013 116.574 182.745 114.989 182.715L114.509 182.702C114.345 182.702 114.185 182.702 114.021 182.706C112.271 182.767 110.466 183.332 109.183 184.225C109.083 184.294 108.988 184.363 108.893 184.436C108.712 183.841 108.332 183.315 107.805 182.952C107.308 182.612 106.72 182.448 106.137 182.465C105.952 182.474 90.6768 180.67 90.0548 180.558L89.2988 180.42C88.6681 180.303 88.3485 180.243 87.7178 180.122C86.0503 179.799 85.2382 179.63 83.5751 179.264C83.3461 179.212 83.1172 179.19 82.8883 179.199C81.9552 179.229 81.0783 179.734 80.5858 180.567C80.0156 181.524 80.0847 182.728 80.7284 183.621C80.6808 183.884 80.5988 184.264 80.5556 184.458L78.6981 193.091C78.6635 193.25 78.5901 193.587 78.5296 193.841C77.5274 194.355 76.927 195.425 77.0263 196.559C77.13 197.767 78.0069 198.768 79.1905 199.031C81.3677 199.519 93.0441 202.077 106.155 202.884C106.25 202.888 106.34 202.888 106.431 202.888C107.001 202.867 107.546 202.672 107.991 202.345C109.917 203.104 111.68 203.462 113.693 203.509C114.055 203.518 114.405 203.518 114.738 203.509C116.907 203.436 118.609 202.94 120.095 201.952C120.781 201.495 121.365 200.938 121.844 200.313C123.969 202.232 126.894 203.272 129.922 203.169C130.056 203.164 130.19 203.16 130.324 203.147C133.24 202.953 135.918 201.861 137.905 200.106C137.922 200.149 137.944 200.196 137.965 200.244C138.436 201.266 139.473 201.896 140.583 201.857C140.665 201.853 140.752 201.848 140.838 201.836C143.033 201.564 158.182 198.621 158.618 198.609C158.795 198.604 163.504 197.483 165.651 196.887C166.748 196.585 167.552 195.649 167.677 194.523C167.807 193.393 167.236 192.301 166.234 191.762Z" fill="#ED1B2E"/>
<path d="M87.4142 190.088C89.0817 190.058 90.261 189.057 90.4208 187.633C90.5633 186.356 89.8938 185.519 88.5115 185.252C88.451 185.243 88.4207 185.234 88.3603 185.226C87.9801 187.172 87.7944 188.142 87.4142 190.088ZM86.5632 194.462C86.2954 195.843 86.2954 196.072 86.4509 196.533C86.5805 196.917 86.6971 197.155 87.0254 197.482C84.4811 197.004 83.2111 196.74 80.6797 196.167C81.1678 195.968 81.4529 195.735 81.7164 195.377C81.9324 195.084 82.0188 194.782 82.2866 193.578C83.034 190.187 83.4098 188.492 84.1571 185.105C84.4595 183.75 84.4897 183.492 84.3645 183.043C84.2521 182.642 84.1614 182.422 83.8763 182.094C85.5265 182.465 86.3559 182.642 88.0147 182.974C88.6454 183.099 88.9607 183.159 89.5914 183.28C90.9521 183.535 90.9521 183.53 91.2329 183.599C93.5267 184.117 94.9566 185.86 94.6499 187.87C94.3993 189.518 93.3539 190.528 91.3582 191.024C91.7167 192.051 91.9414 192.638 92.788 194.48C94.2006 197.418 94.3734 197.698 95.341 198.729C94.1401 198.69 92.9565 198.591 91.8074 198.397C90.3517 198.155 89.8549 197.836 89.2026 196.753C88.9002 196.261 88.6842 195.731 88.2523 194.54C87.7685 193.198 87.4877 192.374 87.1939 191.214C86.9434 192.512 86.8181 193.164 86.5632 194.462Z" fill="white"/>
<path d="M101.747 197.164C102.382 197.444 103.056 197.6 104.21 197.703C105.972 197.854 106.892 197.613 107.843 196.767C107.406 198.074 107.186 198.726 106.737 200.029C103.177 199.787 99.5961 199.416 96.0625 198.933C96.529 198.691 96.7925 198.437 97.0172 198.053C97.2072 197.742 97.2677 197.431 97.4232 196.21C97.8682 192.768 98.0885 191.046 98.5291 187.604C98.7062 186.228 98.7192 185.969 98.5507 185.533C98.4038 185.145 98.2958 184.933 97.9848 184.627C101.177 185.058 102.775 185.231 105.981 185.498C106.266 185.52 106.555 185.498 106.715 185.425C106.611 186.693 106.564 187.328 106.465 188.596C105.963 187.863 105.471 187.63 104.188 187.509C103.613 187.457 103.324 187.427 102.75 187.371C102.607 188.773 102.534 189.476 102.391 190.878C103.359 190.977 103.842 191.025 104.81 191.107C104.966 191.12 105.22 191.098 105.523 191.038C105.419 192.263 105.367 192.876 105.264 194.101C104.948 193.467 104.486 193.234 103.57 193.147C103.009 193.096 102.732 193.065 102.175 193.009C102.002 194.67 101.916 195.503 101.747 197.164Z" fill="white"/>
<path d="M108.75 196.523C110.176 197.697 111.947 198.387 113.692 198.443C115.273 198.495 116.228 197.921 116.245 196.972C116.258 196.04 115.852 195.708 113.791 194.703C111.731 193.697 111.191 193.365 110.582 192.77C109.843 192.045 109.372 190.837 109.433 189.823C109.515 188.464 110.137 187.394 111.165 186.691C112.076 186.066 113.515 185.669 114.78 185.703C114.97 185.712 115.066 185.712 115.26 185.716C116.547 185.751 117.744 185.979 118.906 186.394C118.901 187.425 118.901 187.938 118.901 188.969C117.675 188.231 116.733 187.916 115.627 187.891C114.586 187.869 113.77 188.443 113.744 189.245C113.718 190 114.037 190.311 115.847 191.118C117.835 192.006 118.323 192.291 119.122 192.994C120.18 193.926 120.621 194.828 120.634 196.234C120.642 197.554 119.947 198.84 118.737 199.634C117.549 200.415 116.107 200.747 114.024 200.682C112.379 200.635 110.949 200.333 109.363 199.703C109.113 198.43 108.992 197.796 108.75 196.523Z" fill="white"/>
<path d="M126.025 192.118C125.99 193.856 126.794 196.203 127.826 197.191C128.543 197.89 129.511 198.227 130.548 198.158C131.464 198.097 132.457 197.593 133.071 196.868C133.714 196.108 134.004 195.112 133.982 193.861C133.943 192.049 133.278 190.099 132.336 188.96C131.563 188.028 130.604 187.575 129.477 187.648C127.464 187.774 126.077 189.538 126.025 192.118ZM138.306 192.139C138.837 196.98 134.716 200.065 130.12 200.418C125.757 200.759 121.597 197.817 121.563 193.257C121.532 188.895 125.209 185.677 129.442 185.44C133.904 185.189 137.809 187.605 138.306 192.139Z" fill="white"/>
<path d="M144.559 191.211C146.114 190.625 146.883 189.283 146.551 187.889C146.257 186.638 145.341 186.078 143.959 186.289C143.898 186.302 143.868 186.306 143.808 186.315C144.106 188.273 144.257 189.253 144.559 191.211ZM145.237 195.616C145.449 197.005 145.531 197.221 145.834 197.605C146.08 197.92 146.27 198.105 146.689 198.304C144.14 198.709 142.862 198.891 140.304 199.201C140.693 198.847 140.883 198.537 141.008 198.11C141.108 197.76 141.09 197.445 140.931 196.22C140.49 192.777 140.274 191.056 139.833 187.613C139.656 186.241 139.6 185.987 139.328 185.607C139.086 185.266 138.931 185.09 138.555 184.874C140.222 184.671 141.056 184.559 142.723 184.313C143.354 184.218 143.669 184.171 144.304 184.067C145.665 183.851 145.665 183.847 145.95 183.821C148.283 183.532 150.214 184.693 150.603 186.686C150.922 188.321 150.279 189.624 148.572 190.767C149.259 191.608 149.669 192.087 151.086 193.537C153.406 195.828 153.665 196.03 154.927 196.673C153.782 197.048 152.637 197.35 151.488 197.558C150.041 197.816 149.466 197.683 148.486 196.889C148.037 196.526 147.652 196.095 146.849 195.12C145.942 194.024 145.397 193.338 144.732 192.346C144.935 193.653 145.034 194.309 145.237 195.616Z" fill="white"/>
<path d="M162.535 191.995C162.902 193.397 163.33 194.006 164.319 194.545C161.813 195.218 160.556 195.529 158.034 196.102C158.388 195.736 158.53 195.386 158.621 194.946C158.703 194.575 158.66 194.269 158.379 193.069C157.545 189.532 157.131 187.763 156.297 184.225C155.999 184.225 155.956 184.238 155.649 184.286C155.403 184.342 155.282 184.368 155.04 184.424C154.539 184.536 153.835 184.868 153.455 185.127C153.239 185.287 153.092 185.451 152.664 185.917C152.725 184.514 152.755 183.816 152.802 182.413C153.217 182.349 152.746 182.474 155.455 181.887C157.165 181.49 158.021 181.279 159.727 180.83C160.228 180.701 160.479 180.632 160.98 180.498C162.297 180.14 162.716 179.993 163.239 179.734C163.334 181.145 163.377 181.853 163.459 183.272C162.876 182.694 162.327 182.556 161.485 182.78C161.291 182.832 160.872 182.992 160.617 183.082C160.479 183.13 160.405 183.16 160.245 183.246C161.161 186.745 161.619 188.496 162.535 191.995Z" fill="white"/>
<path d="M120.919 37.1348C82.6107 37.1348 51.5601 68.1493 51.5601 106.403C51.5601 144.661 82.6107 175.676 120.919 175.676C159.226 175.676 190.281 144.661 190.281 106.403C190.281 68.1493 159.226 37.1348 120.919 37.1348Z" fill="#3677BC"/>
<path fill-rule="evenodd" clip-rule="evenodd" d="M89.0097 54.8287C89.1522 54.4059 89.2213 54.1945 89.3639 53.9831C89.5064 53.7717 89.5756 53.0642 89.5756 53.0642C89.5756 53.0642 89.1911 53.0254 88.69 53.5646C88.4179 53.858 87.9513 54.1212 88.163 54.4749C88.3747 54.8287 88.8671 55.2515 89.0097 54.8287ZM83.7266 65.3898C83.6099 65.3423 83.4933 65.2992 83.381 65.2517C83.1996 65.5796 83.1434 65.5623 83.0095 65.9894C83.1261 65.9765 83.2428 65.9635 83.3594 65.9506C83.4803 65.7651 83.6056 65.5753 83.7266 65.3898ZM73.7954 71.6712C74.1237 72.0077 74.56 72.2061 75.1864 72.2148C75.5622 71.8998 76.1929 71.9516 76.6292 71.6324C76.694 71.4425 76.7631 71.2484 76.8322 71.0586C77.005 71.0931 77.1821 71.1276 77.3592 71.1621C77.5277 71.0758 77.9251 70.6099 78.0936 70.5193C78.7459 70.3683 79.4025 70.2173 80.0548 70.0663C81.0008 69.2596 80.6034 66.5546 80.7157 66.4252C81.2902 65.8859 81.8777 65.8643 82.1628 65.0274C81.7654 64.7771 81.5408 64.3242 81.3291 63.8755C80.3269 63.979 79.3766 64.0049 78.8971 63.9273C78.6638 64.1214 78.4608 64.1343 78.0158 64.1904C77.7264 64.6952 77.316 65.0144 77.0871 65.5537C77.5277 65.5149 77.7394 65.4933 77.951 65.6486C77.8344 65.6616 77.7178 65.6702 77.6011 65.6831C76.6724 66.7574 75.506 65.7004 74.9358 66.7056C75.1475 66.8393 75.1259 66.8264 75.2684 67.0378C74.763 67.0766 75.0265 66.8738 74.7414 67.0982C74.7976 67.0895 74.8581 67.0852 74.9185 67.0766C75.0697 67.1974 75.4499 67.2449 75.6011 67.37C74.992 67.5468 74.9013 67.6676 74.681 68.2155C75.0222 68.263 75.7998 68.4011 76.0676 68.5995C75.195 69.0352 74.8667 70.4115 74.3786 70.666C74.1367 70.6617 73.9207 70.5711 73.6485 71.1362C74.1626 71.27 73.5664 71.3002 73.7954 71.6712ZM81.2816 60.3292C81.4673 60.4802 81.3075 60.3896 81.6228 60.4846C81.4414 60.3336 81.5969 60.4242 81.2816 60.3292ZM80.0764 60.4112C80.0764 60.2947 80.085 60.1739 80.0893 60.0531C80.2967 59.8029 80.3744 59.5182 80.4695 59.1342C80.2923 59.1428 80.1239 59.1558 79.9511 59.1644C79.9813 59.7511 79.9597 59.6519 79.8992 60.4242C79.9597 60.4198 80.0159 60.4155 80.0764 60.4112ZM80.8107 59.1126C81.3032 58.4655 81.8043 58.4051 82.0678 57.4474C81.9555 57.456 81.8388 57.4603 81.7265 57.4646C81.4198 57.8141 81.247 57.9349 80.6768 58.0514C80.6898 58.7503 80.7286 58.5216 80.6379 59.1256C80.6941 59.1213 80.7546 59.117 80.8107 59.1126ZM81.9857 59.928C81.9295 59.3629 81.8518 59.4146 81.6704 59.0609C81.6099 59.0652 81.558 59.0695 81.5019 59.0738C81.2816 59.5441 81.1779 59.3413 80.9576 59.8159C81.4112 59.9108 81.7222 60.1092 82.1455 60.2688C82.1412 60.4457 82.1326 60.6226 82.1283 60.8038C81.8993 60.8167 81.666 60.834 81.4371 60.8513C81.4328 60.9116 81.4328 60.972 81.4328 61.0281C81.5451 61.0195 81.6617 61.0109 81.7784 61.0023C81.99 61.2395 81.4803 61.205 81.4241 61.205C81.3637 61.5156 81.5148 61.4337 81.3982 61.9212C81.4587 61.9125 81.5148 61.9082 81.571 61.9039C81.8561 61.6278 82.3226 61.3301 82.638 61.1144C82.6337 61.2352 82.6293 61.3517 82.625 61.4682C82.2924 61.7486 82.3615 61.6494 82.2535 62.2016C82.1412 62.1541 82.0289 62.1024 81.9123 62.0506C81.7913 62.2404 81.6704 62.4259 81.5494 62.6157C81.3161 62.6373 81.0872 62.6546 80.8539 62.6761C80.8496 62.7926 80.8453 62.9134 80.841 63.0342C80.9576 63.0213 81.0699 63.0127 81.1909 62.9997C81.2513 63.0817 81.1304 63.2931 81.3593 63.1637C81.3593 63.1033 81.3637 63.0472 81.3637 62.9868C81.6012 62.7883 81.8388 62.5899 82.0764 62.3957C82.0678 62.6287 82.0591 62.866 82.0505 63.0989C81.895 63.3103 81.9382 63.2629 81.8604 63.6468C81.9771 63.6382 82.0937 63.6253 82.2103 63.6166C82.2794 63.2327 82.2449 63.2801 82.4004 63.0687C82.6423 63.3492 82.5041 63.2672 82.7417 63.2154C83.07 62.7538 82.5646 62.9652 83.1088 62.6546C83.2687 62.4475 83.0916 62.6416 83.286 62.4648C83.2816 62.5856 83.2816 62.6977 83.2773 62.8185C83.4285 63.0083 83.4112 63.0903 83.4285 63.5002C83.0527 63.7504 82.7201 64.0135 82.53 64.4622C82.7417 64.5916 82.7244 64.5787 82.8713 64.7815C83.7655 64.3759 84.4437 64.2292 85.5063 63.992V64.1645C84.9102 64.4234 84.975 64.5097 84.9534 65.256C85.299 65.3941 85.6402 65.4933 85.8173 65.8471C85.6186 66.1059 85.5193 66.5632 85.4372 66.9213C85.1089 67.0766 84.746 67.1715 84.2017 67.2449C83.8173 67.4821 83.7784 67.2276 83.1477 67.1974C83.1477 68.0818 83.1736 67.7669 82.7589 68.4701C82.8756 68.4528 82.9922 68.4399 83.1132 68.4226C83.3119 68.2457 83.2687 68.2932 83.6488 68.181C83.6359 68.5305 83.6272 68.8756 83.6186 69.2294C82.9317 69.5831 82.0073 69.8549 81.8043 70.7091C82.2362 70.7868 82.8237 70.3813 83.2298 70.5021C83.2255 70.6185 83.2212 70.735 83.2168 70.8515C83.4544 70.7609 83.6963 70.666 83.9339 70.5711C84.0506 70.7307 84.1629 70.886 84.2795 71.0456C84.7849 71.1276 85.0139 70.666 85.5366 70.515C85.5366 70.5711 85.5322 70.6272 85.5322 70.6876C85.0873 71.0068 85.1219 71.1535 84.448 71.3606C84.2061 71.2182 83.8648 71.2786 83.381 71.3476C82.7633 72.3313 81.7092 73.2717 80.625 73.893C80.6206 74.0138 80.6163 74.1303 80.612 74.2467C80.6725 74.2381 80.733 74.2295 80.7934 74.2209C80.7934 74.2209 82.7028 73.2113 82.7935 73.1855C83.4069 73.0043 83.3724 73.5004 83.8648 73.1855C83.9858 73.1078 84.1067 73.0302 84.232 72.9525C84.232 72.7799 84.2406 72.6074 84.2449 72.4305C84.664 72.3097 85.083 72.1846 85.502 72.0595C85.5841 72.0638 85.8476 72.3701 86.0333 72.3183C86.3444 72.2407 86.7936 71.7877 87.2947 71.779C87.8217 71.7747 87.5798 72.0379 88.1846 71.8049C88.1846 71.7532 88.1889 71.6971 88.1889 71.641C87.8044 71.641 87.852 71.6712 87.6533 71.5547C88.2753 71.4943 89.8736 71.4727 90.3402 71.3002C90.8672 71.1103 91.3424 70.6272 91.9558 70.3899C92.0119 70.2216 92.0724 70.0448 92.1329 69.8722C91.6404 69.9067 91.338 69.8894 91.0659 69.7039C91.5281 69.4235 91.2905 69.6996 91.4244 69.156C91.6015 69.1345 91.7786 69.1086 91.9558 69.0827C92.1069 68.703 92.5476 68.1163 92.85 67.8186C92.7376 67.5296 92.837 67.672 92.6728 67.5166C92.5 67.0766 92.634 67.1974 92.1415 67.0939C91.3467 66.6064 90.9363 67.4778 90.3704 67.3225C90.3099 67.3268 90.2538 67.3355 90.1933 67.3441C90.1933 67.2923 90.1933 67.2319 90.1976 67.1801C90.5518 66.917 90.5821 66.904 90.7289 66.451C89.8909 65.9722 90.5648 65.7565 90.0378 64.8764C89.7267 64.3414 88.6166 64.5269 88.3012 64.0567C87.7397 63.2154 88.4351 62.3871 87.2861 62.1239C86.8066 61.6839 86.2839 61.9384 85.5495 62.0981C85.5538 62.042 85.5538 61.9859 85.5538 61.9298C85.6143 61.9212 85.6705 61.9169 85.7266 61.9125C85.8865 61.7745 86.2191 61.8478 86.4264 61.6839C86.7418 61.438 86.3789 61.0626 86.4394 60.9979C86.556 60.9893 86.6727 60.9807 86.785 60.9721C87.3034 60.5018 87.9902 59.5354 88.2019 58.8409C87.5021 58.6381 86.2493 58.7761 85.2817 58.8452C85.0916 59.0221 85.2515 58.9099 84.9361 59.0436V58.8667C85.1262 58.5345 85.0311 58.7287 84.9491 58.349C85.7094 58.1506 86.2925 57.7839 86.5215 57.0634C86.461 57.0677 86.4048 57.0677 86.3487 57.072C86.353 57.016 86.353 56.9599 86.353 56.8995C86.029 56.9728 83.7784 57.3654 83.7784 57.3654C82.8842 58.2628 83.5754 58.2628 82.3658 58.8452C82.3658 59.3888 82.4522 59.5527 82.3356 59.7296C82.1412 59.9065 82.3054 59.7943 81.9857 59.928ZM86.8671 56.8779C86.8671 56.7614 86.8714 56.6493 86.8757 56.5371C86.9275 56.5328 86.9837 56.5328 87.0442 56.5285C87.0442 56.4724 87.0442 56.4163 87.0485 56.3602C86.6381 56.261 86.6727 56.2006 86.3703 56.0453C86.2709 56.3084 86.245 56.3343 86.1845 56.7355C86.3573 56.6751 86.5301 56.6061 86.7029 56.5414C86.6813 56.5932 86.6338 57.1066 86.8671 56.8779ZM154.778 156.807C154.225 156.298 154.001 157.139 153.802 157.515C152.42 157.989 152.385 159.81 150.351 159.637C150.355 160.176 150.186 160.539 149.819 160.698C149.724 162.709 150.592 163.697 149.288 164.944C149.426 165.414 149.426 166.065 149.288 166.535C149.923 166.669 149.534 167.825 149.642 168.485C149.983 168.641 150.16 168.969 150.614 169.012C151.227 168.714 151.767 168.339 152.476 168.127C152.424 167.428 153.133 167.265 152.649 166.622C153.271 166.151 152.791 164.581 153.539 164.236C153.331 163.145 154.04 162.968 153.888 161.937C154.178 162.044 153.958 161.652 154.247 161.76C154.407 160.785 154.415 159.702 154.333 158.93C154.644 158.973 154.446 159.525 154.865 159.46C155.042 158.511 154.437 157.804 154.778 156.807ZM178.688 137.876C178.844 137.911 178.861 137.807 178.865 137.704H178.688V137.876ZM178.338 134.162C178.58 134.391 178.451 134.995 178.688 135.223C178.403 135.115 178.624 135.512 178.338 135.404C178.425 136.254 178.662 136.962 178.865 137.704C179.548 137.786 179.6 137.255 180.105 137.173C179.85 135.892 179.259 134.956 178.688 133.985C178.403 133.877 178.624 134.27 178.338 134.162ZM86.4005 151.673C86.8066 150.897 86.3876 149.62 86.2277 148.843C85.8433 148.757 85.7353 148.942 85.5193 149.024C84.5905 148.593 84.111 147.713 83.0397 147.428C83.178 146.88 82.4652 147.173 82.5084 146.72C81.9252 146.708 81.355 146.69 81.0008 146.902C80.72 146.203 79.3334 146.397 78.7847 146.457C79.0353 146.38 78.9575 145.978 78.9619 145.663C78.2664 145.474 77.5968 145.258 77.1907 144.775H76.1324C75.3419 144.339 73.5535 143.873 74.7155 142.566C74.344 142.195 73.912 141.893 74.0071 141.065C73.2986 139.878 72.21 139.08 71.169 138.23C70.0631 138.17 69.8428 137.488 68.6894 137.876C68.7024 137.626 68.387 137.708 68.5123 137.346C67.5404 137.376 67.4626 136.509 67.0954 135.931C65.5446 135.357 64.9398 133.834 63.3718 133.278C63.3977 133.981 62.646 133.903 62.3998 134.339C62.0888 133.959 60.97 133.584 60.4516 133.985C60.4343 133.705 59.9375 133.912 59.8339 133.718V133.101C59.2636 132.963 58.5682 132.95 58.7712 132.039C58.3306 132.372 57.1902 134.334 56.8187 132.57C57.1513 132.544 57.4105 132.449 57.5314 132.216C57.2852 131.461 56.8014 132.225 56.4688 132.393C58.1751 138.058 61.3717 142.238 64.0845 146.902C64.5467 146.85 64.6677 147.143 64.6159 147.609C68.4302 152.109 72.1971 156.665 77.0136 160.168C77.0007 160.418 77.316 160.34 77.1907 160.698H77.7221C78.262 161.402 78.8755 162.027 79.8517 162.29C80.2319 163.145 81.3637 163.257 81.7999 164.059C82.1801 164.145 82.2881 163.96 82.5084 163.882C82.3356 163.209 82.7935 163.166 82.8626 162.735C82.9274 162.493 82.4393 162.795 82.5084 162.558C82.4868 162.036 82.746 161.794 83.2168 161.76C83.3421 161.302 83.4717 161.026 83.2168 160.612C83.4415 160.34 83.6359 160.03 83.5711 159.46C82.5948 157.73 84.746 156.194 85.1651 154.684C85.8605 154.732 85.6489 153.873 86.2277 153.796C86.0679 152.847 86.7547 152.734 86.9362 152.122C86.7591 151.971 86.4048 152.001 86.4005 151.673ZM84.6294 80.5584C84.7849 80.5929 84.7979 80.4893 84.8065 80.3815H84.6294V80.5584ZM153.007 49.423C153.202 48.8751 152.459 49.2634 152.649 48.7155C152.247 48.7673 151.988 48.668 151.94 48.3617C151.539 48.4178 151.262 48.3359 151.059 48.1849C151.158 49.1469 152.372 48.9959 153.007 49.423ZM147.694 47.6542V47.4816C147.249 47.3609 147.249 47.7707 147.694 47.6542ZM190.028 100.637C189.522 97.224 188.978 93.846 188.434 90.4637C188.209 90.481 188.218 90.2696 188.08 90.2005C188.175 88.3109 187.125 87.556 187.194 85.6879C187.051 85.6836 186.857 85.7311 186.835 85.6016C186.079 81.9648 184.36 79.29 183.298 75.9595C182.753 75.7955 182.706 75.1355 182.589 74.5444C182.447 74.5401 182.248 74.5876 182.231 74.4581C181.647 72.7756 180.537 71.6108 179.928 69.9455C179.79 69.9369 179.591 69.9887 179.578 69.8592C179.656 68.8584 178.628 68.9748 178.688 67.9998C176.537 65.2862 174.636 62.3224 172.135 59.9496V59.5096C171.69 59.4837 171.453 59.2507 171.427 58.802C170.394 58.0643 169.509 57.1799 168.77 56.1445C168.39 56.1747 168.213 55.9978 168.239 55.6182C167.79 55.5923 167.552 55.3593 167.53 54.9106C165.703 54.0219 164.666 52.348 162.925 51.3687C162.874 51.5844 163.038 52.0115 162.839 52.0762H162.217C162.265 52.4818 162.169 52.7363 161.858 52.7881C161.53 52.6716 161.409 52.3567 161.154 52.1668C161.215 52.0762 161.357 52.0762 161.331 51.9037C161.064 51.99 161.176 51.7052 161.154 51.5499C160.433 51.4507 160.429 52.1798 159.828 51.7225C159.582 51.6621 159.889 52.141 159.647 52.0762C158.636 51.4981 157.802 51.537 156.727 51.2824C156.644 50.9373 157.033 51.0624 156.904 50.6612C156.126 50.8165 156.057 50.2729 155.396 50.3074C155.262 50.411 155.18 50.562 155.042 50.6612C153.215 49.5309 150.238 50.5922 149.106 48.7155C149.331 48.6465 149.871 48.8881 149.819 48.5386C149.521 48.0641 148.42 48.4006 148.402 47.6542H147.694C147.573 48.0641 147.983 47.9519 147.871 48.3617H148.402C148.273 49.0736 149.214 48.7155 149.106 49.4058C149.003 49.2807 147.508 48.5731 147.158 48.7155V48.3617H145.037C145.145 48.9571 146.16 48.6551 146.096 49.423C145.024 49.4921 144.851 48.6637 143.793 48.7155V48.3617C142.687 48.3488 142.463 47.4514 141.314 47.4816C141.663 48.5127 143.785 48.2539 143.707 49.423C143.249 49.4015 143.076 48.8924 142.73 49.2461C142.743 48.9442 142.368 49.0218 142.376 48.7155H141.668C140.67 47.7707 138.847 47.6456 138.484 46.0623C137.797 46.1011 137.37 45.8725 137.24 45.3548C139.992 45.9976 142.67 47.5593 145.21 47.8311C145.076 47.4601 145.702 47.8527 145.564 47.4816C144.502 46.8302 143.076 46.5412 142.199 45.7085C141.914 45.6007 142.134 45.9976 141.845 45.8854C140.463 45.1434 139.046 44.4358 137.24 44.1209V43.7671C137.015 43.6895 136.48 43.9354 136.532 43.586C135.089 43.8275 133.892 42.3478 131.75 42.7016C131.767 42.4513 131.447 42.529 131.572 42.1709H131.041C131.063 42.4039 131.071 42.6153 130.778 42.5247C130.67 42.2486 130.436 42.0976 130.51 41.6403C129.698 41.623 128.683 41.8128 128.562 41.1096C127.749 41.2045 127.503 41.0837 126.79 41.4634C126.911 41.1053 126.6 41.183 126.613 40.9327C125.581 41.3857 124.881 41.2002 123.952 40.7559C122.181 41.0492 119.175 41.0492 117.399 40.7559C116.198 41.0277 115.127 41.4289 113.861 41.6403C113.982 41.2822 113.667 41.3598 113.68 41.1096C113.477 41.2908 113.326 41.5195 113.062 41.6403C112.976 41.4893 112.816 41.4116 112.531 41.4634C112.522 41.7179 112.047 41.5108 112.086 41.8171C112.531 41.7913 112.941 41.7913 112.976 42.1709H112.267C112.051 43.051 110.47 42.5635 110.051 43.2322C109.909 43.1934 109.974 42.9561 109.697 43.0553C109.157 43.3746 109.248 44.3194 108.189 44.1209V44.8241C107.706 44.7249 107.589 44.9881 107.395 45.1779C107.287 45.0787 107.231 44.9277 106.95 45.0053C106.721 45.8293 105.831 46.0105 105.001 46.2392C105.045 47.1495 103.883 47.5809 103.408 46.9467C102.941 46.8345 103.036 47.2875 102.699 47.3005C102.591 47.5895 102.984 47.3695 102.88 47.6542C101.736 47.4558 101.999 48.6637 100.751 48.3617C100.232 48.9657 99.6493 49.505 98.4484 49.423C98.3534 49.8588 98.0207 50.0572 97.7399 50.3074C97.8868 50.5102 97.9689 50.7863 97.9171 51.1961C97.7745 51.3471 97.4203 51.2867 97.3857 51.5499C97.4678 51.8476 97.7097 51.99 97.7399 52.3437C97.6535 52.5249 97.39 52.5249 97.3857 52.7881C97.4246 53.3403 97.9646 53.3921 97.5628 53.9356C97.5326 54.1686 98.0596 53.8537 97.9171 54.2031C97.822 54.4577 97.6579 54.6518 97.5628 54.9106C97.7011 54.915 97.8998 54.8675 97.9171 54.9969C97.9646 55.4844 97.6104 55.5707 97.7399 56.1445C98.5996 56.4379 99.3469 56.8434 100.129 57.2101C101.166 56.9124 101.74 56.1618 103.053 56.1445C103.528 55.3248 104.5 54.9926 105.179 54.38C105.706 54.6906 106.375 55.5621 106.064 56.1445C106.341 56.1963 106.397 56.4594 106.595 56.5889C106.725 57.016 106.375 56.9599 106.418 57.2964C106.548 57.4948 106.738 57.6286 107.127 57.5595C107.161 58.1463 107.533 58.3965 107.835 58.7114C107.736 58.8193 107.58 58.871 107.658 59.1558C108.358 59.2809 108.742 59.7209 108.721 60.5665C108.367 60.4457 108.44 60.7607 108.189 60.7477C108.423 61.2223 108.976 61.3819 108.898 62.1628C109.706 61.9643 110.241 61.4984 111.028 61.2784C111.123 59.8978 113.304 60.6054 113.861 59.6864C113.874 59.4319 113.559 59.5139 113.68 59.1558C114.116 59.1817 114.237 58.884 114.388 58.6251C114.146 58.3922 114.211 57.8572 114.211 57.3827C114.466 57.3999 114.384 57.085 114.747 57.2101C114.652 56.192 114.267 55.1522 115.455 55.0875C115.36 53.8105 116.691 53.9615 117.581 53.6725C117.658 53.4525 117.844 53.3446 117.753 52.965C117.395 52.8312 117.041 52.43 117.399 52.0762C117.188 51.8778 116.773 51.8778 116.337 51.9037C115.844 51.4507 115.006 51.3471 114.92 50.4843C116.039 48.4178 117.792 46.9855 120.592 46.5929C120.829 46.1831 120.903 45.6136 121.654 45.7085C121.525 45.2512 120.851 45.3289 120.769 44.8241C121.52 44.8414 121.957 44.5351 122.272 44.1209C123.806 44.246 126.069 43.9009 126.968 45.0916C126.695 45.6266 126.263 45.1261 125.728 45.1779C124.92 46.4074 123.024 46.5455 121.918 47.4816C121.844 47.2314 121.443 47.3048 121.123 47.3005C121.348 47.8699 120.937 48.297 120.941 48.8924C121.395 49.0822 121.896 49.7984 121.477 50.3074C121.62 50.3161 121.814 50.2643 121.827 50.398C121.965 51.0624 121.291 50.9243 121.296 51.4593C121.702 51.5887 121.909 51.9123 122.181 52.1668C122.099 52.348 121.836 52.348 121.827 52.6069C122.726 52.8053 123.767 52.8528 124.397 53.3187C124.626 52.7579 126.043 52.9132 126.523 53.1418C126.708 52.9693 126.873 52.7794 127.054 52.6069C127.728 52.8053 128.747 52.6932 129.27 52.2531C129.469 52.2963 129.585 52.4127 129.624 52.6069C130.436 52.499 131.119 52.5206 132.099 52.2531C132.087 52.5077 132.402 52.4257 132.281 52.7881C132.678 53.0081 133.473 52.8312 133.698 53.2281C133.197 53.6423 132.164 53.5215 131.572 53.8494C131.464 54.1341 131.858 53.9141 131.75 54.2031C131.464 54.091 131.685 54.4879 131.395 54.38C130.177 53.7803 128.449 53.7372 127.145 53.6725C126.082 53.7113 125.084 54.6173 124.311 54.38C124.207 54.984 124.868 54.82 125.019 55.1738C124.194 55.9374 123.456 54.6388 122.808 54.38C122.32 54.5137 122.721 55.5319 122.363 55.7907C122.855 55.9202 122.812 56.5802 123.512 56.4983C124.315 55.7131 126.125 55.946 126.613 56.852C126.466 57.0073 126.117 56.9469 126.082 57.2101C126.078 57.538 126.51 57.4301 126.436 57.827C126.082 58.0643 125.961 58.5345 125.46 58.6251C125.343 58.4741 125.119 58.4353 125.196 58.0945C124.561 58.0168 124.225 57.6501 123.952 57.2101H122.54C122.354 57.6717 121.723 57.6933 121.477 58.0945C121.481 58.3533 121.749 58.3534 121.827 58.5345C121.546 58.9013 121.369 59.3758 121.296 59.9496C121.399 60.0876 121.551 60.1696 121.654 60.3034C121.594 60.834 121.352 61.0929 121.654 61.5415C121.11 62.0333 120.717 62.6761 119.529 62.5122C119.611 62.8444 120.021 62.8444 119.879 63.4009H118.998C118.898 63.6555 118.717 63.828 118.466 63.9316C117.741 62.3957 116.026 62.6977 114.388 63.224C113.935 64.4191 112.086 64.2206 110.846 64.6391V64.1085C110.634 64.0524 110.203 64.2206 110.138 64.0179V63.4009C109.714 63.2931 109.33 63.1507 108.721 63.224C108.315 63.7029 107.403 64.4191 106.773 64.1085C106.561 64.3975 106.168 64.501 105.801 64.6391C105.567 64.4881 105.498 64.1732 105.356 63.9316C104.997 63.8065 105.079 64.1257 104.824 64.1085C104.915 63.841 104.626 63.9531 104.47 63.9316C104.595 63.2413 103.369 63.4398 103.848 62.6934C105.062 62.8099 105.693 63.5088 107.127 63.4009C107.334 63.1335 107.291 62.6157 107.835 62.6934C107.693 62.1412 108.107 62.1369 108.189 61.809C108.22 60.9548 106.997 61.3517 107.127 60.394C106.094 60.394 105.848 61.6494 105.001 61.5415C104.997 61.2136 105.304 61.1921 105.179 60.7477C105.023 60.6959 104.66 60.8556 104.647 60.6571V60.2171C105.628 60.312 105.891 59.6864 105.887 58.802C106.194 58.8107 106.112 58.4353 106.418 58.4483C106.436 58.1937 106.12 58.2757 106.241 57.9176C105.801 57.9435 105.688 57.6458 105.533 57.3827C104.379 57.4431 103.641 57.9133 103.494 58.9789C102.967 58.9746 102.708 58.7071 102.258 58.6251C101.77 58.9315 102.271 60.23 101.105 59.8633C100.958 60.0661 100.876 60.3422 100.928 60.7477C101.066 60.752 101.265 60.7046 101.282 60.834C101.438 61.4337 100.829 61.2654 100.928 61.809C101.373 61.8651 102.047 61.6925 102.345 61.8953C102.25 62.5683 101.585 62.6632 101.459 63.3103C101.96 63.6339 102.094 64.3328 102.345 64.9066C101.593 65.8082 100.336 65.2776 98.9797 65.7004C98.4441 66.2224 97.3166 66.162 96.5002 66.4079C96.1589 68.6599 94.431 69.527 93.4893 71.1837C92.742 71.559 92.3229 72.2622 91.0097 72.0681C91.1307 73.5651 90.4611 74.6566 88.8801 74.8982C88.7418 76.6239 87.1608 75.2778 86.4005 75.0751C86.4048 75.8085 86.8411 76.1105 86.9362 76.7576C86.6597 77.0682 86.2839 77.2882 86.137 77.7283C85.5668 77.6118 85.3379 77.4996 84.8065 77.7283C84.9016 76.4987 83.8173 77.3271 83.0397 77.1976C83.1175 77.5428 82.8885 77.5816 82.7719 77.7283C81.9036 77.6851 81.2859 77.9009 80.9101 78.3495C81.1217 78.6084 81.9382 78.2676 82.1542 78.5264C82.2794 78.8586 81.9079 78.6947 81.9727 78.9664C82.2406 78.8802 82.1326 79.1649 82.1542 79.3202C82.7071 79.2857 83.4501 79.4367 83.7439 79.1433C83.8907 79.7646 84.8195 79.6049 84.8065 80.3815C85.0787 80.4376 85.5711 80.2693 85.6964 80.4721C85.407 80.567 85.5495 81.0933 85.5193 81.4471C85.8951 81.624 86.3703 82.1589 86.0506 82.5084C86.3789 82.6162 86.5042 82.9355 86.7591 83.1253C86.569 83.203 86.5517 83.4489 86.5819 83.7422C87.0182 84.0701 87.5798 84.2815 87.8174 84.8078C87.6014 84.8855 87.4934 85.071 87.109 84.9847C87.0917 84.8251 87.204 84.5404 86.9362 84.6266C86.6467 84.5188 86.8671 84.9157 86.5819 84.8078C86.7807 87.2065 86.4653 89.8727 84.0117 89.053C83.6747 89.5491 82.9188 88.6906 82.5084 89.2299C81.3853 88.3713 79.5493 89.3636 78.4305 88.8761C77.7869 89.4024 77.1864 88.7467 76.7501 88.518C76.0719 89.053 76.1194 90.3084 74.7155 90.1143C74.6334 90.33 74.4434 90.4378 74.5341 90.8175C75.3203 91.2618 75.4715 92.9142 74.7155 93.475C74.8408 93.9668 75.4931 95.1058 74.7155 95.4207C74.9315 97.1118 74.3397 97.9962 73.6485 98.7814C73.4757 99.9851 73.9639 100.529 74.5341 100.99C74.668 101.978 74.331 102.5 74.357 103.38C74.5125 103.398 74.8019 103.294 74.7155 103.557C74.9185 103.411 75.1907 103.329 75.5967 103.38C75.6356 103.579 75.7523 103.695 75.951 103.734C76.4477 103.579 76.4434 102.932 77.0136 102.85C77.7221 103.794 78.6076 104.558 78.9619 105.857C79.45 105.399 80.4608 105.464 80.5559 104.618C81.1261 104.627 81.1779 104.118 81.5278 103.911C81.6272 104.2 82.1542 104.058 82.5084 104.088C82.5559 103.782 82.8108 103.682 83.2168 103.734C83.0916 104.092 83.4069 104.015 83.3896 104.269C83.6531 103.993 84.2968 104.109 84.8065 104.088C85.2731 103.669 85.1219 102.634 86.0506 102.673C85.9729 102.332 86.1975 102.293 86.3184 102.142C87.5237 102.021 87.407 100.58 88.1759 100.02C88.068 98.7814 87.7526 97.5389 88.7073 97.0126C88.4179 96.7236 88.569 96.3655 88.7073 96.0376C87.9816 95.7141 88.3401 94.9246 88.1759 94.3594C90.8499 93.7684 93.3251 92.5906 92.2495 89.2299C92.8672 88.9322 93.0616 88.2117 93.7528 87.9917C93.8219 88.1297 94.0336 88.1211 94.0206 88.3455C94.8587 88.216 95.2431 88.5396 95.9688 88.518C96.0207 89.1177 96.9019 88.889 97.0315 89.4067C98.3793 89.4542 98.241 88.0176 99.6882 88.1686C99.9258 87.7587 100.004 87.1849 100.751 87.2842C101.006 85.7483 103.036 86.2315 103.762 87.0167C103.546 87.8968 104.462 88.2376 103.939 88.8761C104.207 88.7855 104.094 89.0745 104.116 89.2299C105.045 89.3593 104.824 90.6449 105.533 90.9987C107.002 91.1842 107.887 91.9478 108.544 92.9444C109.295 92.8149 109.559 93.2895 110.051 92.9444C110.237 93.2593 110.699 93.2981 110.669 93.8288C111.386 94.1178 111.857 94.6485 111.909 95.5976C113.922 95.3387 113.706 97.7072 113.861 98.7814C113.477 99.5191 112.98 100.145 112.086 100.373C112.099 100.067 111.723 100.149 111.736 99.8427C111.041 99.8255 110.539 100.007 110.228 100.373C109.74 100.421 109.654 100.063 109.075 100.196C109.036 100.391 108.92 100.511 108.721 100.55C108.462 100.304 107.399 100.196 107.481 100.818C107.593 101.085 107.948 101.12 108.367 101.081C108.496 101.78 109.658 101.443 109.606 102.319C110.328 102.427 110.976 102.604 111.028 103.38H112.267C112.267 102.966 112.561 102.854 112.44 102.319C112.22 102.336 112.228 102.121 112.086 102.056C112.185 101.387 112.28 100.71 112.885 100.55C113.187 100.749 113.537 100.9 114.034 100.904C114.362 100.52 114.565 100.015 115.101 99.8427C114.937 99.5321 114.609 99.3854 114.747 98.7814C115.278 98.8979 115.101 98.3112 115.628 98.4277C115.74 98.0049 115.883 97.6166 115.81 97.0126C114.691 96.5985 114.414 95.1058 115.896 94.89C116.449 95.3128 117.196 95.5372 117.399 96.3051C117.81 96.2404 117.805 95.7658 118.108 95.5976C117.408 93.4664 114.371 93.6691 113.503 91.7062C111.157 91.6026 110.57 89.7389 109.606 88.2549C109.645 88.1168 109.887 88.1815 109.783 87.9011C108.958 86.9261 107.857 86.2272 107.127 85.1616H107.658V83.7422C107.909 83.7595 107.831 83.4446 108.189 83.5654C108.259 82.7457 108.881 82.4868 109.606 82.3315C109.494 82.7974 109.948 82.6982 109.961 83.0347C109.745 83.3238 109.792 83.8673 109.606 84.1866C109.788 84.3333 109.84 84.6051 109.961 84.8078C110.604 84.6094 110.57 85.0796 110.937 85.1616C111.092 84.9373 111.075 84.536 111.559 84.6266C111.689 85.291 111.343 85.4765 111.377 86.0417C112.583 87.3834 114.777 87.7199 115.81 89.2299H117.049C117.032 89.4801 117.347 89.4024 117.222 89.7605C118.825 90.33 119.823 92.0858 119.347 94.1825C119.572 94.1653 119.568 94.381 119.702 94.4457C119.836 94.8728 119.481 94.8167 119.529 95.1532C119.853 95.8521 121.373 96.1325 120.769 97.1895C121.296 97.5735 121.43 98.3543 122.363 98.3414V99.3121C123.145 100.158 124.838 99.0748 125.551 99.8427C125.801 99.8557 125.723 99.545 126.082 99.6658C125.793 98.7426 124.51 97.8884 125.905 97.1895C125.939 96.0333 124.89 95.96 124.838 94.89C125.235 95.0195 125.114 94.6312 125.46 94.7132C125.59 94.9116 125.853 94.9677 125.905 95.2438C126.972 95.4552 126.903 94.532 127.231 94.0056C127.741 94.1006 127.935 93.8805 128.121 93.6519C129.46 93.7597 130.704 93.9539 131.218 94.89C131.503 94.9979 131.283 94.6053 131.572 94.7132C131.508 94.985 131.879 94.821 131.75 95.1532C131.43 95.4552 131.145 95.7874 131.218 96.482C132.186 95.3689 132.652 93.0608 134.583 93.475C134.519 91.8788 132.039 90.3774 133.698 89.2299V88.1686C134.445 87.8838 135.145 87.5473 135.555 86.9304H136.532C135.866 86.1064 134.458 84.9502 136.532 84.6266C136.501 83.6258 136.92 83.0735 137.149 82.3315C137.914 82.2625 137.97 81.4945 138.571 81.2659C139.136 81.2745 139.007 81.4989 139.452 81.2659C139.983 81.5938 140.355 82.077 140.782 82.5084C141.041 82.2625 142.005 82.2538 142.376 82.4178C142.437 83.0951 141.875 83.1555 141.491 83.3928C141.478 83.643 141.789 83.561 141.668 83.9191C142.882 84.1046 142.255 85.4248 142.553 86.2229C143.569 86.4084 143.4 85.4118 144.502 85.6879C144.778 84.8467 145.888 84.8294 146.808 84.6266V84.096C145.573 84.1693 144.108 82.5817 145.391 81.7965C145.664 81.7318 145.499 82.1028 145.832 81.9734C147.046 81.5032 148.441 79.9069 150.173 80.8259C150.014 81.5204 148.929 81.2961 148.757 81.9734C149.78 82.4135 148.696 84.0658 148.225 84.6266C148.018 84.4756 147.746 84.398 147.335 84.4541C149.003 86.1495 151.042 87.474 152.83 89.053C153.681 89.3205 155.362 88.7596 155.133 90.1143C155.647 90.6018 155.781 91.4689 155.841 92.4137C156.359 92.7804 156.364 93.6605 156.549 94.3594H155.664C156.364 95.0065 157.85 97.5605 155.664 97.5433C155.625 97.7417 155.508 97.8582 155.31 97.897C155.111 97.8582 154.994 97.7417 154.955 97.5433C152.485 98.061 150.454 97.2542 149.465 95.7745C149.202 95.7788 149.201 96.0462 149.02 96.1282C147.78 95.3646 147.093 96.4043 145.923 96.6589C145.836 97.224 145.232 97.2715 144.856 97.5433C144.584 97.608 144.748 97.2369 144.415 97.3664C143.901 97.6813 142.813 97.1722 141.845 97.3664C141.841 98.2163 141.037 98.2637 140.692 98.7814C140.514 98.6995 140.51 98.432 140.251 98.4277C139.715 99.0101 139.685 100.097 139.188 100.727C140.203 100.908 139.806 101.724 139.365 102.233C139.72 102.5 140.203 102.638 140.074 103.38C140.778 103.678 141.236 104.226 141.668 104.795C142.86 104.61 142.951 105.516 143.616 105.857C144.26 105.65 144.579 105.106 144.947 104.618C146.039 104.614 146.359 105.391 146.985 105.857C148.031 105.904 148.579 105.447 149.106 104.972C149.219 104.688 148.821 104.903 148.934 104.618C149.664 104.567 149.845 105.063 150.437 105.149C150.592 104.925 150.58 104.528 151.059 104.618C151.085 105.059 151.085 105.473 150.7 105.503C151.081 105.87 150.7 106.172 150.7 106.655C150.8 106.789 150.96 106.87 151.059 107.009C150.791 107.686 151.033 107.91 151.059 108.687C150.506 108.549 150.8 109.256 150.351 109.217C150.42 110.236 150.381 111.137 149.642 111.344C150.765 112.682 149.128 114.515 147.694 113.821C147.296 114.252 146.186 113.924 146.096 113.463H144.679C143.029 115.702 140.177 113.057 137.948 113.286C138 112.052 135.732 113.148 135.823 111.871C134.316 110.84 131.469 111.4 131.572 113.553C132.436 114.528 131.439 115.313 130.778 115.762C130.294 115.331 129.309 115.4 129.27 114.524C128.929 114.571 128.799 114.407 128.739 114.17C127.533 114.287 126.682 114.041 126.082 113.553C126.073 113.057 125.788 112.85 125.905 112.224C124.484 111.733 122.579 111.06 121.123 111.163C120.95 110.632 120.073 110.801 120.233 109.929H119.347C119.386 109.537 118.855 109.718 118.82 109.399C118.76 109.399 119.08 109.122 119.529 109.217C119.693 108.562 120.255 108.294 120.056 107.276C120.345 107.384 120.125 106.987 120.414 107.095C120.6 105.965 119.015 106.603 119.347 105.326C118.721 105.102 118.687 104.278 117.844 104.269C117.71 104.364 117.628 104.519 117.49 104.618C117.33 104.295 116.894 104.8 116.337 104.618C116.302 104.424 116.185 104.304 115.982 104.269C114.864 105.49 112.324 104.42 110.937 105.149C110.755 105.063 110.755 104.8 110.496 104.795C109.071 105.438 107.736 106.167 106.595 107.095C106.323 107.164 106.488 106.789 106.155 106.918C105.952 107.487 105.433 107.733 104.911 107.984C104.811 107.703 104.405 107.725 104.293 107.449C103.369 107.854 102.258 107.362 101.282 106.918C101.092 108.204 100.371 108.954 99.1568 109.217C98.159 110.848 97.3339 112.647 96.8544 114.791C97.0315 114.938 97.0833 115.21 97.2086 115.413C96.4224 117.104 95.5412 118.7 93.6664 119.3C93.5498 119.835 93.9645 119.835 93.8392 120.365C93.0271 120.732 92.3532 121.237 92.0724 122.134C92.5 123.2 91.7484 124.49 91.0097 124.96C90.9708 125.633 91.1825 126.552 90.4784 126.556C90.4438 127.108 90.595 127.855 90.3013 128.148C90.6814 128.946 91.6059 129.201 91.7182 130.275C91.5713 130.422 91.2214 130.361 91.1868 130.629C91.243 130.978 91.6577 130.982 91.7182 131.336C91.8132 132.643 91.6836 135.568 92.0724 136.729C91.338 137.734 92.7376 138.869 92.0724 139.822C92.2625 140.279 92.837 140.353 92.9579 140.883C93.5109 141.026 93.5109 140.612 93.8392 140.534C94.0854 140.965 94.2625 141.47 94.7291 141.682C94.6729 141.768 94.526 141.776 94.5476 141.945C95.2474 142.549 95.809 143.286 95.7917 144.598C97.4505 145.003 98.267 146.255 99.5111 147.079C99.7227 148.045 101.066 147.881 101.105 149.024C101.865 148.977 102.276 149.266 102.699 149.555C104.112 147.665 106.984 150.318 108.812 149.378C109.464 149.844 110.82 150.249 110.937 149.024C111.585 149.08 111.628 148.537 112 148.317C113.831 148.757 115.27 149.585 116.159 150.97C116.466 150.979 116.388 150.603 116.691 150.612C116.838 150.767 117.188 150.711 117.222 150.97C118.026 150.357 118.885 150.784 119.529 151.233C119.719 151.984 120.216 152.432 120.592 153.002C120.505 153.187 120.242 153.187 120.233 153.442C120.518 153.55 120.63 153.817 120.941 153.891C120.972 154.357 120.531 154.357 120.056 154.331C120.155 154.956 119.909 155.241 119.529 155.388C120.445 157.924 122.868 158.951 124.665 160.612C124.561 160.711 124.41 160.772 124.484 161.056C124.924 161.061 125.114 161.307 125.196 161.673C124.35 162.006 123.024 162.42 123.952 163.533C125.097 164.292 126.51 165.668 125.905 167.597C126.173 168.559 126.756 169.676 126.436 170.694C127.361 172.101 128.264 173.529 128.916 175.207C131.007 175.108 132.583 174.504 134.76 174.495C136.484 173.326 140.216 174.167 140.428 171.488C140.821 171.523 140.644 170.996 140.959 170.957C140.285 169.249 141.979 168.464 142.908 167.774C142.735 166.932 143.43 166.272 142.73 165.919C142.817 165.737 143.076 165.733 143.085 165.478C142.838 164.719 142.307 164.249 142.199 163.352C142.955 163.339 142.8 162.415 143.793 162.644C144.294 160.547 147.664 161.32 147.871 158.93C148.372 158.843 148.294 158.175 148.757 158.045C148.748 157.782 148.484 157.782 148.402 157.601C148.778 157.411 148.411 157.2 148.402 156.893C149.007 156.358 149.439 155.629 150.351 155.388C154.1 151.703 159.34 149.507 161.686 144.425C162.787 143.459 163.15 141.755 163.988 140.534C163.889 139.844 164.139 139.503 164.342 139.115H163.634C163.608 139.675 163.232 139.891 162.571 139.822C161.383 140.292 160.519 141.078 159.033 141.241C158.969 141.47 158.839 141.634 158.498 141.591C158.519 142.031 158.226 142.147 157.966 142.298C157.889 142.083 157.703 141.975 157.789 141.591C156.8 141.673 156.407 141.742 155.487 141.505C155.539 140.348 156.878 140.474 156.904 139.296C155.966 138.666 155.768 137.303 154.688 136.819C154.403 136.975 154.385 137.398 153.888 137.346C154.07 136.608 153.392 136.725 153.18 136.371C153.189 135.81 153.418 135.939 153.18 135.491C153.361 135.193 153.806 135.163 153.716 134.606C153.228 134.296 153.176 133.545 153.007 132.924C152.243 132.889 152.303 132.035 151.763 131.776C151.659 131.401 151.906 131.388 151.94 131.155C151.659 130.637 151.344 129.546 152.117 129.386C151.478 127.937 150.666 126.651 149.819 125.404C149.992 125.137 150.178 124.882 150.351 124.61C149.167 123.873 149.387 121.737 148.579 120.628C148.8 119.459 147.707 119.144 147.78 118.415C148.251 118.627 148.497 119.054 148.934 119.3C148.903 118.86 148.908 118.45 149.288 118.415C151.029 119.33 151.167 121.845 152.294 123.372C152.364 123.644 151.988 123.48 152.117 123.812C152.415 124.257 152.869 124.541 153.007 125.141C153.962 125.236 154.005 127.026 153.888 127.617C154.204 127.777 154.437 128.014 154.601 128.325C154.165 128.769 154.727 129.283 154.424 129.649C154.61 130.12 155.016 130.357 155.487 130.534C155.806 132.518 157.007 133.614 157.435 135.491C157.176 135.499 157.392 135.974 157.081 135.931C157.197 136.992 157.284 138.066 157.435 139.473C157.642 139.619 157.915 139.697 158.321 139.65C159.413 138.437 161.098 137.82 162.748 137.173C163.128 135.542 165.129 135.542 166.113 134.516C166.299 132.928 167.91 132.773 168.947 132.039V131.336C170.196 131.224 169.919 129.589 171.077 129.386C171.086 126.97 173.427 126.375 172.667 123.726C172.252 123.083 171.034 123.23 170.718 122.488C170.96 121.996 170.559 121.086 170.9 120.365H170.364C169.798 121.737 169.146 123.04 167.353 123.191C167.431 123.536 167.202 123.575 167.085 123.726C166.502 122.924 165.677 122.358 165.405 121.245C165.604 121.211 165.72 121.094 165.759 120.896C165.621 120.564 165.47 120.244 165.405 119.835C164.433 119.714 164.636 118.428 163.988 117.975C164.001 117.263 163.772 116.444 164.165 115.413C164.727 115.525 164.623 114.985 164.783 114.701C164.9 114.847 165.129 114.891 165.051 115.231C165.409 115.356 165.332 115.042 165.582 115.054C165.47 115.676 165.906 115.732 166.113 116.029C165.742 118.083 167.561 117.949 167.885 119.3C168.563 119.425 168.809 119.973 169.565 120.007C169.764 119.822 169.88 119.554 170.364 119.658C170.343 119.218 170.636 119.101 170.9 118.95C171.098 119.338 171.349 119.675 171.25 120.365C172.161 120.805 173.15 121.603 174.261 120.896C174.351 121.133 174.632 121.176 174.883 121.245C175.12 121.017 175.353 120.775 175.587 120.542C175.669 120.788 176.071 120.71 176.386 120.719C176.593 120.451 176.55 119.934 177.099 120.007C176.965 120.404 177.354 120.283 177.271 120.628C176.814 120.965 176.926 121.871 176.917 122.66C177.077 122.716 177.44 122.552 177.453 122.751C177.194 122.82 177.401 123.351 176.917 123.191C176.973 123.838 176.891 124.347 176.74 124.787C176.999 124.692 177.194 124.533 177.453 124.433C177.509 124.101 177.336 123.553 177.539 123.372C178.347 124.313 176.883 124.999 177.271 126.379C176.986 126.271 177.207 126.664 176.917 126.556C176.965 128.377 176.248 130.266 176.386 131.599C176.248 131.664 176.256 131.875 176.036 131.862V135.754C176.248 135.836 176.356 136.021 176.74 135.931C176.697 135.232 177.112 135.823 177.453 135.754C177.315 134.503 177.604 133.67 178.338 133.278C178.226 132.855 178.278 132.441 178.161 131.686C178.442 131.793 178.226 131.397 178.511 131.504C178.403 130.34 179.06 129.278 178.688 128.411C179.198 128.01 179.457 127.35 180.287 127.264C180.351 126.444 180.887 126.099 181.522 125.849C182.019 123.924 185.635 125.115 187.725 124.787C189.712 117.669 190.343 109.351 190.028 100.637Z" fill="#4EB848"/>
<path d="M190.021 106.398C190.069 107.438 190.112 108.482 190.112 109.534C190.112 110.566 190.077 111.588 190.03 112.606C198.851 117.188 203.689 121.48 202.963 124.837C201.075 133.577 162.236 132.632 116.209 122.723C70.1817 112.809 34.401 97.692 36.2887 88.9472C37.0749 85.3147 44.2457 83.3604 55.6457 83.0195C56.4319 81.1213 57.3045 79.2705 58.2462 77.4629C36.5133 77.6053 21.9254 81.557 20.2926 89.1198C17.2946 103.007 59.0237 123.771 113.496 135.497C167.969 147.227 214.557 145.48 217.555 131.593C219.123 124.319 208.402 115.16 190.021 106.398Z" fill="#ED1B2E"/>
<path d="M221.535 23.8562L221.479 23.7527C220.723 22.3851 219.28 21.6129 217.794 21.656C217.332 21.669 211.664 23.9382 211.008 24.2057C209.928 24.65 209.09 25.5344 208.705 26.6346C208.64 26.8287 208.589 27.0272 208.55 27.2256C207.833 26.7252 206.969 26.4663 206.092 26.4922C205.604 26.5051 205.111 26.6087 204.636 26.8114C203.91 27.1134 198.558 29.1713 197.625 29.5682C196.878 29.8831 196.212 30.3836 195.763 31.0566C195.331 31.6951 195.102 32.4155 195.063 33.136C194.014 32.9678 192.942 32.8987 191.854 32.9289C189.361 33.0066 186.886 33.6192 184.501 34.7582C181.102 36.3846 178.454 39.0033 176.877 42.2648C176.549 41.9757 176.173 41.7428 175.763 41.5702C175.223 41.3459 174.648 41.2467 174.078 41.2639C173.49 41.2812 172.907 41.4235 172.372 41.6953C169.266 43.2614 145.93 55.3497 143.818 56.5318C138.323 59.5991 135.191 62.3731 133.442 66.834L133.398 66.7607C132.625 65.4276 131.204 64.6942 129.753 64.7373C129.139 64.7589 128.517 64.9185 127.943 65.2291C126.444 66.0402 124.936 66.8815 123.48 67.6925C122.353 68.3181 121.221 68.9479 120.085 69.5692C118.577 70.3975 117.692 72.1275 118.059 73.9783C118.145 74.401 118.318 74.8023 118.534 75.1776L118.629 75.3415C119.156 76.2518 120.037 76.9033 121.061 77.1707C122.016 77.4253 122.379 77.8351 123.653 80.113L123.688 80.1734C118.296 77.8049 113.493 75.2251 112.806 74.9101C112.206 74.6081 111.532 74.4571 110.858 74.4787C110.231 74.5003 105.614 76.886 103.929 77.8394C102.84 78.452 80.7922 90.6051 78.0102 92.2056C74.4378 94.2592 71.8891 96.8951 70.4117 100.07C70.0964 100.765 69.8502 101.485 69.6687 102.219C68.8912 101.455 67.8242 101.037 66.714 101.067C66.5628 101.071 66.4073 101.089 66.2561 101.11C63.3791 101.524 60.325 102.624 57.6554 104.203C54.2298 106.227 51.7978 108.824 50.4198 111.96C50.234 112.387 50.0742 112.827 49.9403 113.272C49.4089 112.663 48.7048 112.223 47.91 112.016C47.5341 111.917 47.1454 111.878 46.7609 111.887C46.0654 111.908 8.48763 135.3 6.87636 136.163C3.82659 137.781 0.38373 141.844 0.0251882 146.948C0.0251882 146.97 0.0251906 146.991 0.0208708 147.013C-0.182159 150.839 1.10946 155.861 3.31255 159.8C5.04478 162.893 7.85263 167.238 12.2372 169.3C12.8895 169.61 13.5461 169.865 14.2114 170.063C12.7426 170.844 11.8484 172.479 12.1076 174.274C12.1767 174.753 12.3538 175.215 12.5914 175.637L12.7599 175.944C13.1876 176.707 25.0497 189.65 27.2657 190.09C27.5249 190.142 27.7798 190.167 28.0433 190.167C28.0433 190.167 28.3284 190.167 28.5055 190.163C28.7604 190.155 33.6979 188.006 35.2055 187.346C35.5511 187.195 35.888 187.022 36.1947 186.798C37.3654 185.957 37.3438 184.257 37.3222 183.239C38.1861 183.407 39.0674 183.48 39.9486 183.455C41.4562 183.411 42.8515 183.61 44.1906 182.989C45.5686 182.342 75.4529 167.009 84.6627 162.164C86.3215 161.293 87.4965 159.722 87.8852 157.889C88.0278 157.194 88.1142 156.547 88.0364 156.163C88.0364 156.163 88.2308 156.271 88.5548 156.418C90.2136 157.181 92.7752 157.591 94.3692 156.702C107.873 149.148 128.729 137.742 148.989 126.387C150.98 125.274 152.773 122.5 152.971 120.23C153.036 119.48 153.032 118.872 153.023 118.591C153.019 118.526 153.097 118.496 153.144 118.539C153.611 118.992 154.069 119.372 154.505 119.683C155.693 120.528 157.274 120.58 158.548 119.864C160.008 119.044 162.354 117.728 163.87 116.878C165.088 116.192 165.741 114.76 165.339 113.418C165.296 113.28 165.244 113.151 165.183 113.026C165.175 113.009 165.192 112.996 165.205 113.009C165.365 113.168 165.853 113.569 166.466 113.996C167.171 114.484 168.099 114.514 168.838 114.078C177.27 109.065 229.28 78.1328 229.289 78.1285C229.915 77.7186 239.121 71.4372 239.121 71.4372C243.052 68.5899 242.473 63.387 240.266 59.7286C239.402 58.2186 221.95 24.6069 221.535 23.8562Z" fill="#ED1B2E"/>
<path d="M38.1947 130.16L46.2252 144.414C47.3397 146.394 48.7825 148.405 47.8149 150.489L47.8797 150.609C52.7956 147.87 58.7785 144.397 63.6944 141.658C63.0335 139.444 62.0226 136.739 61.3574 134.522L61.1889 134.617C60.9427 137.132 58.934 139.117 57.0765 140.173C55.9145 140.829 54.6444 141.442 53.2664 141.558C51.9057 139.142 50.5147 136.61 49.1497 134.19C49.5125 133.983 49.9964 133.702 50.3592 133.491C51.5817 132.779 53.2362 131.614 54.5753 132.9C54.6272 132.87 54.6833 132.835 54.7395 132.805C53.7157 130.993 52.3982 128.793 51.3744 126.981C51.3225 127.015 51.2664 127.045 51.2145 127.076C51.0072 127.408 50.5666 127.714 50.1087 127.99C49.0892 128.59 47.8451 129.319 46.83 129.919L43.3828 123.806L44.4282 123.171C46.0222 122.205 48.3332 120.402 50.2512 121.7C50.2815 121.683 50.3117 121.661 50.3463 121.644L47.1669 116.001C47.1367 116.023 47.1021 116.04 47.0719 116.057C46.8213 116.471 45.6679 117.144 45.1798 117.442C41.3827 119.767 37.5986 122.106 33.8231 124.461L33.8879 124.573C36.1169 124.724 37.0802 128.176 38.1947 130.16ZM73.9107 127.184C75.1893 129.448 73.159 131.385 71.4182 132.373C68.6233 133.944 64.7182 134.453 61.5172 133.849C63.0205 135.523 64.5281 137.201 66.0357 138.875C68.9861 138.487 71.8242 137.542 74.3902 136.11C77.1505 134.569 79.4357 132.813 80.7446 129.785C81.9109 127.05 81.6301 124.095 80.1398 121.45C78.6754 118.849 76.6321 117.589 73.8199 116.95C71.4786 116.415 69.3101 116.653 66.9817 116.877C65.1933 117.058 62.5324 117.593 61.4438 115.665C60.3768 113.775 61.8326 112.002 63.3272 111.122C65.2495 109.992 67.5865 109.698 69.8198 109.849L67.1416 105.099C64.6923 105.462 62.1609 106.419 60.0182 107.696C57.6812 109.086 55.5862 110.988 54.4457 113.594C53.4349 115.967 53.599 118.801 54.8777 121.07C59.9059 129.996 71.1287 122.244 73.9107 127.184ZM18.5051 141.377C21.0365 145.868 23.5031 150.329 25.8574 155.152C26.7991 157.089 28.3931 159.876 27.6112 161.775L27.6717 161.887C30.2549 160.454 33.4257 158.694 36.0089 157.266L35.9441 157.15C33.8879 156.787 32.5574 153.91 31.4774 151.994L28.4536 146.623C30.1383 145.614 31.3479 144.88 33.0326 143.875L36.3372 149.734C37.4301 151.671 38.8859 153.962 38.1256 155.899L38.1861 156.011C40.7693 154.578 44.6614 152.383 47.2447 150.95L47.1799 150.834C45.1064 150.441 43.8839 147.533 42.778 145.566C40.1343 140.872 37.3826 136.002 34.7389 131.308C33.633 129.341 32.2248 127.309 32.9246 125.272L32.8598 125.156C30.3629 126.743 26.9719 128.797 24.4924 130.402L24.5528 130.514C26.5615 130.794 27.568 133.051 28.6609 134.988C29.4558 136.407 30.3629 138.008 31.1621 139.431C29.4817 140.454 27.8056 141.472 26.1296 142.499C25.3434 141.101 24.4492 139.518 23.663 138.124C22.583 136.204 21.1273 134.211 21.8659 132.171L21.8011 132.059C19.3216 133.672 16.7859 135.152 14.3193 136.783L14.3798 136.89C16.3582 137.119 17.4468 139.5 18.5051 141.377ZM95.907 95.5563C98.771 100.638 101.635 105.725 104.499 110.807C105.7 112.929 107.225 115.091 106.287 117.287L106.357 117.408C109.38 115.716 114.188 113.016 117.208 111.32L117.139 111.195C114.771 110.846 113.717 108.425 112.517 106.294L103.912 91.0221C102.715 88.8996 101.151 86.6174 102.084 84.4171L102.015 84.292C99.5399 85.6251 94.0754 88.6839 91.0688 90.4052L91.1336 90.5303C93.4922 90.8539 94.7147 93.4338 95.907 95.5563ZM101.661 118.033C102.914 115.216 102.663 112.2 101.151 109.521C99.6609 106.877 97.5572 105.617 94.637 104.996C92.1963 104.474 89.9284 104.733 87.4964 104.978C85.6216 105.177 82.8353 105.746 81.7252 103.779C80.6409 101.851 82.183 100.03 83.7641 99.1198C85.7901 97.9593 88.2394 97.6401 90.5721 97.7781L87.8506 92.9592C85.2803 93.3389 82.6193 94.3311 80.3558 95.6383C77.8892 97.0663 75.6645 99.0206 74.4334 101.691C73.3405 104.12 73.4787 107.028 74.7876 109.353C79.9324 118.49 91.7427 110.432 94.5765 115.458C95.8768 117.766 93.7385 119.776 91.9069 120.807C88.9781 122.455 84.9002 123.025 81.5696 122.434C83.1161 124.142 84.6712 125.85 86.2264 127.563C89.302 127.123 92.2697 126.109 94.961 124.604C97.8552 122.986 100.253 121.152 101.661 118.033ZM22.1726 165.571C23.6154 164.786 25.3693 163.582 26.3887 162.141C25.7278 160.135 24.8941 157.663 24.2202 155.64C23.5636 157.814 22.5528 159.773 20.8983 160.713C17.7233 162.499 14.4661 159.837 11.7101 154.954C9.29537 150.661 8.5826 145.963 11.3257 144C12.5309 143.146 14.086 143.025 15.7707 143.569C14.7513 141.878 13.7318 140.178 12.7123 138.487C11.5201 138.892 10.6777 139.073 9.02322 139.962C6.89789 141.101 4.55657 144.104 4.32762 147.482C4.16347 150.674 5.35141 154.915 7.14412 158.095C9.1269 161.619 11.3732 164.549 14.302 165.907C17.3734 167.374 19.9868 166.766 22.1726 165.571ZM204.753 38.8638L212.027 51.7762C213.25 53.9462 214.157 55.5985 214.044 57.7038L214.109 57.8203C215.539 56.9963 218.978 55.0808 220.407 54.2568L220.343 54.1446C218.541 53.1826 217.595 51.5561 216.386 49.412L210.878 39.6404C210.9 39.6318 210.926 39.6188 210.947 39.6102C214.213 42.0563 217.435 44.4378 220.623 46.7501C223.03 48.4672 224.148 49.4465 226.537 49.8348C227.509 49.9815 229.989 49.7226 230.766 49.2696L220.252 30.6195C219.111 28.5918 218.26 27.0301 218.489 25.1879L218.429 25.0801C216.895 25.697 214.576 26.7238 213.047 27.3536L213.107 27.4572C214.96 28.4969 215.876 30.0716 217.038 32.1294L222.217 41.3186C217.198 37.7594 206.727 29.9982 206.705 29.9594C205.059 30.6583 201.241 32.069 199.603 32.7766L199.664 32.893C202.217 34.5928 203.128 35.9777 204.753 38.8638ZM188.864 42.4015C193.314 40.2056 198.048 44.8433 200.515 49.2308C201.577 51.1161 202.714 53.5579 202.636 55.6244C202.554 57.8462 201.703 59.3518 200.027 60.288C198.225 61.2932 195.461 60.4692 193.508 59.0585C191.504 57.5744 189.486 55.2577 188.195 52.9625C185.888 48.8727 185.033 44.2997 188.864 42.4015ZM201.586 64.8006C209.249 60.4951 210.541 53.3595 205.915 45.1453C201.241 36.8534 193.577 34.6058 186.713 37.9061C180.078 41.0943 177.408 49.1229 182.238 57.6952C187.024 66.1898 196.117 67.8723 201.586 64.8006ZM109.406 89.1541L117.42 103.374C118.763 105.764 119.748 107.601 118.906 110.302L118.975 110.427C121.601 108.952 124.223 107.476 126.85 105.997L126.78 105.876C124.072 105.168 123.014 103.378 121.666 100.988L115.536 90.1119L115.653 90.0428C120.245 92.0964 124.837 94.1499 129.433 96.1992C132.919 97.7091 134.478 98.6712 138.357 98.4943C139.926 98.4209 142.742 98.188 144.168 97.3812L131.852 75.53C130.513 73.1529 129.515 71.2762 130.336 68.6316L130.262 68.5108C127.64 69.9388 125.035 71.4272 122.413 72.8724L122.487 72.9975C125.195 73.7094 126.258 75.4954 127.601 77.8769L133.593 88.5156C126.305 85.3447 111.592 78.9338 111.566 78.8907C108.732 80.4697 106.02 82.0314 103.194 83.619L103.264 83.7441C106.858 84.978 107.618 85.9832 109.406 89.1541ZM159.123 60.7022C159.827 59.0024 160.561 58.0533 162.112 57.2336C162.717 56.9143 163.974 56.2629 164.639 56.1162C167.589 61.3536 170.799 67.0958 173.745 72.3634C174.886 74.404 176.359 76.5007 175.417 78.6362L175.482 78.7526C178.48 77.0572 182.346 74.8268 185.339 73.1313L185.275 73.0105C182.977 72.2728 181.957 70.5428 180.713 68.3382C177.806 63.1785 174.683 57.6003 171.771 52.4362C172.233 51.9401 172.76 51.6165 173.365 51.3016C174.587 50.6674 175.892 50.3438 177.14 51.3879C176.432 49.2524 175.343 46.9831 174.644 44.8519C169.386 47.5224 162.782 51.1808 157.559 53.9074L156.846 54.1231C157.542 56.3751 158.293 58.7737 158.997 61.0257C159.041 60.9179 159.079 60.81 159.123 60.7022ZM162.73 86.5354C165.123 85.1937 167.754 83.0668 169.624 81.0262L161.974 67.4409C159.628 68.7179 155.948 70.7456 153.606 72.0269L153.671 72.1477C155.507 72.5963 156.332 73.3858 157.339 75.1719L160.851 81.4016C160.483 81.7639 159.434 82.2687 159.015 82.5319C154.267 85.5 148.505 80.5387 145.736 75.6249C143.014 70.793 144.358 65.7411 148.734 63.4072C150.449 62.4925 153.654 61.7376 155.511 62.389C155.567 62.3588 155.624 62.3286 155.675 62.2984L152.436 56.5476C150.44 56.8798 148.492 57.5399 146.764 58.5106C137.087 63.9507 134.215 72.1865 139.083 80.8235C144.107 89.7408 152.392 92.3466 162.73 86.5354ZM110.551 142.568C109.475 142.611 108.802 141.67 108.227 140.652C108.089 140.402 105.7 136.144 104.637 134.254C105.35 133.862 105.73 133.655 106.447 133.258C106.832 133.055 107.069 132.995 107.328 133.133C107.367 133.154 107.411 133.18 107.454 133.202C107.523 133.167 107.799 133.012 107.868 132.973L106.443 130.436L106.149 130.605C106.011 130.743 105.881 130.889 105.743 131.032C104.883 131.498 104.365 131.778 103.501 132.248L102.754 130.911C102.028 129.496 101.916 129.034 103.251 128.228C103.579 128.085 103.557 128.098 104.102 128.115C104.166 128.124 104.395 128.159 104.464 128.163C104.758 126.998 105.056 125.825 105.35 124.655L103.099 125.674C101.441 126.601 99.8941 127.835 99.4233 129.802C99.0518 131.291 99.4535 132.14 100.076 133.232C100.145 133.348 100.464 133.909 100.555 134.073C100.413 134.966 100.27 135.855 100.127 136.748C100.62 136.476 101.108 136.2 101.6 135.933L105.259 142.421C105.385 142.65 105.51 142.866 105.631 143.077C106.046 143.845 106.266 144.354 105.743 145.199C105.717 145.243 105.691 145.281 105.665 145.329L105.903 145.752C107.475 144.897 109.38 143.849 110.948 142.991L110.707 142.564C110.655 142.564 110.603 142.568 110.551 142.568ZM153.576 98.1405L153.822 98.5806C153.883 98.5719 153.935 98.5633 153.991 98.5547C154.634 98.4857 154.984 98.7445 155.304 99.2795C155.736 100.03 155.926 101.333 156.103 102.528C156.591 105.751 157.049 107.834 157.546 111.061C154.535 108.49 152.388 106.588 149.369 104.003C148.889 103.598 147.775 102.657 147.546 102.23C147.507 102.14 147.464 102.049 147.42 101.959C147.382 101.872 147.343 101.786 147.299 101.704C146.008 102.437 144.34 103.382 143.049 104.111L143.278 104.521C143.317 104.525 143.36 104.534 143.399 104.538C144.785 104.737 145.878 105.859 147.023 106.829C150.034 109.388 153.036 111.942 156.038 114.496C157.667 115.699 159.244 116.01 160.777 116.027C160.777 116.027 161.023 115.997 161.118 116.005C160.095 109.159 159.071 102.39 158.069 95.5779C156.725 96.3501 154.92 97.3726 153.576 98.1405ZM120.085 127.395C119.813 125.29 119.601 123.495 119.329 121.385C120.988 122.723 122.288 123.905 123.947 125.238C122.56 126.019 120.085 127.395 120.085 127.395ZM135.515 128.685C133.856 128.78 132.742 127.775 131.403 126.726C127.273 123.504 123.268 120.38 119.346 117.317C117.938 118.106 116.43 118.952 115.022 119.742L115.281 120.199C115.342 120.182 115.406 120.173 115.463 120.156C116.063 120.048 116.24 120.186 116.43 120.488C116.625 120.816 116.689 121.394 116.763 121.933C117.255 125.984 117.851 129.975 118.344 134.013C118.344 134.013 118.763 137.197 117.795 138.564C117.765 138.612 117.735 138.651 117.705 138.694L117.951 139.134C119.601 138.223 121.67 137.076 123.316 136.161L123.061 135.708C123.005 135.717 122.945 135.726 122.888 135.738C122.137 135.833 121.916 135.704 121.7 135.355C121.528 135.053 121.42 134.513 121.32 133.793C121.126 132.503 120.949 131.204 120.754 129.914C122.707 128.823 123.895 128.163 125.843 127.067C126.867 127.904 127.886 128.732 128.91 129.561C129.675 130.178 130.146 130.549 130.275 130.799C130.4 131.019 130.362 131.209 129.895 131.838C129.86 131.882 129.826 131.925 129.796 131.972L130.046 132.417C131.861 131.398 134.107 130.139 135.921 129.116L135.675 128.681C135.623 128.685 135.571 128.685 135.515 128.685ZM141.472 122.986C140.945 123.283 140.703 123.521 140.146 123.715L133.705 112.282C133.705 112.282 134.634 111.562 135.282 111.2C139.252 108.995 142.185 109.797 144.496 113.835C146.721 117.796 144.988 120.962 141.472 122.986ZM134.241 108.844C132.202 109.996 130.159 111.143 128.12 112.295L128.383 112.757C128.448 112.744 128.504 112.727 128.565 112.714C129.467 112.477 130.141 113.387 130.711 114.396C130.867 114.668 136.504 124.681 136.647 124.936C137.23 125.988 137.567 126.756 137.023 127.861C137.001 127.9 136.979 127.943 136.962 127.982L137.195 128.404C139.2 127.274 143.317 124.979 143.317 124.979C148.777 121.864 150.513 116.385 147.809 111.571C145.075 106.726 139.805 105.712 134.241 108.844ZM237.414 61.2026C236.339 59.3087 235.069 58.9506 233.678 58.8298C233.678 58.8298 231.898 58.6055 231.419 57.4277C231.419 57.4277 230.598 55.8487 231.669 55.18C232.278 54.7874 232.766 54.9169 233.596 55.3699C233.704 55.4346 233.82 55.4993 233.941 55.5597L232.408 52.8418C232.373 52.8461 232.339 52.8461 232.308 52.8504C231.583 52.9065 231.246 52.9539 230.667 53.3163C229.246 54.1921 228.464 55.8789 229.95 58.5365L230.088 58.8169C231.345 61.0344 232.628 61.4226 234.01 61.5132C234.01 61.5132 235.898 61.6685 236.624 62.9973C236.624 62.9973 237.514 64.4771 236.697 65.5297C236.697 65.5297 235.596 66.8499 233.557 65.7713C233.548 65.7541 234.658 67.6868 235.194 68.6791C235.216 68.6748 235.237 68.6748 235.263 68.6704C236.144 68.541 236.732 68.0837 237.406 67.5833C240.123 65.6074 237.414 61.2026 237.414 61.2026ZM218.848 69.585C218.783 69.6454 218.584 69.7145 218.528 69.7705C217.625 68.1398 216.727 66.5953 215.824 64.9646C216.096 64.7143 216.463 64.5935 216.766 64.3908C216.792 64.3692 216.818 64.352 216.857 64.3261C217.807 63.7782 218.779 64.1578 219.513 65.4866C220.831 67.8249 220.096 68.8818 218.848 69.585ZM233.108 66.2027C233.043 66.2502 232.887 66.358 232.874 66.3667C232.87 66.3882 232.87 66.4141 232.87 66.4357C232.762 67.5272 232.291 68.4202 231.596 68.9034C231.509 68.9595 230.684 69.516 230.161 69.7749L227.591 65.2148C227.859 65.0379 228.459 64.6885 228.477 64.6755C228.853 64.4167 229.306 64.1966 229.673 64.5288C229.699 64.5461 229.73 64.572 229.76 64.5979C229.79 64.5763 229.933 64.4814 229.967 64.4555L228.567 61.9748C228.52 62.005 228.472 62.0396 228.421 62.0698C228.421 62.0698 228.403 62.0784 228.395 62.087C228.39 62.1 228.386 62.1129 228.386 62.1258C228.321 62.2898 228.144 62.4192 227.945 62.54C227.488 62.8377 227.081 63.0706 226.624 63.364C225.989 62.238 225.341 61.043 224.706 59.917C225.017 59.5934 225.574 59.313 225.976 59.0628C226.554 58.7047 227.064 58.4933 227.786 58.9247C227.807 58.9377 227.829 58.9506 227.855 58.9636C227.885 58.9463 227.911 58.929 227.945 58.9118C227.98 58.8859 228.015 58.86 228.053 58.8384L226.537 56.1464C226.49 56.1766 226.369 56.2499 226.356 56.2586C226.351 56.2672 226.351 56.2758 226.347 56.2888C226.304 56.4009 226.209 56.4872 226.084 56.5649C226.01 56.608 225.932 56.6512 225.85 56.7029C224.468 57.5442 222.49 58.5494 221.103 59.3907L221.319 59.7746C221.353 59.7746 221.388 59.7746 221.423 59.7789C221.988 59.7531 222.563 60.6245 223.06 61.5003C223.176 61.7074 226.226 67.1303 227.665 69.6713C227.665 69.6713 227.872 70.038 227.989 70.2408C228.464 71.0907 229.025 72.3073 228.792 72.8466C227.626 72.6481 226.654 72.1218 225.5 71.4919C224.166 70.7499 222.826 69.9992 221.483 69.2356C222.416 67.9802 222.731 65.8662 221.712 64.0111C220.589 61.9921 218.407 60.9653 216.286 62.1992C216.286 62.1992 213.228 63.886 211.945 64.6367C211.997 64.723 212.17 65.0379 212.2 65.0854C212.234 65.081 212.278 65.0767 212.321 65.0767C212.969 65.0206 213.548 65.8749 214.053 66.7808C214.183 67.0267 218.995 75.9743 219.129 76.2159C219.63 77.1176 220.153 78.2004 219.781 78.7613C219.755 78.8001 219.734 78.8303 219.712 78.8691C219.746 78.9382 219.928 79.266 219.971 79.3351C221.025 78.7095 222.567 77.8208 223.626 77.1348C223.617 77.1391 223.388 76.7077 223.362 76.6603C223.319 76.6646 223.28 76.6689 223.241 76.6819C222.589 76.7768 221.846 75.7155 221.336 74.7879C221.22 74.5808 221.116 74.3781 221.004 74.1839C220.196 72.7171 219.548 71.6084 218.736 70.1416C219.759 70.9828 220.736 71.4919 221.837 72.2512C223.643 73.4376 225.194 74.2141 225.194 74.2141C226.11 74.7146 226.891 74.7577 227.691 74.2314C227.704 74.2228 227.716 74.2185 227.725 74.2098C228.347 73.8 228.974 73.3858 229.6 72.9717C229.591 72.9717 229.583 72.9674 229.57 72.9674C231.233 71.8845 232.771 70.7542 234.222 69.7231C233.876 68.5885 233.449 67.3374 233.108 66.2027ZM176.54 101.117L176.462 101.16C176.454 101.191 176.445 101.221 176.432 101.247C175.944 102.679 175.201 103.512 173.901 104.271C173.736 104.366 171.797 105.496 170.842 105.941L168.069 101.018C168.566 100.729 169.447 100.211 169.494 100.185C170.181 99.7713 171.179 99.2795 171.693 99.6246C171.732 99.6548 171.771 99.6764 171.81 99.6979C171.879 99.6634 172.143 99.5081 172.212 99.4736L170.41 96.2811C170.32 96.3329 170.104 96.458 170.091 96.4666C170.082 96.4839 170.069 96.5011 170.056 96.5141C169.918 96.747 169.577 96.9541 169.205 97.1655C168.367 97.653 167.551 98.1233 166.708 98.6064C165.978 97.3036 165.417 96.3156 164.687 95.0127C165.296 94.5252 165.814 94.1974 166.553 93.766C167.602 93.1663 168.51 92.7694 169.585 93.1577C169.62 93.1663 169.65 93.1835 169.685 93.1922C169.736 93.162 169.987 93.0196 170.056 92.9808L168.207 89.6977C168.112 89.7495 167.896 89.8746 167.875 89.8832C167.866 89.9005 167.853 89.9134 167.844 89.9263C167.745 90.0903 167.564 90.2197 167.335 90.3491C167.205 90.4268 167.058 90.5001 166.911 90.5864C164.592 91.9109 161.935 93.3561 159.213 94.9092L159.46 95.3536C159.52 95.3449 159.572 95.3363 159.628 95.3277C160.574 95.1551 161.274 96.1301 161.84 97.144L167.145 106.557C167.145 106.557 167.382 106.985 167.516 107.218C168.082 108.218 168.561 109.34 167.926 110.052C167.892 110.099 167.857 110.138 167.818 110.186L168.069 110.634C171.365 108.706 174.791 106.765 178.074 104.819C177.814 103.438 177.439 102.122 177.179 100.742C177.063 100.811 176.657 101.044 176.54 101.117ZM186.337 79.8571C186.359 79.8182 186.38 79.7794 186.402 79.7363L186.173 79.3264C184.791 80.1289 183.123 81.0866 181.745 81.8804L181.979 82.2946C182.022 82.2989 182.069 82.2946 182.117 82.2989C183.473 82.342 183.491 82.5577 184.199 83.783C184.199 83.783 187.305 89.2965 188.821 91.9885C184.454 90.0946 181.128 88.2654 176.721 86.2981C176.536 86.2075 176.354 86.1126 176.173 86.022C175.905 85.9099 175.81 85.8753 175.616 85.6941L175.499 85.4914C174.333 86.1644 172.497 87.2127 171.326 87.8814L171.559 88.2999C171.607 88.2999 171.65 88.3042 171.698 88.3042C173.089 88.3689 173.486 89.1325 174.242 90.4484L179.452 99.685C180.182 101.014 180.627 101.747 179.97 103.046C179.953 103.085 179.931 103.123 179.909 103.167L180.147 103.589C181.521 102.765 183.145 101.799 184.523 100.979L184.285 100.561C184.242 100.556 184.199 100.556 184.151 100.556C182.782 100.5 182.674 99.6289 181.961 98.3907C181.94 98.3519 181.918 98.3088 181.888 98.257L177.555 90.5648C181.681 92.4113 184.86 93.8997 188.951 95.6814C190.614 96.4278 192.147 96.8204 193.914 96.2725C194.018 96.2552 194.087 96.1905 194.191 96.1733L186.838 83.1272C186.113 81.82 185.681 81.0952 186.337 79.8571ZM203.076 89.5294C201.802 89.4734 201.361 88.6623 200.679 87.4759L195.016 77.4325C195.551 77.1176 196.083 76.807 196.614 76.4963C197.258 76.1081 197.599 76.0736 198.139 76.5783C198.174 76.6171 198.212 76.6473 198.251 76.6819C198.307 76.6473 198.372 76.6085 198.433 76.574C198.476 76.5481 198.523 76.5222 198.567 76.4963C198.247 75.3531 197.776 73.9467 197.456 72.8034C197.361 72.8595 197.262 72.9156 197.167 72.976C196.951 73.2693 196.675 73.4678 196.342 73.6576C193.72 75.1805 191.219 76.6387 188.597 78.1616C188.324 78.2651 188.087 78.3903 187.836 78.4118C187.789 78.4291 187.491 78.593 187.452 78.6189C187.754 79.7924 188.208 81.2333 188.514 82.4067C188.614 82.3464 188.86 82.1997 188.882 82.191C188.89 82.1608 188.899 82.135 188.903 82.1048C189.132 81.1858 189.841 80.4481 190.666 79.9692C191.184 79.6629 191.707 79.3609 192.229 79.0546L197.646 88.6752C197.646 88.6752 197.88 89.0808 198.005 89.3094C198.536 90.2499 199.081 91.4449 198.575 92.105C198.545 92.1438 198.519 92.1827 198.489 92.2258L198.722 92.6486C200.13 91.7858 202.022 90.7935 203.422 89.9307L203.197 89.5294H203.076ZM218.196 79.732C217.422 79.87 217.176 79.2143 216.96 78.9252C216.839 78.7095 213.185 71.8759 211.638 69.1321C211.638 69.1321 211.401 68.7308 211.284 68.5194C210.744 67.5703 210.273 66.5651 210.766 65.9266C210.805 65.8749 210.843 65.8188 210.882 65.767C210.822 65.6246 210.714 65.3874 210.675 65.3485C209.405 66.1035 207.582 67.0958 206.312 67.8464L206.545 68.2606C206.593 68.2563 206.64 68.252 206.683 68.2477C207.448 68.1355 208.096 69.0587 208.623 70.0035C208.748 70.2279 212.714 77.5145 212.757 77.5835C213.146 78.2738 213.375 78.7052 213.353 79.4731C213.327 80.7932 212.714 81.5439 211.733 82.1608C209.91 83.2782 208.714 82.6699 207.055 79.788L203.711 73.8518C203.711 73.8518 203.444 73.3858 203.318 73.1701C202.774 72.2167 202.282 71.1166 202.757 70.4953C202.783 70.4522 202.813 70.4134 202.839 70.3788L202.601 69.9561C201.314 70.711 199.776 71.6084 198.485 72.3634L198.726 72.7862C198.774 72.7818 198.817 72.7775 198.865 72.7732C199.625 72.6654 200.286 73.6102 200.813 74.5463C200.955 74.8009 204.861 81.6561 204.93 81.7726C205.755 83.248 206.554 84.5854 208.217 85.2541C209.729 85.8581 210.99 85.3835 212.226 84.5983C213.396 83.8563 214.507 82.5664 214.796 80.9529L215.444 82.1004C216.515 81.5051 217.591 80.7976 218.606 80.2022L218.33 79.7104C218.282 79.7147 218.243 79.7233 218.196 79.732ZM76.5069 158.53C76.0101 158.793 75.6256 159.039 75.1072 159.203L69.1071 148.556C69.6384 148.09 70.0531 147.766 70.6579 147.439C74.3815 145.648 77.0166 146.563 79.0901 150.243C81.237 154.069 79.7942 156.787 76.5069 158.53ZM69.5477 145.01C67.8068 145.967 65.9752 147.093 63.9406 148.206L64.1912 148.646C64.2516 148.634 64.3035 148.625 64.3639 148.612C65.1977 148.409 65.837 149.276 66.3813 150.238C66.5282 150.497 71.889 160.023 72.0229 160.26C72.5759 161.265 72.8998 161.995 72.3987 163C72.3771 163.034 72.3555 163.069 72.3383 163.103L72.5629 163.509C74.4377 162.534 76.3081 161.559 78.1786 160.584C83.2932 157.9 84.9693 152.788 82.3472 148.116C79.6862 143.413 74.6969 142.197 69.5477 145.01ZM25.1706 169.393C25.2181 169.475 25.365 169.738 25.365 169.738C25.9222 169.782 26.3715 170.243 26.6868 170.783C27.0151 171.356 29.1923 176.865 30.0303 179.307C27.8963 177.219 26.4233 175.688 24.393 173.272C24.393 173.272 23.0884 171.654 22.8724 171.27C22.799 171.141 22.7428 171.02 22.6997 170.912C22.6694 170.83 22.6392 170.748 22.6046 170.666C21.961 170.994 21.0538 171.499 20.4058 171.827L20.6046 172.185C20.6348 172.189 20.665 172.193 20.6953 172.202C21.1143 172.301 21.3821 172.594 21.6586 173.073C21.9394 173.574 24.3844 179.243 25.4686 181.788C23.2915 179.208 21.5765 176.904 19.4339 174.376C19.2006 174.1 18.8378 173.656 18.6391 173.306C18.6045 173.242 18.5743 173.181 18.5483 173.121C18.5181 173.047 18.4879 172.974 18.4533 172.896C17.7924 173.233 17.1401 173.6 16.4748 173.932L16.6606 174.26L16.7427 174.294C17.6282 174.605 18.4101 175.714 19.2309 176.671C21.0322 178.794 24.6781 183.453 24.6781 183.453C26.2548 185.097 27.0194 185.39 28.1771 185.615C28.1771 185.615 28.5746 185.615 28.5962 185.602C28.5659 185.52 25.7321 179.605 24.5658 176.188C26.1468 178.069 29.6372 181.628 29.6372 181.628C31.1362 183.22 32.1125 183.772 33.4905 183.609C33.5553 183.634 33.6114 183.565 33.6805 183.596C31.9181 178.47 29.6243 173.242 27.7927 167.991C27.0972 168.354 25.8704 169.035 25.1706 169.393ZM49.1065 165.351C49.0244 165.416 48.5967 165.683 48.5967 165.683L45.8623 160.838C45.8623 160.838 46.8559 160.213 46.8991 160.187C48.1129 159.553 49.3311 159.885 50.1043 161.252C51.1627 163.095 50.545 164.268 49.1065 165.351ZM69.4224 160.562C69.4138 160.588 69.4051 160.61 69.3965 160.636C68.9429 161.969 68.1394 163.013 66.904 163.647C66.8003 163.694 64.865 164.695 63.9406 165.083L58.5884 155.584C58.4631 155.359 58.3206 155.122 58.178 154.868C57.6467 153.931 57.219 152.918 57.7547 152.288C57.7849 152.249 57.8152 152.21 57.8497 152.171L57.6078 151.744C56.178 152.525 54.4932 153.435 53.0634 154.216L53.301 154.635C53.3528 154.63 53.4003 154.622 53.4522 154.622C54.3075 154.497 54.9684 155.441 55.5127 156.403C55.638 156.628 55.7546 156.848 55.8669 157.042C57.435 159.829 60.8088 165.8 60.934 166.02C61.474 166.982 61.9319 168.039 61.3574 168.647C61.3401 168.669 61.3185 168.69 61.2969 168.716C59.4912 168.466 57.8065 167.961 56.5581 167.366C54.9684 166.602 53.6595 165.683 52.0785 164.932C53.3744 163.595 53.6941 161.52 52.6098 159.579C51.4132 157.473 48.8387 156.511 46.1345 157.969C44.5059 158.845 42.8773 159.721 41.2488 160.597C41.2963 160.683 41.4475 160.951 41.4734 161.002C41.5253 160.994 41.5728 160.989 41.6246 160.985C42.4151 160.877 43.1538 161.947 43.6636 162.853C43.8018 163.099 48.9034 172.262 49.0417 172.504C49.5514 173.41 50.0309 174.488 49.4953 175.054C49.4607 175.088 49.4261 175.127 49.3959 175.161C49.4348 175.23 49.5903 175.507 49.6249 175.571C50.9337 174.859 52.7826 173.889 54.1693 173.142L53.8971 172.663C53.8496 172.668 53.7978 172.676 53.7459 172.681C52.9208 172.789 52.1519 171.943 51.6249 171.007C51.5083 170.795 49.8149 167.849 48.9769 166.36C50.1864 167.18 50.9294 167.551 52.2081 168.31C53.599 169.083 54.8561 169.687 56.2946 170.368C57.3875 170.89 58.3076 170.843 59.3746 170.299C59.3876 170.295 59.4048 170.291 59.4178 170.282C60.1954 169.889 61.2278 169.329 62.0399 168.914C64.8823 167.465 68.1178 165.787 70.8998 164.354C70.6017 163.008 70.1438 161.636 69.8285 160.351C69.7162 160.411 69.444 160.549 69.4224 160.562ZM41.5382 177.064C38.9075 178.311 36.0435 176.378 34.484 173.617C32.8166 170.636 32.5747 167.763 35.1277 166.404C37.7152 165.04 40.4453 167.055 42.1257 170.028C43.8234 173.056 44.0955 175.826 41.5382 177.064ZM34.1644 164.156L34.1298 164.173C34.1298 164.173 34.0218 164.225 33.9656 164.255C30.4234 166.171 29.6329 170.248 32.1384 174.786C34.5315 179.035 39.4129 180.666 42.9378 179.018C46.4757 177.349 47.2619 172.672 44.7694 168.246C42.5663 164.341 37.78 162.227 34.1644 164.156ZM97.7731 147.732C95.6003 148.901 93.2287 147.439 92.0926 145.441C91.0127 143.504 91.4058 141.278 93.3972 140.182C95.6824 138.927 97.933 140.359 99.1512 142.494C100.235 144.432 99.7602 146.658 97.7731 147.732ZM97.3455 137.007C95.57 136.614 93.9588 136.946 92.3993 137.805C88.8874 139.746 87.2199 143.78 89.2977 147.486C91.2805 151.011 95.5355 151.839 98.9136 150.027C102.387 148.15 103.925 143.961 101.899 140.355C100.94 138.655 99.2375 137.434 97.3455 137.007Z" fill="white"/>
</svg>
