<svg width="247" height="48" viewBox="0 0 247 48" fill="none" xmlns="http://www.w3.org/2000/svg">
<path d="M136.998 37.5371L130.035 41.4636H129.543L131.668 37.5371H128.338L122.68 47.9987H126.011L128.134 44.0723H128.644L131.412 47.9987H135.375L131.819 42.7696L140.961 37.5371H136.998Z" fill="#0A1C55"/>
<path d="M116.115 40.9153L115.768 41.5591C115.669 41.7423 115.517 41.8953 115.317 42.0197C115.115 42.1424 114.915 42.2046 114.716 42.2046H109.457L110.501 40.2716H115.761C115.96 40.2716 116.093 40.3338 116.16 40.4582C116.229 40.5809 116.214 40.7338 116.115 40.9153ZM118.292 37.5352H108.649L102.992 47.9985H106.324L107.979 44.9393H111.467L112.268 47.9985H116.056L115.209 44.8267C115.921 44.6552 116.608 44.3292 117.265 43.8451C117.925 43.3627 118.418 42.8147 118.75 42.2046L119.793 40.2716C120.199 39.5202 120.256 38.8765 119.962 38.3403C119.667 37.8058 119.112 37.5352 118.292 37.5352Z" fill="#0A1C55"/>
<path d="M78.6852 40.9153L78.2492 41.7205C78.1532 41.902 78.0017 42.0566 77.7997 42.181C77.5977 42.3037 77.3991 42.3642 77.2004 42.3642H71.9412L73.0708 40.2716H78.3317C78.5303 40.2716 78.6617 40.3338 78.7307 40.4582C78.7997 40.5809 78.7846 40.7338 78.6852 40.9153ZM82.532 38.3403C82.2374 37.8058 81.6818 37.5352 80.862 37.5352H71.219L65.5625 47.9985H68.8941L70.4614 45.1007H76.7728C77.591 45.1007 78.4361 44.8334 79.3115 44.2955C80.1869 43.7593 80.8266 43.1156 81.2323 42.3642L82.3636 40.2716C82.7694 39.5202 82.8266 38.8765 82.532 38.3403Z" fill="#0A1C55"/>
<path d="M90.2633 43.9092L94.238 40.3845L94.3997 43.9092H90.2633ZM94.1118 37.5371L82.0547 48.0004H85.6674L87.7297 46.1649H94.4973L94.573 48.0004H98.1875L97.4434 37.5371H94.1118Z" fill="#0A1C55"/>
<path d="M79.0142 29.0771H75.5411C74.8088 29.0771 74.3189 28.8283 74.0698 28.3308C73.8139 27.8265 73.8812 27.2063 74.2735 26.4717L77.6455 20.1938C78.5529 18.5062 79.0041 16.9648 79.0041 15.5765C79.0041 13.8855 78.4687 12.4534 77.398 11.2768C75.4502 9.13711 73.356 8.08322 69.2584 8.11515C66.2264 8.13868 63.3932 8.65134 60.7602 9.65481L66.085 0H2.6498L0 4.87615L16.8786 4.83413L5.58411 25.9154C5.06391 26.8936 4.80297 27.8416 4.80297 28.7577C4.80297 29.6183 5.03024 30.4503 5.48141 31.2571C6.49319 33.0405 8.28946 33.933 10.8702 33.933H25.232L27.8229 29.0771H23.1849C22.4677 29.0771 21.9795 28.8283 21.7236 28.3308C21.4678 27.8265 21.5351 27.2063 21.9273 26.4717L33.5164 4.83413H47.4843L32.0333 33.933H47.8681L56.8882 17.0926L56.9235 16.9968L56.9673 16.9144C57.873 15.2554 59.2232 14.4268 61.0194 14.4268C61.6979 14.4268 62.2383 14.6722 62.6389 15.1613C63.0598 15.6908 63.1019 16.2706 62.7618 16.9026L57.9303 25.9154C57.1222 27.4147 56.7198 28.7224 56.7198 29.8351C56.7198 30.5932 56.9067 31.2605 57.2855 31.837C58.2047 33.2338 60.1828 33.933 63.2147 33.933H76.4233L79.0142 29.0771Z" fill="#0A1C55"/>
<path d="M135.424 33.9331L143.629 18.5835C144.264 17.4002 144.934 16.4674 145.644 15.7883C145.984 17.7952 146.664 19.2777 147.688 20.2358C148.71 21.1956 150.092 21.6746 151.834 21.6746C154.014 21.6746 155.875 20.7048 157.415 18.7617C158.787 17.0254 159.469 15.1933 159.462 13.267C159.44 9.16069 157.301 7.19914 153.046 7.38067C150.767 7.4748 148.259 8.69174 145.52 11.0281L145.728 8.96572H132.232L118.961 33.9331H135.424Z" fill="#0A1C55"/>
<path d="M184.873 17.1631C184.873 17.1631 179.845 26.5304 179.656 26.8868C178.781 28.5357 177.501 29.3526 175.819 29.3375C174.944 29.3291 174.345 29.0265 174.02 28.4264C173.68 27.786 173.744 27.0246 174.212 26.1405L179.419 16.4285C180.301 14.7779 181.58 13.9577 183.255 13.9644C184.131 13.9728 184.733 14.2804 185.065 14.8889C185.405 15.5209 185.341 16.2789 184.873 17.1631ZM194.851 10.5304C192.58 9.14875 189.589 8.47305 185.877 8.50499C182.255 8.53692 179.338 9.19582 177.127 10.4833L177.087 8.96554H163.589L142.805 47.9983L159.426 47.9949L167.35 33.069C169.515 34.2842 172.239 34.8927 175.52 34.8927C181.284 34.8927 186.491 33.5934 191.139 30.9948C196.511 27.9961 199.208 24.0512 199.232 19.1649C199.245 15.2015 197.785 12.3239 194.851 10.5304Z" fill="#0A1C55"/>
<path d="M221.173 15.5518C222.101 13.8222 223.436 12.9666 225.18 12.9817C226.092 12.9902 226.722 13.3129 227.07 13.9533C227.424 14.6004 227.355 15.3904 226.867 16.3216L225.631 18.6311H219.532L221.173 15.5518ZM217.218 29.0625C216.368 29.0305 215.793 28.6876 215.491 28.0338C215.181 27.3715 215.261 26.6017 215.729 25.7243L216.929 23.4871H239.563C240.129 22.4214 240.541 21.4885 240.797 20.6918C241.099 19.7522 241.242 18.821 241.228 17.8966C241.159 14.2172 239.292 11.5295 235.626 9.83183C232.802 8.52077 229.144 7.86523 224.648 7.86523C218.617 7.86523 213.183 9.16453 208.338 11.7614C202.665 14.8105 199.828 18.8076 199.828 23.7594C199.828 27.1631 201.409 29.7835 204.57 31.6224C207.219 33.1621 210.454 33.9319 214.281 33.9319H244.383L246.998 29.0557C246.998 29.0557 217.282 29.0658 217.218 29.0625Z" fill="#0A1C55"/>
<path d="M98.4491 16.7088C103.301 12.4378 108.671 10.6023 110.442 12.6076C112.215 14.6145 109.718 19.7041 104.865 23.9752C100.013 28.2462 94.6427 30.0817 92.8717 28.0764C91.099 26.0695 93.5973 20.9799 98.4491 16.7088ZM88.131 29.9539C92.9828 32.6063 98.4188 33.9325 104.441 33.9325C108.846 33.9325 112.759 33.1627 116.176 31.623C120.727 29.5707 123.001 26.5351 123.001 22.5162C123.001 17.4703 120.164 13.4009 114.491 10.3048C109.624 7.65241 104.186 6.32286 98.1814 6.31445C93.7757 6.31445 89.8633 7.08764 86.4459 8.63571C81.9038 10.6964 79.6328 13.7321 79.6328 17.7426C79.6328 22.7885 82.4644 26.8595 88.131 29.9539Z" fill="#0A1C55"/>
</svg>
